<svg width="34" height="34" viewBox="0 0 34 34" fill="none" xmlns="http://www.w3.org/2000/svg">
<mask id="mask0_126_1848" style="mask-type:alpha" maskUnits="userSpaceOnUse" x="0" y="0" width="34" height="34">
<rect width="34" height="34" fill="#D9D9D9"/>
</mask>
<g mask="url(#mask0_126_1848)">
<path d="M17 31.1663C15.0403 31.1663 13.1987 30.7945 11.475 30.0507C9.75143 29.307 8.25212 28.2976 6.97712 27.0226C5.70212 25.7476 4.69275 24.2483 3.949 22.5247C3.20525 20.8011 2.83337 18.9594 2.83337 16.9997H5.66671C5.66671 19.715 6.52261 22.1115 8.23442 24.1893C9.94622 26.267 12.1362 27.5775 14.8042 28.1205L12.75 26.0663L14.7334 24.083L21.1792 30.5288C20.4945 30.765 19.8039 30.9302 19.1073 31.0247C18.4108 31.1191 17.7084 31.1663 17 31.1663ZM17.7084 21.2497V12.7497H21.9584C22.3598 12.7497 22.6962 12.8854 22.9678 13.157C23.2393 13.4285 23.375 13.765 23.375 14.1663V19.833C23.375 20.2344 23.2393 20.5709 22.9678 20.8424C22.6962 21.1139 22.3598 21.2497 21.9584 21.2497H17.7084ZM10.625 21.2497V19.1247H14.1667V17.708H12.0417V16.2913H14.1667V14.8747H10.625V12.7497H14.875C15.2764 12.7497 15.6129 12.8854 15.8844 13.157C16.1559 13.4285 16.2917 13.765 16.2917 14.1663V19.833C16.2917 20.2344 16.1559 20.5709 15.8844 20.8424C15.6129 21.1139 15.2764 21.2497 14.875 21.2497H10.625ZM19.8334 19.1247H21.25V14.8747H19.8334V19.1247ZM28.3334 16.9997C28.3334 14.2844 27.4775 11.8879 25.7657 9.81009C24.0539 7.73231 21.8639 6.4219 19.1959 5.87884L21.25 7.93301L19.2667 9.91634L12.8209 3.47051C13.5056 3.2344 14.1962 3.06912 14.8927 2.97467C15.5893 2.88023 16.2917 2.83301 17 2.83301C18.9598 2.83301 20.8014 3.20488 22.525 3.94863C24.2487 4.69238 25.748 5.70176 27.023 6.97676C28.298 8.25176 29.3073 9.75106 30.0511 11.4747C30.7948 13.1983 31.1667 15.04 31.1667 16.9997H28.3334Z" fill="#FFFBEF"/>
</g>
</svg>
