<svg width="146" height="146" viewBox="0 0 146 146" fill="none" xmlns="http://www.w3.org/2000/svg">
<circle cx="73" cy="73" r="70" fill="#504558" stroke="#DDD0A9" stroke-width="6"/>
<path d="M70 95.275V74.725L52 64.3V84.85L70 95.275ZM76 95.275L94 84.85V64.3L76 74.725V95.275ZM73 69.55L90.775 59.275L73 49L55.225 59.275L73 69.55ZM49 90.1C48.05 89.55 47.3125 88.825 46.7875 87.925C46.2625 87.025 46 86.025 46 84.925V61.075C46 59.975 46.2625 58.975 46.7875 58.075C47.3125 57.175 48.05 56.45 49 55.9L70 43.825C70.95 43.275 71.95 43 73 43C74.05 43 75.05 43.275 76 43.825L97 55.9C97.95 56.45 98.6875 57.175 99.2125 58.075C99.7375 58.975 100 59.975 100 61.075V84.925C100 86.025 99.7375 87.025 99.2125 87.925C98.6875 88.825 97.95 89.55 97 90.1L76 102.175C75.05 102.725 74.05 103 73 103C71.95 103 70.95 102.725 70 102.175L49 90.1Z" fill="#FFFBEF"/>
<path d="M109.5 56.3333C109.5 49.9444 107.486 44.3056 103.458 39.4167C99.4306 34.5278 94.2778 31.4444 88 30.1667L92.8333 35L88.1667 39.6667L73 24.5C74.6111 23.9444 76.2361 23.5556 77.875 23.3333C79.5139 23.1111 81.1667 23 82.8333 23C87.4444 23 91.7778 23.875 95.8333 25.625C99.8889 27.375 103.417 29.75 106.417 32.75C109.417 35.75 111.792 39.2778 113.542 43.3333C115.292 47.3889 116.167 51.7222 116.167 56.3333H109.5Z" fill="#FFFBEF"/>
<path d="M34.667 84.9987C34.667 91.3876 36.6809 97.0265 40.7087 101.915C44.7364 106.804 49.8892 109.888 56.167 111.165L51.3337 106.332L56.0003 101.665L71.167 116.832C69.5559 117.388 67.9309 117.776 66.292 117.999C64.6531 118.221 63.0003 118.332 61.3337 118.332C56.7225 118.332 52.3892 117.457 48.3337 115.707C44.2781 113.957 40.7503 111.582 37.7503 108.582C34.7503 105.582 32.3753 102.054 30.6253 97.9987C28.8753 93.9431 28.0003 89.6098 28.0003 84.9987L34.667 84.9987Z" fill="#FFFBEF"/>
</svg>
