<svg width="29" height="29" viewBox="0 0 29 29" fill="none" xmlns="http://www.w3.org/2000/svg">
<mask id="mask0_126_1856" style="mask-type:alpha" maskUnits="userSpaceOnUse" x="0" y="0" width="29" height="29">
<rect width="29" height="29" fill="#FFFBEF"/>
</mask>
<g mask="url(#mask0_126_1856)">
<path d="M3.62504 25.3747C2.96046 25.3747 2.39153 25.138 1.91827 24.6648C1.44501 24.1915 1.20837 23.6226 1.20837 22.958V8.45801C1.20837 7.79342 1.44501 7.2245 1.91827 6.75124C2.39153 6.27797 2.96046 6.04134 3.62504 6.04134H7.43129L9.66671 3.62467H16.9167V6.04134H10.724L8.51879 8.45801H3.62504V22.958H22.9584V12.083H25.375V22.958C25.375 23.6226 25.1384 24.1915 24.6651 24.6648C24.1919 25.138 23.623 25.3747 22.9584 25.3747H3.62504ZM22.9584 8.45801V6.04134H20.5417V3.62467H22.9584V1.20801H25.375V3.62467H27.7917V6.04134H25.375V8.45801H22.9584ZM13.2917 21.1455C14.8021 21.1455 16.086 20.6169 17.1433 19.5596C18.2006 18.5023 18.7292 17.2184 18.7292 15.708C18.7292 14.1976 18.2006 12.9137 17.1433 11.8564C16.086 10.7992 14.8021 10.2705 13.2917 10.2705C11.7813 10.2705 10.4974 10.7992 9.44015 11.8564C8.38285 12.9137 7.85421 14.1976 7.85421 15.708C7.85421 17.2184 8.38285 18.5023 9.44015 19.5596C10.4974 20.6169 11.7813 21.1455 13.2917 21.1455ZM13.2917 18.7288C12.4459 18.7288 11.7309 18.4368 11.1469 17.8528C10.5629 17.2688 10.2709 16.5538 10.2709 15.708C10.2709 14.8622 10.5629 14.1472 11.1469 13.5632C11.7309 12.9792 12.4459 12.6872 13.2917 12.6872C14.1375 12.6872 14.8525 12.9792 15.4365 13.5632C16.0205 14.1472 16.3125 14.8622 16.3125 15.708C16.3125 16.5538 16.0205 17.2688 15.4365 17.8528C14.8525 18.4368 14.1375 18.7288 13.2917 18.7288Z" fill="#FFFBEF"/>
</g>
</svg>
