<svg width="34" height="34" viewBox="0 0 34 34" fill="none" xmlns="http://www.w3.org/2000/svg">
<mask id="mask0_126_1840" style="mask-type:alpha" maskUnits="userSpaceOnUse" x="0" y="0" width="34" height="34">
<rect width="34" height="34" fill="#FFFBEF"/>
</mask>
<g mask="url(#mask0_126_1840)">
<path d="M12.75 31.1663C11.3806 31.1663 10.0938 30.9066 8.88962 30.3872C7.68546 29.8677 6.63476 29.1594 5.73754 28.2622C4.84032 27.365 4.13199 26.3143 3.61254 25.1101C3.0931 23.9059 2.83337 22.6191 2.83337 21.2497C2.83337 19.3372 3.32921 17.59 4.32087 16.008C5.31254 14.4261 6.61115 13.2219 8.21671 12.3955C8.68893 11.4747 9.2733 10.666 9.96983 9.96947C10.6664 9.27294 11.475 8.68856 12.3959 8.21634C13.175 6.61079 14.3674 5.31217 15.973 4.32051C17.5785 3.32884 19.3375 2.83301 21.25 2.83301C22.6195 2.83301 23.9063 3.09273 25.1105 3.61217C26.3146 4.13162 27.3653 4.83995 28.2625 5.73717C29.1598 6.6344 29.8681 7.68509 30.3875 8.88926C30.907 10.0934 31.1667 11.3802 31.1667 12.7497C31.1667 14.7566 30.6709 16.5275 29.6792 18.0622C28.6875 19.5969 27.3889 20.7775 25.7834 21.6038C25.3112 22.5247 24.7268 23.3334 24.0303 24.0299C23.3337 24.7264 22.525 25.3108 21.6042 25.783C20.7778 27.3886 19.5737 28.6872 17.9917 29.6788C16.4098 30.6705 14.6625 31.1663 12.75 31.1663ZM12.75 28.333C13.5292 28.333 14.2789 28.215 14.999 27.9788C15.7191 27.7427 16.3862 27.3886 17 26.9163C15.6306 26.9163 14.3438 26.6566 13.1396 26.1372C11.9355 25.6177 10.8848 24.9094 9.98754 24.0122C9.09032 23.115 8.38199 22.0643 7.86254 20.8601C7.3431 19.6559 7.08337 18.3691 7.08337 16.9997C6.61115 17.6136 6.25699 18.2806 6.02087 19.0007C5.78476 19.7209 5.66671 20.4705 5.66671 21.2497C5.66671 22.2413 5.8556 23.1622 6.23337 24.0122C6.61115 24.8622 7.11879 25.6059 7.75629 26.2434C8.39379 26.8809 9.13754 27.3886 9.98754 27.7663C10.8375 28.1441 11.7584 28.333 12.75 28.333ZM17 24.083C17.7792 24.083 18.5407 23.965 19.2844 23.7288C20.0282 23.4927 20.707 23.1386 21.3209 22.6663C19.9278 22.6663 18.6292 22.4007 17.425 21.8695C16.2209 21.3382 15.1702 20.624 14.273 19.7268C13.3757 18.8295 12.6615 17.7788 12.1302 16.5747C11.599 15.3705 11.3334 14.0719 11.3334 12.6788C10.8612 13.2927 10.507 13.9715 10.2709 14.7153C10.0348 15.4591 9.91671 16.2205 9.91671 16.9997C9.91671 17.9913 10.0997 18.9122 10.4657 19.7622C10.8316 20.6122 11.3452 21.3559 12.0063 21.9934C12.6438 22.6545 13.3875 23.1681 14.2375 23.534C15.0875 23.9 16.0084 24.083 17 24.083ZM21.25 19.833C21.675 19.833 22.0823 19.7976 22.4719 19.7268C22.8615 19.6559 23.257 19.5497 23.6584 19.408C24.1778 17.9913 24.2546 16.6278 23.8886 15.3174C23.5226 14.007 22.891 12.9031 21.9938 12.0059C21.0966 11.1087 19.9928 10.4771 18.6823 10.1111C17.3719 9.74516 16.0084 9.8219 14.5917 10.3413C14.45 10.7427 14.3438 11.1382 14.273 11.5278C14.2021 11.9174 14.1667 12.3247 14.1667 12.7497C14.1667 13.7413 14.3497 14.6622 14.7157 15.5122C15.0816 16.3622 15.5952 17.1059 16.2563 17.7434C16.8938 18.4045 17.6375 18.9181 18.4875 19.284C19.3375 19.65 20.2584 19.833 21.25 19.833ZM26.9167 17.0705C27.3889 16.4566 27.7431 15.7778 27.9792 15.034C28.2153 14.2903 28.3334 13.5288 28.3334 12.7497C28.3334 11.758 28.1504 10.8372 27.7844 9.98717C27.4184 9.13718 26.9049 8.39342 26.2438 7.75593C25.6063 7.09481 24.8625 6.58127 24.0125 6.2153C23.1625 5.84933 22.2417 5.66634 21.25 5.66634C20.4237 5.66634 19.6504 5.7844 18.9303 6.02051C18.2101 6.25662 17.5431 6.61079 16.9292 7.08301C18.3223 7.08301 19.6209 7.34863 20.825 7.87988C22.0292 8.41113 23.0799 9.12537 23.9771 10.0226C24.8743 10.9198 25.5886 11.9705 26.1198 13.1747C26.6511 14.3788 26.9167 15.6775 26.9167 17.0705Z" fill="#FFFBEF"/>
</g>
</svg>
