<svg width="51" height="52" viewBox="0 0 51 52" fill="none" xmlns="http://www.w3.org/2000/svg">
<ellipse cx="25.136" cy="26.0161" rx="25.309" ry="24.9927" transform="rotate(90 25.136 26.0161)" fill="#504558"/>
<path d="M25.1359 49.1543C37.7493 49.1543 47.9863 38.7877 47.9863 26.0146C47.9863 13.2415 37.7493 2.87491 25.1359 2.87491C12.5224 2.87491 2.28543 13.2415 2.28543 26.0146C2.28543 38.7877 12.5224 49.1543 25.1359 49.1543ZM17.1382 24.2791L28.9976 24.2791L25.0673 20.2991C24.4047 19.628 24.4047 18.5173 25.0673 17.8463C25.4101 17.4992 25.8442 17.3372 26.2784 17.3372C26.7126 17.3372 27.1467 17.4992 27.4895 17.8463L34.3446 24.7882C35.0073 25.4593 35.0073 26.57 34.3446 27.241L27.4895 34.1829C26.8268 34.854 25.73 34.854 25.0673 34.1829C24.4047 33.5119 24.4047 32.4012 25.0673 31.7301L28.9976 27.7501L17.1382 27.7501C16.2014 27.7501 15.4244 26.9633 15.4244 26.0146C15.4244 25.0659 16.2014 24.2791 17.1382 24.2791Z" fill="#F7F0DA"/>
</svg>
