<svg width="38" height="38" viewBox="0 0 38 38" fill="none" xmlns="http://www.w3.org/2000/svg">
<mask id="mask0_126_1872" style="mask-type:alpha" maskUnits="userSpaceOnUse" x="0" y="0" width="38" height="38">
<rect width="38" height="38" fill="#FFFBEF"/>
</mask>
<g mask="url(#mask0_126_1872)">
<path d="M7.91663 33.2503V30.0837H15.8333V26.917C13.643 26.917 11.776 26.1451 10.2323 24.6014C8.6885 23.0576 7.91663 21.1906 7.91663 19.0003C7.91663 17.3906 8.35864 15.926 9.24267 14.6066C10.1267 13.2871 11.3208 12.3239 12.825 11.717C13.0361 10.8198 13.5045 10.0941 14.2302 9.53991C14.9559 8.98574 15.7805 8.70866 16.7041 8.70866L15.8333 6.25449L17.3375 5.70033L16.7833 4.27533L19.7916 3.16699L20.2666 4.67116L21.7708 4.11699L26.125 15.992L24.6208 16.5462L25.175 18.0503L22.1666 19.1587L21.6916 17.6545L20.1875 18.2087L19.2375 15.5962C18.8416 15.9656 18.3864 16.2427 17.8718 16.4274C17.3573 16.6121 16.8361 16.6781 16.3083 16.6253C15.7277 16.5725 15.1868 16.3944 14.6854 16.091C14.184 15.7875 13.7486 15.4114 13.3791 14.9628C12.6666 15.385 12.1059 15.9524 11.6968 16.6649C11.2878 17.3774 11.0833 18.1559 11.0833 19.0003C11.0833 20.3198 11.5451 21.4413 12.4687 22.3649C13.3923 23.2885 14.5138 23.7503 15.8333 23.7503H28.5V26.917H20.5833V30.0837H30.0833V33.2503H7.91663ZM21.6125 15.1212L23.0375 14.567L20.3458 7.12533L18.8416 7.67949L21.6125 15.1212ZM16.625 14.2503C17.0736 14.2503 17.4496 14.0986 17.7531 13.7951C18.0566 13.4916 18.2083 13.1156 18.2083 12.667C18.2083 12.2184 18.0566 11.8423 17.7531 11.5389C17.4496 11.2354 17.0736 11.0837 16.625 11.0837C16.1763 11.0837 15.8003 11.2354 15.4968 11.5389C15.1934 11.8423 15.0416 12.2184 15.0416 12.667C15.0416 13.1156 15.1934 13.4916 15.4968 13.7951C15.8003 14.0986 16.1763 14.2503 16.625 14.2503Z" fill="#FFFBEF"/>
</g>
</svg>
