<svg width="26" height="29" viewBox="0 0 26 29" fill="none" xmlns="http://www.w3.org/2000/svg">
<path d="M13 28.6667C11.2445 28.6667 9.60004 28.3333 8.06671 27.6667C6.53337 27 5.19449 26.0944 4.05004 24.95C2.9056 23.8056 2.00004 22.4667 1.33337 20.9333C0.666707 19.4 0.333374 17.7556 0.333374 16C0.333374 14.2444 0.666707 12.6 1.33337 11.0667C2.00004 9.53333 2.9056 8.19444 4.05004 7.05C5.19449 5.90556 6.53337 5 8.06671 4.33333C9.60004 3.66667 11.2445 3.33333 13 3.33333V0L18.3334 5.33333L13 10.6667V7.33333C10.6 7.33333 8.5556 8.17778 6.86671 9.86667C5.17782 11.5556 4.33337 13.6 4.33337 16C4.33337 17.4667 4.67226 18.8278 5.35004 20.0833C6.02782 21.3389 6.93337 22.3556 8.06671 23.1333C8.42226 22.5111 8.95004 21.9833 9.65004 21.55C10.35 21.1167 11.1556 20.8444 12.0667 20.7333C12 20.2667 11.9112 19.8 11.8 19.3333C11.6889 18.8667 11.5556 18.4333 11.4 18.0333C11.1556 18.2333 10.8889 18.3889 10.6 18.5C10.3112 18.6111 10 18.6667 9.66671 18.6667C8.93337 18.6667 8.3056 18.4056 7.78337 17.8833C7.26115 17.3611 7.00004 16.7333 7.00004 16V14.6667C7.00004 14.2889 6.93893 13.9333 6.81671 13.6C6.69449 13.2667 6.53337 12.9556 6.33337 12.6667C7.44449 12.6444 8.43337 12.7444 9.30004 12.9667C10.0556 13.1667 10.7445 13.4944 11.3667 13.95C11.9889 14.4056 12.3112 15.0889 12.3334 16C12.3334 16.2 12.3167 16.3833 12.2834 16.55C12.25 16.7167 12.1889 16.8889 12.1 17.0667C11.8112 16.8444 11.5223 16.6444 11.2334 16.4667C10.9445 16.2889 10.6445 16.1333 10.3334 16C10.7112 16.2889 11.1445 16.7333 11.6334 17.3333C12.1223 17.9333 12.5778 18.6444 13 19.4667C13.4445 18.3778 14 17.3056 14.6667 16.25C15.3334 15.1944 16.1112 14.2222 17 13.3333C16.4889 13.6889 16 14.0667 15.5334 14.4667C15.0667 14.8667 14.6112 15.2889 14.1667 15.7333C14.0112 15.4889 13.8889 15.2167 13.8 14.9167C13.7112 14.6167 13.6667 14.3111 13.6667 14C13.6667 13.0667 13.9889 12.2778 14.6334 11.6333C15.2778 10.9889 16.0667 10.6667 17 10.6667H18.3334C18.8445 10.6667 19.2667 10.6 19.6 10.4667C19.9334 10.3333 20.2112 10.1778 20.4334 10C20.6778 9.8 20.8667 9.57778 21 9.33333C21.0889 10.8222 21.0112 12.1556 20.7667 13.3333C20.5667 14.3333 20.1889 15.25 19.6334 16.0833C19.0778 16.9167 18.2 17.3333 17 17.3333C16.6667 17.3333 16.35 17.2889 16.05 17.2C15.75 17.1111 15.4778 16.9889 15.2334 16.8333C15.0778 17.2556 14.9 17.8167 14.7 18.5167C14.5 19.2167 14.3445 19.9667 14.2334 20.7667C15.0778 20.9222 15.8223 21.2111 16.4667 21.6333C17.1112 22.0556 17.6 22.5556 17.9334 23.1333C19.0667 22.3556 19.9723 21.3444 20.65 20.1C21.3278 18.8556 21.6667 17.4889 21.6667 16H25.6667C25.6667 17.7556 25.3334 19.4 24.6667 20.9333C24 22.4667 23.0945 23.8056 21.95 24.95C20.8056 26.0944 19.4667 27 17.9334 27.6667C16.4 28.3333 14.7556 28.6667 13 28.6667Z" fill="#FFFBEF"/>
</svg>
