<svg width="43" height="43" viewBox="0 0 43 43" fill="none" xmlns="http://www.w3.org/2000/svg">
<circle cx="21.5" cy="21.5" r="21.5" fill="#705783"/>
<mask id="mask0_463_4590" style="mask-type:alpha" maskUnits="userSpaceOnUse" x="6" y="6" width="32" height="32">
<rect x="6" y="6" width="32" height="32" fill="#FFFBEF"/>
</mask>
<g mask="url(#mask0_463_4590)">
<path d="M22 34.6667C20.2445 34.6667 18.6 34.3333 17.0667 33.6667C15.5334 33 14.1945 32.0944 13.05 30.95C11.9056 29.8056 11 28.4667 10.3334 26.9333C9.66671 25.4 9.33337 23.7556 9.33337 22C9.33337 20.2444 9.66671 18.6 10.3334 17.0667C11 15.5333 11.9056 14.1944 13.05 13.05C14.1945 11.9056 15.5334 11 17.0667 10.3333C18.6 9.66667 20.2445 9.33333 22 9.33333V6L27.3334 11.3333L22 16.6667V13.3333C19.6 13.3333 17.5556 14.1778 15.8667 15.8667C14.1778 17.5556 13.3334 19.6 13.3334 22C13.3334 23.4667 13.6723 24.8278 14.35 26.0833C15.0278 27.3389 15.9334 28.3556 17.0667 29.1333C17.4223 28.5111 17.95 27.9833 18.65 27.55C19.35 27.1167 20.1556 26.8444 21.0667 26.7333C21 26.2667 20.9112 25.8 20.8 25.3333C20.6889 24.8667 20.5556 24.4333 20.4 24.0333C20.1556 24.2333 19.8889 24.3889 19.6 24.5C19.3112 24.6111 19 24.6667 18.6667 24.6667C17.9334 24.6667 17.3056 24.4056 16.7834 23.8833C16.2612 23.3611 16 22.7333 16 22V20.6667C16 20.2889 15.9389 19.9333 15.8167 19.6C15.6945 19.2667 15.5334 18.9556 15.3334 18.6667C16.4445 18.6444 17.4334 18.7444 18.3 18.9667C19.0556 19.1667 19.7445 19.4944 20.3667 19.95C20.9889 20.4056 21.3112 21.0889 21.3334 22C21.3334 22.2 21.3167 22.3833 21.2834 22.55C21.25 22.7167 21.1889 22.8889 21.1 23.0667C20.8112 22.8444 20.5223 22.6444 20.2334 22.4667C19.9445 22.2889 19.6445 22.1333 19.3334 22C19.7112 22.2889 20.1445 22.7333 20.6334 23.3333C21.1223 23.9333 21.5778 24.6444 22 25.4667C22.4445 24.3778 23 23.3056 23.6667 22.25C24.3334 21.1944 25.1112 20.2222 26 19.3333C25.4889 19.6889 25 20.0667 24.5334 20.4667C24.0667 20.8667 23.6112 21.2889 23.1667 21.7333C23.0112 21.4889 22.8889 21.2167 22.8 20.9167C22.7112 20.6167 22.6667 20.3111 22.6667 20C22.6667 19.0667 22.9889 18.2778 23.6334 17.6333C24.2778 16.9889 25.0667 16.6667 26 16.6667H27.3334C27.8445 16.6667 28.2667 16.6 28.6 16.4667C28.9334 16.3333 29.2112 16.1778 29.4334 16C29.6778 15.8 29.8667 15.5778 30 15.3333C30.0889 16.8222 30.0112 18.1556 29.7667 19.3333C29.5667 20.3333 29.1889 21.25 28.6334 22.0833C28.0778 22.9167 27.2 23.3333 26 23.3333C25.6667 23.3333 25.35 23.2889 25.05 23.2C24.75 23.1111 24.4778 22.9889 24.2334 22.8333C24.0778 23.2556 23.9 23.8167 23.7 24.5167C23.5 25.2167 23.3445 25.9667 23.2334 26.7667C24.0778 26.9222 24.8223 27.2111 25.4667 27.6333C26.1112 28.0556 26.6 28.5556 26.9334 29.1333C28.0667 28.3556 28.9723 27.3444 29.65 26.1C30.3278 24.8556 30.6667 23.4889 30.6667 22H34.6667C34.6667 23.7556 34.3334 25.4 33.6667 26.9333C33 28.4667 32.0945 29.8056 30.95 30.95C29.8056 32.0944 28.4667 33 26.9334 33.6667C25.4 34.3333 23.7556 34.6667 22 34.6667Z" fill="#FFFBEF"/>
</g>
</svg>
