<svg width="42" height="42" viewBox="0 0 42 42" fill="none" xmlns="http://www.w3.org/2000/svg">
<mask id="mask0_126_1864" style="mask-type:alpha" maskUnits="userSpaceOnUse" x="0" y="0" width="42" height="42">
<rect width="42" height="42" fill="#FFFBEF"/>
</mask>
<g mask="url(#mask0_126_1864)">
<path d="M15.75 26.25V15.75H26.25V26.25H15.75ZM19.25 22.75H22.75V19.25H19.25V22.75ZM15.75 36.75V33.25H12.25C11.2875 33.25 10.4635 32.9073 9.77813 32.2219C9.09271 31.5365 8.75 30.7125 8.75 29.75V26.25H5.25V22.75H8.75V19.25H5.25V15.75H8.75V12.25C8.75 11.2875 9.09271 10.4635 9.77813 9.77813C10.4635 9.09271 11.2875 8.75 12.25 8.75H15.75V5.25H19.25V8.75H22.75V5.25H26.25V8.75H29.75C30.7125 8.75 31.5365 9.09271 32.2219 9.77813C32.9073 10.4635 33.25 11.2875 33.25 12.25V15.75H36.75V19.25H33.25V22.75H36.75V26.25H33.25V29.75C33.25 30.7125 32.9073 31.5365 32.2219 32.2219C31.5365 32.9073 30.7125 33.25 29.75 33.25H26.25V36.75H22.75V33.25H19.25V36.75H15.75ZM29.75 29.75V12.25H12.25V29.75H29.75Z" fill="#FFFBEF"/>
</g>
</svg>
