<svg width="38" height="38" viewBox="0 0 38 38" fill="none" xmlns="http://www.w3.org/2000/svg">
<mask id="mask0_126_1832" style="mask-type:alpha" maskUnits="userSpaceOnUse" x="0" y="0" width="38" height="38">
<rect width="38" height="38" fill="#FFFBEF"/>
</mask>
<g mask="url(#mask0_126_1832)">
<path d="M15.4375 33.25C14.0917 33.25 12.9306 32.7816 11.9542 31.8448C10.9778 30.908 10.4236 29.7799 10.2917 28.4604C8.70833 28.2493 7.38889 27.55 6.33333 26.3625C5.27778 25.175 4.75 23.7764 4.75 22.1667C4.75 21.6125 4.82257 21.0649 4.96771 20.524C5.11285 19.983 5.33056 19.475 5.62083 19C5.33056 18.525 5.11285 18.0236 4.96771 17.4958C4.82257 16.9681 4.75 16.4139 4.75 15.8333C4.75 14.2236 5.27778 12.8316 6.33333 11.6573C7.38889 10.483 8.69514 9.79028 10.2521 9.57917C10.3313 8.23333 10.8722 7.09201 11.875 6.15521C12.8778 5.2184 14.0653 4.75 15.4375 4.75C16.1236 4.75 16.7635 4.88194 17.3573 5.14583C17.951 5.40972 18.4986 5.76597 19 6.21458C19.475 5.76597 20.016 5.40972 20.6229 5.14583C21.2299 4.88194 21.8764 4.75 22.5625 4.75C23.9347 4.75 25.1156 5.21181 26.1052 6.13542C27.0948 7.05903 27.6292 8.19375 27.7083 9.53958C29.2653 9.75069 30.5781 10.45 31.6469 11.6375C32.7156 12.825 33.25 14.2236 33.25 15.8333C33.25 16.4139 33.1774 16.9681 33.0323 17.4958C32.8872 18.0236 32.6694 18.525 32.3792 19C32.6694 19.475 32.8872 19.983 33.0323 20.524C33.1774 21.0649 33.25 21.6125 33.25 22.1667C33.25 23.8028 32.7156 25.208 31.6469 26.3823C30.5781 27.5566 29.2521 28.2493 27.6688 28.4604C27.5368 29.7799 26.9892 30.908 26.026 31.8448C25.0628 32.7816 23.9083 33.25 22.5625 33.25C21.9028 33.25 21.2628 33.1247 20.6427 32.874C20.0226 32.6233 19.475 32.2736 19 31.825C18.4986 32.2736 17.9444 32.6233 17.3375 32.874C16.7306 33.1247 16.0972 33.25 15.4375 33.25ZM20.5833 9.89583V28.1042C20.5833 28.6583 20.7747 29.1267 21.1573 29.5094C21.5399 29.892 22.0083 30.0833 22.5625 30.0833C23.0903 30.0833 23.5455 29.8722 23.9281 29.45C24.3108 29.0278 24.5153 28.5528 24.5417 28.025C23.9875 27.8139 23.4795 27.5302 23.0177 27.174C22.5559 26.8177 22.1403 26.3889 21.7708 25.8875C21.5069 25.5181 21.408 25.1222 21.474 24.7C21.5399 24.2778 21.7576 23.9347 22.1271 23.6708C22.4965 23.4069 22.8924 23.308 23.3146 23.374C23.7368 23.4399 24.0799 23.6576 24.3438 24.0271C24.634 24.4493 25.0035 24.7726 25.4521 24.9969C25.9007 25.2212 26.3889 25.3333 26.9167 25.3333C27.7875 25.3333 28.533 25.0233 29.1531 24.4031C29.7733 23.783 30.0833 23.0375 30.0833 22.1667C30.0833 22.0347 30.0767 21.9028 30.0635 21.7708C30.0503 21.6389 30.0174 21.5069 29.9646 21.375C29.516 21.6389 29.0344 21.8368 28.5198 21.9688C28.0052 22.1007 27.4708 22.1667 26.9167 22.1667C26.4681 22.1667 26.092 22.0149 25.7885 21.7115C25.4851 21.408 25.3333 21.0319 25.3333 20.5833C25.3333 20.1347 25.4851 19.7587 25.7885 19.4552C26.092 19.1517 26.4681 19 26.9167 19C27.7875 19 28.533 18.6899 29.1531 18.0698C29.7733 17.4497 30.0833 16.7042 30.0833 15.8333C30.0833 14.9625 29.7733 14.2236 29.1531 13.6167C28.533 13.0097 27.7875 12.6931 26.9167 12.6667C26.6264 13.1417 26.2503 13.5573 25.7885 13.9135C25.3267 14.2698 24.8188 14.5535 24.2646 14.7646C23.8424 14.9229 23.4333 14.9097 23.0375 14.725C22.6417 14.5403 22.3778 14.2368 22.2458 13.8146C22.1139 13.3924 22.1337 12.9833 22.3052 12.5875C22.4767 12.1917 22.7736 11.9278 23.1958 11.7958C23.5917 11.6639 23.9149 11.4264 24.1656 11.0833C24.4163 10.7403 24.5417 10.3444 24.5417 9.89583C24.5417 9.34167 24.3503 8.87326 23.9677 8.49062C23.5851 8.10799 23.1167 7.91667 22.5625 7.91667C22.0083 7.91667 21.5399 8.10799 21.1573 8.49062C20.7747 8.87326 20.5833 9.34167 20.5833 9.89583ZM17.4167 28.1042V9.89583C17.4167 9.34167 17.2253 8.87326 16.8427 8.49062C16.4601 8.10799 15.9917 7.91667 15.4375 7.91667C14.8833 7.91667 14.4149 8.10799 14.0323 8.49062C13.6497 8.87326 13.4583 9.34167 13.4583 9.89583C13.4583 10.3181 13.5771 10.7073 13.8146 11.0635C14.0521 11.4198 14.3688 11.6639 14.7646 11.7958C15.1868 11.9278 15.4903 12.1917 15.675 12.5875C15.8597 12.9833 15.8861 13.3924 15.7542 13.8146C15.5958 14.2368 15.3188 14.5403 14.9229 14.725C14.5271 14.9097 14.1181 14.9229 13.6958 14.7646C13.1417 14.5535 12.6337 14.2698 12.1719 13.9135C11.7101 13.5573 11.334 13.1417 11.0438 12.6667C10.1993 12.6931 9.46701 13.0163 8.84688 13.6365C8.22674 14.2566 7.91667 14.9889 7.91667 15.8333C7.91667 16.7042 8.22674 17.4497 8.84688 18.0698C9.46701 18.6899 10.2125 19 11.0833 19C11.5319 19 11.908 19.1517 12.2115 19.4552C12.5149 19.7587 12.6667 20.1347 12.6667 20.5833C12.6667 21.0319 12.5149 21.408 12.2115 21.7115C11.908 22.0149 11.5319 22.1667 11.0833 22.1667C10.5292 22.1667 9.99479 22.1007 9.48021 21.9688C8.96562 21.8368 8.48403 21.6389 8.03542 21.375C7.98264 21.5069 7.94965 21.6389 7.93646 21.7708C7.92326 21.9028 7.91667 22.0347 7.91667 22.1667C7.91667 23.0375 8.22674 23.783 8.84688 24.4031C9.46701 25.0233 10.2125 25.3333 11.0833 25.3333C11.6111 25.3333 12.0993 25.2212 12.5479 24.9969C12.9965 24.7726 13.366 24.4493 13.6562 24.0271C13.9201 23.6576 14.2632 23.4399 14.6854 23.374C15.1076 23.308 15.5035 23.4069 15.8729 23.6708C16.2424 23.9347 16.4601 24.2778 16.526 24.7C16.592 25.1222 16.4931 25.5181 16.2292 25.8875C15.8597 26.3889 15.4375 26.8243 14.9625 27.1938C14.4875 27.5632 13.9729 27.8535 13.4187 28.0646C13.4451 28.5924 13.6562 29.0608 14.0521 29.4698C14.4479 29.8788 14.9097 30.0833 15.4375 30.0833C15.9917 30.0833 16.4601 29.892 16.8427 29.5094C17.2253 29.1267 17.4167 28.6583 17.4167 28.1042Z" fill="#FFFBEF"/>
</g>
</svg>
