<svg width="36" height="32" viewBox="0 0 36 32" fill="none" xmlns="http://www.w3.org/2000/svg">
<path d="M27.7415 30.7703C26.4118 29.6773 25.2552 28.3893 24.3112 26.95C24.0922 26.6637 23.9472 26.3279 23.8891 25.9722C24.3992 25.7705 24.8349 25.4167 25.137 24.9589C25.4391 24.501 25.5929 23.9612 25.5775 23.4128C25.5823 23.2706 25.5577 23.1288 25.5053 22.9964C25.4529 22.8641 25.3738 22.7439 25.273 22.6434C25.1137 22.53 24.9312 22.4533 24.7386 22.419L22.58 21.7832C22.6869 22.0591 22.7368 22.3538 22.7267 22.6495C22.7166 22.9452 22.6467 23.2357 22.5213 23.5037C22.4024 23.7809 22.2297 24.0317 22.0133 24.2417C21.7968 24.4517 21.5409 24.6168 21.2603 24.7273C21.0359 24.8127 20.8061 24.8662 20.5871 24.9623C20.3089 25.1112 20.0682 25.3213 19.8831 25.5768C19.698 25.8322 19.5733 26.1264 19.5184 26.437C19.4095 27.0676 19.4572 27.7153 19.6574 28.3232C19.243 28.2883 18.8351 28.1984 18.4445 28.056C18.251 27.9811 18.0752 27.867 17.928 27.7208C17.7809 27.5746 17.6657 27.3994 17.5896 27.2064C16.9192 28.2516 16.5275 29.4508 16.4515 30.6901C16.438 30.7518 16.438 30.8155 16.4515 30.8772C16.5156 31.0535 16.7454 31.0909 16.9324 31.0962C17.6563 31.1419 18.3831 31.1151 19.1017 31.0161C19.8255 30.9157 20.5028 30.6012 21.0466 30.1131C21.2069 29.9581 21.3832 29.7711 21.5809 29.7872C21.6875 29.8062 21.7882 29.8501 21.8747 29.9154C22.3604 30.2591 22.8839 30.5459 23.4349 30.7703C24.8378 31.2034 26.3386 31.2034 27.7415 30.7703Z" fill="#2B97B7"/>
<path d="M35.5477 14.71C33.9345 15.3155 32.2397 15.6757 30.5198 15.7786C30.1589 15.8262 29.7919 15.784 29.4512 15.6558C29.5419 15.112 29.4598 14.5534 29.2163 14.0588C28.9728 13.5642 28.5803 13.1585 28.094 12.8987C27.9721 12.8243 27.8364 12.775 27.6951 12.7539C27.5537 12.7328 27.4096 12.7403 27.2712 12.7758C27.1006 12.8521 26.9477 12.9631 26.8224 13.1018L25.166 14.7047C25.4583 14.7507 25.7384 14.8548 25.9898 15.0108C26.2413 15.1668 26.4589 15.3716 26.63 15.613C26.8101 15.8549 26.9406 16.13 27.014 16.4225C27.0874 16.7151 27.1021 17.0192 27.0575 17.3175C27.0201 17.5526 26.9506 17.7823 26.9292 18.0174C26.9126 18.3362 26.9701 18.6546 27.0971 18.9475C27.2241 19.2405 27.4172 19.5 27.6612 19.7058C28.1526 20.1136 28.7357 20.396 29.3603 20.5287C29.1227 20.8708 28.8406 21.1799 28.5215 21.4477C28.361 21.5784 28.1749 21.6739 27.9752 21.7282C27.7755 21.7825 27.5666 21.7944 27.362 21.7629C27.9307 22.866 28.7734 23.8043 29.8092 24.4879C29.8591 24.5288 29.9175 24.558 29.9802 24.5734C30.1672 24.6054 30.3114 24.4238 30.4076 24.2635C30.8102 23.6575 31.1521 23.0132 31.4281 22.34C31.7022 21.6622 31.7674 20.9179 31.6151 20.2027C31.5617 19.989 31.4816 19.7432 31.6151 19.5616C31.6852 19.4769 31.7752 19.4108 31.8769 19.3692C32.4157 19.1166 32.9247 18.8048 33.3944 18.4395C34.4725 17.4425 35.2232 16.1422 35.5477 14.71Z" fill="#E9545F"/>
<path d="M25.5826 0C25.2938 1.73778 24.7444 3.42202 23.9529 4.99579C23.8106 5.33537 23.5889 5.63586 23.3064 5.87206C22.8689 5.51914 22.3325 5.31103 21.7715 5.27656C21.2105 5.2421 20.6527 5.38299 20.1753 5.67971C20.0468 5.75047 19.9334 5.84587 19.8417 5.96047C19.75 6.07507 19.6818 6.20662 19.641 6.3476C19.6242 6.52784 19.6442 6.70963 19.6998 6.88191L20.2715 9.16875C20.4614 8.93426 20.6964 8.74017 20.9625 8.59794C21.2286 8.4557 21.5205 8.36819 21.821 8.34057C22.1277 8.30451 22.4385 8.32937 22.7356 8.41373C23.0327 8.49809 23.3102 8.64027 23.5522 8.83214C23.7392 8.98174 23.9048 9.16341 24.0865 9.30233C24.3608 9.47921 24.6719 9.59092 24.9961 9.6289C25.3203 9.66687 25.6488 9.6301 25.9566 9.5214C26.5696 9.30045 27.1198 8.9337 27.5595 8.45278C27.7434 8.83495 27.8712 9.24165 27.9389 9.66032C27.973 9.86956 27.9631 10.0836 27.9097 10.2888C27.8563 10.494 27.7607 10.6857 27.629 10.8518C28.8966 10.9073 30.1576 10.6407 31.2943 10.0771C31.3549 10.0511 31.4094 10.0129 31.4546 9.96488C31.5775 9.81527 31.4867 9.5962 31.3958 9.43057C31.0747 8.76732 30.6862 8.13887 30.2364 7.55514C29.781 6.96938 29.1616 6.53231 28.4571 6.29951C28.2381 6.23539 27.9816 6.17662 27.8854 5.97358C27.8463 5.86783 27.8334 5.75413 27.848 5.64231C27.9033 5.03712 27.889 4.42758 27.8053 3.82566C27.4671 2.35548 26.6923 1.02191 25.5826 0Z" fill="#F8C251"/>
<path d="M7.83838 1.29362C9.20116 2.41176 10.3881 3.7284 11.3595 5.19942C11.5791 5.49451 11.7272 5.83653 11.7923 6.19858C11.2685 6.4026 10.8209 6.76387 10.5109 7.2327C10.2009 7.70154 10.0438 8.25491 10.0611 8.8167C10.0589 8.96198 10.0857 9.10625 10.1398 9.24109C10.1939 9.37594 10.2743 9.49867 10.3763 9.60213C10.5348 9.71814 10.7175 9.79669 10.9107 9.83189L13.1761 10.4784C13.067 10.1976 13.0154 9.89779 13.0246 9.5967C13.0338 9.29561 13.1035 8.99944 13.2296 8.72587C13.4776 8.15284 13.9425 7.70138 14.5226 7.47024C14.747 7.38475 14.9874 7.33132 15.2065 7.2298C15.4959 7.0807 15.7475 6.86745 15.942 6.60631C16.1364 6.34518 16.2687 6.04307 16.3286 5.72304C16.4271 5.0835 16.3721 4.42969 16.1683 3.81556C16.5902 3.84964 17.0055 3.94132 17.4025 4.08806C17.6037 4.15782 17.788 4.269 17.9435 4.41441C18.0991 4.55982 18.2224 4.73624 18.3055 4.93227C18.9892 3.86402 19.39 2.63949 19.4703 1.37376C19.4809 1.30829 19.4809 1.24154 19.4703 1.17607C19.4008 0.999747 19.1657 0.962345 18.9734 0.957002C18.2334 0.911533 17.4908 0.938374 16.756 1.03715C16.0154 1.14135 15.3231 1.46519 14.7684 1.96685C14.6027 2.1218 14.4264 2.31415 14.1967 2.29812C14.0856 2.27954 13.981 2.23364 13.8921 2.16454C13.393 1.81369 12.8551 1.52146 12.2892 1.29362C10.8399 0.842021 9.28761 0.842021 7.83838 1.29362Z" fill="#EC7159"/>
<path d="M0 17.2684C1.61239 16.6604 3.30756 16.3001 5.02786 16.1998C5.38831 16.1505 5.75536 16.1908 6.09648 16.3173C6.01467 16.8602 6.10209 17.415 6.34684 17.9064C6.59158 18.3978 6.98176 18.8019 7.46431 19.0637C7.58666 19.1372 7.7225 19.1855 7.86383 19.2057C8.00515 19.2259 8.14909 19.2176 8.28714 19.1812C8.45775 19.1049 8.6106 18.9939 8.73596 18.8553L10.3923 17.2524C10.1004 17.2072 9.8204 17.1041 9.56895 16.949C9.31751 16.7939 9.09968 16.59 8.92831 16.3494C8.56529 15.8584 8.4116 15.2436 8.50087 14.6396C8.53827 14.4045 8.60773 14.1801 8.6291 13.9396C8.64594 13.6221 8.58911 13.3049 8.46306 13.0129C8.337 12.7209 8.14513 12.4621 7.90244 12.2566C7.41107 11.8456 6.82544 11.5628 6.19799 11.4337C6.43315 11.0911 6.71557 10.7835 7.03686 10.5201C7.19738 10.3874 7.38416 10.2903 7.58492 10.235C7.78568 10.1797 7.99587 10.1676 8.20165 10.1995C7.62795 9.09822 6.78411 8.16061 5.74917 7.47448C5.69906 7.43504 5.64057 7.40762 5.57819 7.39434C5.39119 7.36228 5.24692 7.54394 5.15074 7.70424C4.74984 8.30853 4.40978 8.95106 4.13556 9.62241C3.85707 10.299 3.79001 11.0442 3.94321 11.7596C3.99664 11.9734 4.07679 12.2192 3.94321 12.4008C3.87189 12.4855 3.7824 12.5531 3.68139 12.5985C3.14174 12.8473 2.63257 13.1575 2.16396 13.5229C1.07994 14.5234 0.325324 15.8295 0 17.2684Z" fill="#2BAA99"/>
<path d="M9.93799 32.0006C10.2232 30.3013 10.7636 28.6548 11.5409 27.117C11.6745 26.7842 11.8873 26.4889 12.1607 26.2568C12.5906 26.5978 13.1151 26.7982 13.6628 26.8307C14.2106 26.8632 14.7551 26.7263 15.2223 26.4385C15.3521 26.3733 15.4667 26.2816 15.5587 26.1693C15.6508 26.057 15.7182 25.9266 15.7566 25.7866C15.7745 25.6064 15.7545 25.4244 15.6978 25.2523L15.1635 23.0189C14.9787 23.2486 14.7497 23.4389 14.4899 23.5784C14.2302 23.7179 13.945 23.8038 13.6514 23.831C13.0454 23.9014 12.4363 23.7285 11.9577 23.3502C11.7707 23.2005 11.6104 23.0242 11.4234 22.8853C11.1552 22.7127 10.8509 22.6041 10.534 22.568C10.2171 22.5319 9.89619 22.5691 9.59603 22.6769C8.99689 22.9011 8.46139 23.2679 8.03585 23.7455C7.85622 23.3715 7.73031 22.974 7.66183 22.5647C7.62947 22.3601 7.63983 22.1509 7.69224 21.9505C7.74466 21.75 7.838 21.5626 7.96639 21.3999C6.72628 21.3443 5.49243 21.6054 4.38117 22.1586C4.32177 22.1815 4.26865 22.2181 4.22622 22.2655C4.10333 22.4098 4.18882 22.6288 4.27965 22.7998C4.59997 23.4523 4.98672 24.07 5.43376 24.6432C5.88247 25.2206 6.49521 25.649 7.19164 25.8721C7.40536 25.9362 7.65649 25.995 7.72595 26.1927C7.76392 26.295 7.77852 26.4046 7.76869 26.5133C7.71334 27.106 7.72768 27.7031 7.81144 28.2925C8.13061 29.7145 8.87182 31.007 9.93799 32.0006Z" fill="#803863"/>
</svg>
