<svg width="38" height="38" viewBox="0 0 38 38" fill="none" xmlns="http://www.w3.org/2000/svg">
<mask id="mask0_126_1880" style="mask-type:alpha" maskUnits="userSpaceOnUse" x="0" y="0" width="38" height="38">
<rect width="38" height="38" fill="#FFFBEF"/>
</mask>
<g mask="url(#mask0_126_1880)">
<path d="M3.16663 32.221V29.1335C3.9319 29.1335 4.58503 29.0147 5.126 28.7772C5.66697 28.5397 6.21454 28.2824 6.76871 28.0053C7.32288 27.7283 7.93642 27.4776 8.60933 27.2533C9.28225 27.0289 10.1069 26.9168 11.0833 26.9168C12.0861 26.9168 12.9107 27.0289 13.5573 27.2533C14.2038 27.4776 14.8041 27.7283 15.3583 28.0053C15.9125 28.2824 16.4666 28.5397 17.0208 28.7772C17.575 29.0147 18.2347 29.1335 19 29.1335C19.7652 29.1335 20.425 29.0147 20.9791 28.7772C21.5333 28.5397 22.0875 28.2824 22.6416 28.0053C23.1958 27.7283 23.8027 27.4776 24.4625 27.2533C25.1222 27.0289 25.9402 26.9168 26.9166 26.9168C27.9194 26.9168 28.7507 27.0289 29.4104 27.2533C30.0701 27.4776 30.677 27.7283 31.2312 28.0053C31.7854 28.2824 32.3395 28.5397 32.8937 28.7772C33.4479 29.0147 34.0944 29.1335 34.8333 29.1335V32.221C33.8305 32.221 32.9927 32.1022 32.3197 31.8647C31.6468 31.6272 31.0333 31.3699 30.4791 31.0928C29.925 30.8158 29.384 30.5651 28.8562 30.3408C28.3284 30.1164 27.6819 30.0043 26.9166 30.0043C26.1777 30.0043 25.5378 30.1164 24.9968 30.3408C24.4559 30.5651 23.9149 30.8158 23.3739 31.0928C22.8329 31.3699 22.226 31.6272 21.5531 31.8647C20.8802 32.1022 20.0291 32.221 19 32.221C17.9708 32.221 17.1198 32.1022 16.4468 31.8647C15.7739 31.6272 15.167 31.3699 14.626 31.0928C14.085 30.8158 13.5507 30.5651 13.0229 30.3408C12.4951 30.1164 11.8486 30.0043 11.0833 30.0043C10.3444 30.0043 9.70447 30.1164 9.1635 30.3408C8.62253 30.5651 8.07496 30.8158 7.52079 31.0928C6.96663 31.3699 6.35308 31.6272 5.68017 31.8647C5.00725 32.1022 4.1694 32.221 3.16663 32.221ZM3.16663 25.1751V22.0876C3.9319 22.0876 4.58503 21.9689 5.126 21.7314C5.66697 21.4939 6.21454 21.2366 6.76871 20.9595C7.32288 20.6824 7.93642 20.4317 8.60933 20.2074C9.28225 19.9831 10.1069 19.871 11.0833 19.871C12.0861 19.871 12.9107 19.9831 13.5573 20.2074C14.2038 20.4317 14.8041 20.6824 15.3583 20.9595C15.9125 21.2366 16.4666 21.4939 17.0208 21.7314C17.575 21.9689 18.2347 22.0876 19 22.0876C19.7652 22.0876 20.425 21.9689 20.9791 21.7314C21.5333 21.4939 22.0875 21.2366 22.6416 20.9595C23.1958 20.6824 23.8027 20.4317 24.4625 20.2074C25.1222 19.9831 25.9402 19.871 26.9166 19.871C27.9194 19.871 28.7507 19.9831 29.4104 20.2074C30.0701 20.4317 30.677 20.6824 31.2312 20.9595C31.7854 21.2366 32.3395 21.4939 32.8937 21.7314C33.4479 21.9689 34.0944 22.0876 34.8333 22.0876V25.1751C33.8305 25.1751 32.9927 25.0564 32.3197 24.8189C31.6468 24.5814 31.0333 24.3241 30.4791 24.047C29.925 23.7699 29.384 23.5192 28.8562 23.2949C28.3284 23.0706 27.6819 22.9585 26.9166 22.9585C26.1513 22.9585 25.4982 23.0706 24.9572 23.2949C24.4163 23.5192 23.8753 23.7699 23.3343 24.047C22.7934 24.3241 22.193 24.5814 21.5333 24.8189C20.8736 25.0564 20.0291 25.1751 19 25.1751C17.9708 25.1751 17.1198 25.0564 16.4468 24.8189C15.7739 24.5814 15.167 24.3241 14.626 24.047C14.085 23.7699 13.5507 23.5192 13.0229 23.2949C12.4951 23.0706 11.8486 22.9585 11.0833 22.9585C10.3444 22.9585 9.70447 23.0706 9.1635 23.2949C8.62253 23.5192 8.07496 23.7699 7.52079 24.047C6.96663 24.3241 6.35308 24.5814 5.68017 24.8189C5.00725 25.0564 4.1694 25.1751 3.16663 25.1751ZM3.16663 18.1293V15.0418C3.9319 15.0418 4.58503 14.923 5.126 14.6855C5.66697 14.448 6.21454 14.1908 6.76871 13.9137C7.32288 13.6366 7.93642 13.3859 8.60933 13.1616C9.28225 12.9373 10.1069 12.8251 11.0833 12.8251C12.0861 12.8251 12.9107 12.9373 13.5573 13.1616C14.2038 13.3859 14.8041 13.6366 15.3583 13.9137C15.9125 14.1908 16.4666 14.448 17.0208 14.6855C17.575 14.923 18.2347 15.0418 19 15.0418C19.7652 15.0418 20.425 14.923 20.9791 14.6855C21.5333 14.448 22.0875 14.1908 22.6416 13.9137C23.1958 13.6366 23.8027 13.3859 24.4625 13.1616C25.1222 12.9373 25.9402 12.8251 26.9166 12.8251C27.9194 12.8251 28.7507 12.9373 29.4104 13.1616C30.0701 13.3859 30.677 13.6366 31.2312 13.9137C31.7854 14.1908 32.3395 14.448 32.8937 14.6855C33.4479 14.923 34.0944 15.0418 34.8333 15.0418V18.1293C33.8305 18.1293 32.9927 18.0105 32.3197 17.773C31.6468 17.5355 31.0333 17.2783 30.4791 17.0012C29.925 16.7241 29.384 16.4734 28.8562 16.2491C28.3284 16.0248 27.6819 15.9126 26.9166 15.9126C26.1777 15.9126 25.5378 16.0248 24.9968 16.2491C24.4559 16.4734 23.9149 16.7241 23.3739 17.0012C22.8329 17.2783 22.226 17.5355 21.5531 17.773C20.8802 18.0105 20.0291 18.1293 19 18.1293C17.9708 18.1293 17.1198 18.0105 16.4468 17.773C15.7739 17.5355 15.167 17.2783 14.626 17.0012C14.085 16.7241 13.5507 16.4734 13.0229 16.2491C12.4951 16.0248 11.8486 15.9126 11.0833 15.9126C10.3444 15.9126 9.70447 16.0248 9.1635 16.2491C8.62253 16.4734 8.07496 16.7241 7.52079 17.0012C6.96663 17.2783 6.35308 17.5355 5.68017 17.773C5.00725 18.0105 4.1694 18.1293 3.16663 18.1293ZM3.16663 11.0835V7.99596C3.9319 7.99596 4.58503 7.87721 5.126 7.63971C5.66697 7.40221 6.21454 7.14492 6.76871 6.86784C7.32288 6.59076 7.93642 6.34006 8.60933 6.11576C9.28225 5.89145 10.1069 5.7793 11.0833 5.7793C12.0861 5.7793 12.9107 5.89145 13.5573 6.11576C14.2038 6.34006 14.8041 6.59076 15.3583 6.86784C15.9125 7.14492 16.4666 7.40221 17.0208 7.63971C17.575 7.87721 18.2347 7.99596 19 7.99596C19.7652 7.99596 20.425 7.87721 20.9791 7.63971C21.5333 7.40221 22.0875 7.14492 22.6416 6.86784C23.1958 6.59076 23.8027 6.34006 24.4625 6.11576C25.1222 5.89145 25.9402 5.7793 26.9166 5.7793C27.9194 5.7793 28.7507 5.89145 29.4104 6.11576C30.0701 6.34006 30.677 6.59076 31.2312 6.86784C31.7854 7.14492 32.3395 7.40221 32.8937 7.63971C33.4479 7.87721 34.0944 7.99596 34.8333 7.99596V11.0835C33.8305 11.0835 32.9927 10.9647 32.3197 10.7272C31.6468 10.4897 31.0333 10.2324 30.4791 9.95534C29.925 9.67826 29.384 9.42756 28.8562 9.20326C28.3284 8.97895 27.6819 8.8668 26.9166 8.8668C26.1777 8.8668 25.5378 8.97895 24.9968 9.20326C24.4559 9.42756 23.9149 9.67826 23.3739 9.95534C22.8329 10.2324 22.226 10.4897 21.5531 10.7272C20.8802 10.9647 20.0291 11.0835 19 11.0835C17.9708 11.0835 17.1198 10.9647 16.4468 10.7272C15.7739 10.4897 15.167 10.2324 14.626 9.95534C14.085 9.67826 13.5507 9.42756 13.0229 9.20326C12.4951 8.97895 11.8486 8.8668 11.0833 8.8668C10.3444 8.8668 9.70447 8.97895 9.1635 9.20326C8.62253 9.42756 8.07496 9.67826 7.52079 9.95534C6.96663 10.2324 6.35308 10.4897 5.68017 10.7272C5.00725 10.9647 4.1694 11.0835 3.16663 11.0835Z" fill="#FFFBEF"/>
</g>
</svg>
