<svg width="464" height="229" viewBox="0 0 464 229" fill="none" xmlns="http://www.w3.org/2000/svg" xmlns:xlink="http://www.w3.org/1999/xlink">
<g filter="url(#filter0_d_285_198)">
<g opacity="0.9">
<rect x="387.531" y="156.139" width="355.945" height="119.256" rx="30.5" transform="rotate(-180 387.531 156.139)" fill="#DDD0A9" stroke="#504558" stroke-width="3"/>
<path d="M294.671 90.6465C294.671 52.8503 325.311 22.2108 363.107 22.2108C400.904 22.2108 431.543 52.8503 431.543 90.6465C431.543 109.402 421.329 126.535 406.996 142.646C396.391 154.566 383.687 165.766 371.447 176.556C367.504 180.032 363.609 183.465 359.849 186.866C356.714 183.751 353.414 180.555 350.029 177.278C339.235 166.826 327.585 155.545 317.726 143.406C304.45 127.059 294.671 109.439 294.671 90.6465Z" fill="#C0A95E" stroke="#504558" stroke-width="3"/>
</g>
</g>
</svg>
