<svg width="1137" height="745" viewBox="0 0 1137 745" fill="none" xmlns="http://www.w3.org/2000/svg">
<path d="M568.387 460.027C625.22 419.554 696.517 442.641 696.517 442.641C696.517 442.641 694.665 517.062 637.829 557.539C601.263 583.576 550.853 589.221 519.545 589.935C502.187 590.331 454.23 622.661 450.696 617.702C447.337 612.985 493.336 578.018 499.271 561.776C510.054 532.284 531.736 486.127 568.387 460.027Z" fill="#23152E"/>
<path d="M452.162 616.605C525.615 563.735 605.862 503.366 680.66 453.057C685.877 449.621 691.054 446.127 696.31 442.738L696.529 443.043C691.61 446.902 686.614 450.649 681.658 454.456C646.888 480.832 611.078 506.232 575.216 531.049C544.666 552.048 482.607 596.771 452.162 616.605Z" fill="#705783"/>
<path d="M876.291 574.565C837.662 560.293 804.883 565.509 792.535 568.984C796.318 566.79 802.381 562.643 806.211 562.477C821.248 561.835 846.325 555.488 857.96 543.152C871.019 529.305 894.077 496.283 892.925 478.418C892.159 466.523 828.694 470.104 805.837 486.664C777.969 506.857 783.55 540.896 789.367 556.253C790.757 559.926 790.015 564.033 789.472 566.859C788.817 566.092 788.203 565.387 787.618 564.751C785.12 550.408 773.522 513.612 763.308 479.069C758.02 461.18 727.447 437.728 723.947 439.424C720.447 441.121 717.521 476.262 730.627 494.91C750.776 523.593 772.27 555.177 782.254 566.575C782.388 567.541 782.571 568.62 782.79 569.793C780.255 568.467 776.786 566.533 774.846 563.295C766.414 549.21 743.185 523.723 710.072 533.088C682.913 540.77 640.764 588.384 649.614 596.364C662.906 608.343 703.083 610.71 722.045 609.041C738.935 607.555 759.458 591.795 769.281 580.385C771.783 577.482 778.794 575.29 782.859 573.682C772.476 581.223 748.063 603.731 735.311 642.914C728.016 665.329 740.385 699.384 743.02 699.249C745.228 699.134 748.289 675.331 765.013 659.03C777.674 646.692 777.09 604.107 784.743 578.819C786.59 586.544 789.237 596.237 792.369 606.918C786.872 610.235 782.35 616.909 784.578 633.483C786.652 648.97 797.551 660.277 808.914 658.737C809.126 658.706 809.33 658.674 809.527 658.632C815.851 657.298 817.223 649.296 824.456 645.786C831.147 642.54 837.878 645.687 842.812 642.864C843.383 642.542 843.929 642.139 844.444 641.639C852.679 633.648 850.535 618.086 839.654 606.879C826.823 593.664 818.411 594.276 812.265 597.27C805.735 588.032 799.689 579.753 794.76 573.417C819.393 582.868 852.837 610.211 870.512 607.9C893.662 604.872 914.224 617.224 915.682 615.56C917.422 613.578 898.389 582.748 876.296 574.582L876.291 574.565Z" fill="#705783"/>
<path d="M1037.99 684.52C1037.96 684.556 1031.17 699.313 1023.01 693.309C1015.95 688.107 1011.9 666.886 1011.9 666.881C1010.6 643.462 995.922 619.49 993.293 599.83C983.477 561.044 995.098 545.975 979.694 515.816C931.711 402.674 984.796 378.97 986.085 444.747C986.164 482.342 1019.78 527.582 1014.76 571.057C1012.07 598.3 1044.29 661.088 1037.99 684.526L1037.99 684.52ZM985.662 446.755C985.662 446.755 985.658 446.772 985.655 446.783C985.658 446.772 985.659 446.766 985.662 446.755ZM985.668 446.727C985.668 446.727 985.664 446.744 985.663 446.75C985.664 446.744 985.666 446.733 985.668 446.727ZM985.671 446.711C985.671 446.711 985.671 446.711 985.67 446.716C985.67 446.716 985.67 446.716 985.671 446.711Z" fill="#705783"/>
<path d="M977.317 474.269C977.946 471.374 976.108 468.519 973.213 467.891C970.318 467.262 967.463 469.1 966.834 471.995C966.206 474.89 968.044 477.745 970.939 478.374C973.834 479.002 976.689 477.164 977.317 474.269Z" fill="#504558"/>
<path d="M1018.55 596.206C1019.3 592.733 1017.1 589.306 1013.62 588.553C1010.15 587.799 1006.72 590.004 1005.97 593.477C1005.22 596.95 1007.42 600.377 1010.89 601.13C1014.37 601.884 1017.79 599.679 1018.55 596.206Z" fill="#504558"/>
<path d="M964.863 442.853C956.729 430.182 938.129 427.619 923.318 437.126C908.508 446.634 903.095 464.613 911.229 477.283C919.362 489.953 937.962 492.517 952.773 483.009C967.584 473.502 972.997 455.523 964.863 442.853Z" fill="#23152E"/>
<path d="M978.603 502.413C970.469 489.743 951.869 487.179 937.058 496.687C922.248 506.195 916.835 524.173 924.968 536.844C933.102 549.514 951.702 552.078 966.513 542.57C981.324 533.062 986.736 515.083 978.603 502.413Z" fill="#23152E"/>
<path d="M1000.14 559.868C994.941 545.737 977.337 539.209 960.82 545.285C944.302 551.362 935.126 567.743 940.325 581.874C945.524 596.004 963.128 602.533 979.645 596.456C996.163 590.379 1005.34 573.998 1000.14 559.868Z" fill="#23152E"/>
<path d="M1001.9 601.067C988.841 593.568 971.151 599.861 962.385 615.123C953.62 630.384 957.097 648.835 970.153 656.334C983.209 663.833 1000.9 657.54 1009.67 642.279C1018.43 627.017 1014.95 608.566 1001.9 601.067Z" fill="#23152E"/>
<path d="M1020.65 663.838C1007.88 655.857 989.967 661.484 980.637 676.408C971.308 691.332 974.094 709.9 986.861 717.881C999.628 725.862 1017.54 720.234 1026.87 705.311C1036.2 690.387 1033.41 671.819 1020.65 663.838Z" fill="#23152E"/>
<path d="M1022.38 403.785C1006.22 396.823 988.285 402.389 982.329 416.217C976.373 430.045 984.649 446.899 1000.81 453.861C1016.98 460.823 1034.91 455.257 1040.87 441.429C1046.82 427.6 1038.55 410.746 1022.38 403.785Z" fill="#23152E"/>
<path d="M1019.35 465.673C1004.09 456.907 985.642 460.385 978.143 473.441C970.645 486.497 976.937 504.187 992.199 512.953C1007.46 521.718 1025.91 518.24 1033.41 505.184C1040.91 492.128 1034.62 474.438 1019.35 465.673Z" fill="#23152E"/>
<path d="M1041.65 525.813C1026.39 517.048 1007.94 520.525 1000.44 533.581C992.941 546.637 999.234 564.327 1014.5 573.093C1029.76 581.859 1048.21 578.381 1055.71 565.325C1063.21 552.269 1056.91 534.579 1041.65 525.813Z" fill="#23152E"/>
<path d="M1062.97 616.63C1047.7 607.864 1029.25 611.342 1021.76 624.398C1014.26 637.454 1020.55 655.144 1035.81 663.91C1051.07 672.675 1069.52 669.197 1077.02 656.141C1084.52 643.085 1078.23 625.395 1062.97 616.63Z" fill="#23152E"/>
<path d="M396.244 260.045C389.539 196.69 379.016 139.015 373.622 139.577C368.227 140.14 373.402 230.794 376.718 262.101C384.453 335.219 389.118 364.152 392.784 375.488L377.511 364.324C381.555 361.621 383.115 345.94 372.043 241.313C365.28 177.374 354.697 119.165 349.302 119.728C343.914 120.3 349.175 211.776 352.518 243.369C360.348 317.343 365.043 346.507 368.722 357.895L353.435 346.72C357.48 344.049 359.063 328.598 348.178 225.74C341.522 162.859 331.049 105.624 325.652 106.195C320.263 106.767 325.362 196.735 328.65 227.803C336.312 300.219 340.953 328.966 344.603 340.264L326.393 326.956C330.441 324.344 332.072 309.407 321.605 210.471C315.202 149.944 304.952 94.8598 299.557 95.4226C294.169 95.9951 298.909 182.617 302.08 212.526C309.375 281.487 313.886 309.311 317.471 320.421L301.681 308.876C305.732 306.397 307.461 292.45 297.787 201.074C291.862 145.077 282.049 94.158 276.662 94.7226C271.274 95.295 275.335 175.465 278.261 203.129C284.864 265.511 289.107 291.49 292.558 302.206L275.569 289.786C280.204 288.596 283.006 280.537 274.051 195.911C268.914 147.382 259.833 103.306 254.439 103.869C249.044 104.432 251.988 173.985 254.525 197.966C260.259 252.142 264.138 274.617 267.441 283.837L255.53 275.129C259.169 273.268 260.467 263.562 248.252 192.883C240.928 150.503 230.381 112.278 225.675 113.087C220.968 113.897 227.581 174.885 231.197 195.82C238.797 239.791 243.407 259.77 246.778 268.725L228.838 255.61C232.492 253.785 233.93 244.011 222.938 173.262C216.336 130.765 206.448 92.3669 201.726 93.0987C197.004 93.8304 202.577 154.921 205.84 175.917C212.756 220.461 217.042 240.482 220.274 249.355L207.065 239.701C210.499 237.611 211.183 228.716 196.029 169.769C186.851 134.077 174.681 102.285 170.055 103.468C165.429 104.652 174.741 156.432 179.271 174.062C187.622 206.542 192.851 223.389 196.539 232.001L190.956 227.918C194.14 225.036 193.823 219.138 154.244 167.078C131.936 137.733 108.384 113.148 104.579 116.038C100.773 118.928 129.444 163.037 140.47 177.544C147.496 186.789 153.445 194.434 158.509 200.772C150.667 195.383 140.444 188.679 127.163 180.256C96.0304 160.515 65.3844 145.67 62.8254 149.702C60.2663 153.734 102.514 185.109 117.9 194.86C134.277 205.24 146.303 212.527 155.21 217.554C148.01 215.245 139.546 212.641 129.577 209.671C112.116 204.475 60.7055 193.215 59.3443 197.799C57.9849 202.375 89.306 215.737 124.639 226.247C144.594 232.182 158.758 236.053 168.861 238.433C160.304 238.684 149.897 239.144 137.198 239.862C119.014 240.89 66.8298 247.711 67.1062 252.476C67.3746 257.24 101.37 259.199 138.182 257.126C198.656 253.713 207.157 250.391 208.185 246.508L222.784 257.18C213.768 256.212 193.602 257.114 148.023 261.902C127.057 264.11 67.0701 274.312 67.5731 279.062C68.076 283.813 107.409 283.568 149.838 279.107C226.761 271.016 230.593 267.132 230.36 262.723L248.618 276.076C239.232 275.238 218.934 276.217 174.656 280.879C153.691 283.088 93.7038 293.289 94.2068 298.04C94.7097 302.79 134.042 302.545 176.472 298.084C250.422 290.303 256.818 286.413 256.995 282.205L267.125 289.608C258.094 289.504 238.121 292.367 193.107 301.631C172.457 305.877 113.762 321.909 114.729 326.583C115.694 331.264 154.817 327.162 196.603 318.572C265.987 304.301 274.706 299.541 275.162 295.487L294.009 309.27C285.412 308.785 264.226 311.671 210.635 322.694C187.999 327.35 123.572 344.554 124.538 349.236C125.503 353.917 168.32 349.057 214.123 339.633C296.717 322.645 300.965 318.276 300.371 313.927L318.957 327.51C310.005 326.986 286.906 330.182 225.673 342.779C200.538 347.952 128.912 366.641 129.871 371.313C130.836 375.994 178.295 370.177 229.161 359.719C320.896 340.851 325.665 336.369 325.106 332.011L346.133 347.379C336.954 346.837 312.601 350.236 246.131 363.903C219.298 369.418 142.78 389.114 143.746 393.796C144.711 398.477 195.326 392.012 249.627 380.844C347.572 360.698 352.698 356.14 352.165 351.779L370.169 364.942C361.095 364.406 337.309 367.711 273.206 380.898C247.144 386.257 172.839 405.495 173.804 410.177C174.769 414.859 223.952 408.689 276.702 397.839C371.837 378.27 376.805 373.751 376.254 369.395L394.186 382.508C385.226 381.982 362.084 385.185 300.688 397.811C275.502 402.989 203.719 421.716 204.678 426.388C205.643 431.07 253.204 425.234 304.176 414.75C396.111 395.837 400.888 391.357 400.33 386.999L418.099 399.993C409.421 399.498 387.799 402.45 332.464 413.838C309.262 418.614 243.188 436.155 244.155 440.829C245.12 445.511 288.995 440.435 335.951 430.777C420.627 413.359 424.995 408.969 424.411 404.613L441.061 416.783C433.237 416.605 413.917 420.418 364.261 434.183C343.581 439.911 285.047 460.161 286.321 464.756C287.601 469.36 327.039 462.445 368.887 450.844C443.971 430.029 447.901 425.424 447.05 421.148L468.31 436.693C460.936 436.576 443.541 440.139 400.824 452.477C382.536 457.755 330.923 476.689 332.248 481.278C333.573 485.868 368.616 479.775 405.634 469.088C471.975 449.929 475.367 445.433 474.447 441.175L486.222 449.785C479.437 449.917 462.829 454.716 419.44 471.547C401.689 478.434 351.965 501.878 353.702 506.33C355.43 510.78 389.791 501.606 425.71 487.67C489.535 462.9 493.011 457.993 491.798 453.859L499.155 459.236L551.811 505.069C552.67 505.694 558.485 501.268 559.275 500.19C560.065 499.113 564.843 494.377 563.985 493.745L502.271 455.521L488.735 445.627C493.235 445.035 498.233 436.043 510.891 370.876C518.632 331.018 521.412 293.605 516.09 292.573C510.767 291.54 495.438 347.441 491.614 367.128C482.235 415.451 480.508 433.548 481.854 440.597L471.072 432.715C475.599 431.783 479.095 423.616 479.879 355.089C480.346 314.491 476.379 277.187 470.953 277.122C465.535 277.06 460.472 334.799 460.243 354.863C459.725 399.953 460.979 418.941 463.182 426.952L448.876 416.487C452.969 414.225 455.187 401.297 449.212 318.916C445.53 268.13 437.761 221.84 432.355 222.235C426.948 222.63 427.811 295.24 429.632 320.339C433.68 376.151 436.848 399.869 439.839 409.878L425.723 399.555C429.774 397.076 431.499 383.111 421.814 291.6C415.881 235.527 406.061 184.532 400.672 185.105C395.284 185.677 399.353 265.957 402.287 293.663C408.898 356.155 413.149 382.168 416.6 392.884L401.604 381.924C405.652 379.238 407.225 363.685 396.255 260.031L396.244 260.045ZM194.748 238.554C194.786 238.423 194.832 238.293 194.87 238.161C194.981 237.781 195.09 237.409 195.168 237.03L197.558 238.778C196.7 238.699 195.767 238.62 194.756 238.556L194.748 238.554Z" fill="#705783"/>
<path d="M516.529 177.768C516.952 159.323 530.271 139.926 528.144 124.332C526.604 113.059 517.235 105.357 512.23 97.2123C505.94 86.9682 503.371 77.2267 495.929 72.4572C464.53 53.0684 452.905 30.5828 434.809 21.2394C416.714 11.8961 386.509 0 386.509 0C387.005 1.35055 387.461 2.74105 387.89 4.17019C397.23 35.1688 392.755 84.0192 405.315 120.723C409.858 133.999 445.368 162.481 464.127 170.064C482.886 177.648 501.272 179.553 516.529 177.768Z" fill="#23152E"/>
<path d="M428.993 147.257C450.421 146.57 471.923 144.284 492.613 138.371C495.811 143.811 498.982 149.278 502.1 154.737C486.482 160.998 469.484 163.247 452.743 164.265C469.733 163.847 486.915 162.191 503.022 156.364C504.818 159.515 506.6 162.655 508.355 165.785C510.418 169.328 512.78 174.691 516.226 177.185C516.25 173.101 512.674 167.804 510.967 164.352C510.967 164.352 510.964 164.344 510.961 164.337C512.408 159.985 513.497 155.547 514.356 151.076C517.151 136.048 517.793 120.719 518.16 105.488C516.977 124.511 515.904 144.003 509.774 162.153C507.874 158.664 504.366 152.236 504.366 152.236C503.458 150.589 502.532 148.942 501.619 147.294L501.91 79.2413L499.883 144.178C496.452 138.046 492.954 131.945 489.396 125.875C497.693 107.129 489.261 82.7047 483.438 64.2302C488.474 82.0607 495.994 106.031 488.249 123.925C485.583 119.398 482.904 114.89 480.173 110.424C478.055 106.993 475.909 103.576 473.748 100.166C477.507 84.7457 468.567 61.4703 464.023 46.7435L463.711 46.8449C467.597 60.8119 475.395 83.1083 472.364 98.0047C467.657 90.6363 462.823 83.3478 457.825 76.1683C456.98 58.6764 449.686 42.2296 442.326 26.6044C448.72 41.5118 455.062 57.1422 455.929 73.4607C450.272 65.4293 444.396 57.559 438.255 49.9055C440.521 38.9422 434.707 27.8726 429.24 18.6455C433.865 27.5547 438.864 38.055 436.876 48.167C436.847 48.1315 436.818 48.0961 436.791 48.0554C431.068 41.0225 425.109 34.0346 418.815 27.3835C418.758 26.4541 418.635 25.5366 418.43 24.643C417.098 18.9865 413.506 14.2322 409.933 9.85007C413.107 14.5322 416.569 19.8714 417.1 25.5669C412.782 21.0925 408.304 16.7833 403.627 12.7585C398.523 8.42673 392.508 3.99438 386.835 0.525981L386.709 0.697832C388.374 2.30692 390.052 3.884 391.752 5.41511C396.823 10.027 401.778 14.7842 406.55 19.7037C411.239 24.3422 415.766 29.1512 420.159 34.092C411.753 37.3658 402.321 37.3221 393.421 36.2728C402.443 38.1602 412.464 38.6147 421.492 35.5943C425.662 40.3352 429.705 45.1992 433.639 50.1437L395.202 51.4257L395.208 51.7018L435.097 51.9792C437.931 55.5766 440.705 59.2186 443.426 62.8892C428.401 68.3378 411.874 68.3038 396.111 66.4867C412.143 68.9474 428.935 69.569 444.555 64.4178C446.501 67.0588 448.425 69.7098 450.325 72.376C451.691 74.2927 453.048 76.218 454.399 78.1594C436.18 83.3714 417.026 84.8744 398.125 83.6888L398.103 83.9729C417.282 85.6961 436.808 84.6442 455.499 79.75C460.508 86.9949 465.415 94.3836 470.194 101.834C447.995 107.324 424.758 107.395 401.986 106.766L401.973 107.059C413.609 107.703 425.281 108.026 436.956 107.63C448.448 107.22 459.977 106.148 471.263 103.505C474.277 108.224 477.244 112.956 480.153 117.678C456.343 124.223 431.258 124.816 406.681 123.773C431.528 125.442 456.84 125.458 481.16 119.319C484.674 125.037 488.173 130.86 491.64 136.736C471.39 143.114 450.15 145.98 428.987 147.273L428.993 147.257Z" fill="#504558"/>
<path d="M986.042 250.539C990.18 252.91 996.757 249.456 1001.87 242.68C1003.66 247.245 1006.53 250.186 1009.51 249.918C1013.8 249.531 1016.69 242.628 1016.13 234.364C1019.73 234.25 1023.14 232.899 1025.63 230.248C1030.27 225.301 1030.24 217.458 1026.03 211.28C1027.93 209.581 1029.76 207.324 1031.3 204.645C1035.57 197.207 1035.92 189.398 1032.09 187.198C1030.02 186.007 1027.15 186.719 1024.27 188.783C1023.64 182.086 1020.24 176.939 1015.78 176.625C1010.57 176.266 1005.87 182.65 1005.14 190.966C982.776 178.324 937.218 160.37 931.78 169.221C926.035 178.586 967.358 214.403 987.923 227.051C987.541 227.638 987.165 228.242 986.806 228.869C981.539 238.051 981.191 247.746 986.036 250.522L986.042 250.539Z" fill="#705783"/>
<path d="M905.579 161.572L917.713 165.875C920.506 171.774 932.983 181.732 939.532 185.243C947.295 189.415 953.154 172.116 945.391 167.944C938.324 164.148 922.171 159.263 918.101 162.016L906.838 158.021C905.858 157.673 904.781 158.186 904.433 159.167C904.085 160.147 904.598 161.224 905.579 161.572Z" fill="#23152E"/>
<path d="M901.555 281.64C902.951 286.2 910.116 288.172 918.477 286.724C916.659 291.278 916.75 295.388 919.104 297.229C922.501 299.879 929.335 296.818 934.567 290.395C937.281 292.783 940.689 294.117 944.314 293.883C951.091 293.45 956.42 287.699 957.572 280.318C960.119 280.375 963.003 279.981 965.956 279.081C974.152 276.567 979.749 271.107 978.455 266.883C977.754 264.598 975.178 263.156 971.667 262.7C975.782 257.376 976.82 251.295 973.782 248.023C970.225 244.198 962.434 245.646 956.209 251.215C948.532 226.706 927.545 182.459 917.525 185.206C906.929 188.113 912.612 242.506 918.979 265.795C918.295 265.96 917.611 266.148 916.921 266.359C906.798 269.46 899.924 276.305 901.56 281.64H901.555Z" fill="#705783"/>
<path d="M903.629 161.7L909.546 173.139C907.551 179.358 909.859 195.152 912.23 202.191C915.046 210.541 931.148 201.923 928.326 193.567C925.761 185.963 917.309 171.355 912.458 170.586L906.969 159.973C906.491 159.049 905.356 158.69 904.433 159.163C903.51 159.642 903.151 160.776 903.624 161.7H903.629Z" fill="#23152E"/>
<path d="M892.914 282.702C890.976 287.062 883.629 288.162 875.501 285.717C876.755 290.459 876.174 294.529 873.615 296.068C869.927 298.291 863.509 294.432 859.086 287.427C856.105 289.467 852.56 290.391 848.986 289.724C842.312 288.476 837.712 282.132 837.45 274.665C834.913 274.414 832.098 273.679 829.276 272.425C821.439 268.948 816.543 262.855 818.333 258.814C819.302 256.631 822.038 255.508 825.577 255.474C822.129 249.695 821.833 243.533 825.241 240.649C829.231 237.275 836.794 239.652 842.306 245.927C852.873 222.518 879.024 181.11 888.639 185.043C898.808 189.203 886.633 242.513 877.513 264.873C878.169 265.118 878.83 265.386 879.491 265.677C889.164 269.974 895.171 277.589 892.908 282.69L892.914 282.702Z" fill="#705783"/>
<path d="M905.265 163.384L898.015 174.025C899.247 180.437 895.063 195.838 891.86 202.541C888.058 210.492 873.113 199.999 876.915 192.048C880.375 184.809 890.52 171.323 895.428 171.141L902.153 161.263C902.74 160.403 903.909 160.18 904.77 160.767C905.63 161.355 905.853 162.523 905.265 163.384Z" fill="#23152E"/>
<path d="M782.464 153.757C778.03 151.995 776.645 144.7 778.765 136.475C774.074 137.917 769.988 137.495 768.346 134.999C765.975 131.402 769.577 124.836 776.406 120.14C774.245 117.244 773.185 113.739 773.715 110.142C774.696 103.422 780.857 98.5774 788.307 98.0189C788.455 95.4768 789.076 92.6326 790.216 89.7656C793.379 81.7974 799.273 76.662 803.382 78.2921C805.6 79.1755 806.837 81.8602 807.008 85.3997C812.645 81.7234 818.789 81.1819 821.804 84.4763C825.332 88.3294 823.257 95.9841 817.204 101.735C841.012 111.368 883.424 135.854 879.873 145.623C876.117 155.951 822.368 145.897 799.666 137.672C799.444 138.339 799.205 139.006 798.937 139.678C795.027 149.516 787.651 155.82 782.464 153.757Z" fill="#705783"/>
<path d="M902.176 161.372L891.255 154.549C884.9 156.037 869.34 152.463 862.517 149.528C854.418 146.045 864.313 130.696 872.412 134.178C879.782 137.348 893.661 146.952 894.037 151.848L904.171 158.174C905.054 158.727 905.322 159.884 904.769 160.768C904.216 161.651 903.059 161.919 902.176 161.366V161.372Z" fill="#23152E"/>
<path d="M1005.38 88.0445C1009.95 86.6993 1015.54 91.5841 1018.95 99.3642C1021.75 95.3402 1025.23 93.1457 1028.05 94.0976C1032.14 95.4712 1033.35 102.858 1030.88 110.764C1034.36 111.71 1037.36 113.819 1039.16 116.976C1042.53 122.87 1040.67 130.485 1035.15 135.518C1036.6 137.609 1037.86 140.231 1038.74 143.195C1041.16 151.42 1039.69 159.097 1035.45 160.346C1033.16 161.018 1030.53 159.662 1028.21 156.989C1026.04 163.355 1021.54 167.573 1017.13 166.838C1011.98 165.977 1008.9 158.676 1010.11 150.417C985.426 157.519 936.939 164.392 933.712 154.521C930.298 144.079 978.814 118.84 1001.76 111.317C1001.52 110.655 1001.29 109.983 1001.09 109.287C998.097 99.1305 1000.02 89.6233 1005.37 88.0445H1005.38Z" fill="#705783"/>
<path d="M906.439 155.876L919.241 154.508C923.328 149.418 937.776 142.636 944.958 140.738C953.479 138.486 955.161 156.668 946.64 158.92C938.882 160.972 922.034 161.969 918.717 158.344L906.833 159.615C905.801 159.723 904.872 158.977 904.764 157.945C904.655 156.913 905.402 155.984 906.434 155.876H906.439Z" fill="#23152E"/>
<path d="M781.934 159.884C777.42 161.417 775.653 168.633 777.352 176.949C772.746 175.267 768.637 175.478 766.87 177.884C764.316 181.355 767.577 188.098 774.154 193.136C771.851 195.918 770.609 199.366 770.951 202.985C771.584 209.745 777.489 214.903 784.898 215.844C784.915 218.392 785.394 221.259 786.386 224.188C789.139 232.31 794.759 237.742 798.942 236.323C801.205 235.559 802.573 232.937 802.926 229.415C808.364 233.376 814.474 234.231 817.655 231.096C821.376 227.426 819.695 219.68 813.95 213.621C838.225 205.225 881.839 182.951 878.796 173.016C875.581 162.511 821.382 169.784 798.287 176.835C798.099 176.157 797.894 175.478 797.666 174.794C794.269 164.769 787.229 158.094 781.94 159.884H781.934Z" fill="#705783"/>
<path d="M901.88 158.435L890.623 164.682C884.347 162.87 868.627 165.64 861.662 168.216C853.398 171.277 862.489 187.117 870.753 184.056C878.277 181.269 892.629 172.394 893.262 167.521L903.709 161.724C904.615 161.223 904.946 160.077 904.439 159.165C903.937 158.259 902.792 157.928 901.88 158.435Z" fill="#23152E"/>
<path d="M926.297 38.6272C925.625 33.9078 918.853 30.8413 910.366 30.9781C912.869 26.7603 913.416 22.685 911.375 20.502C908.434 17.3557 901.207 19.3164 895.04 24.8509C892.731 22.0751 889.568 20.2227 885.949 19.8864C879.189 19.2652 873.027 24.1157 870.742 31.2289C868.234 30.7786 865.327 30.7159 862.266 31.1548C853.779 32.3632 847.401 36.8888 848.028 41.2605C848.365 43.6258 850.69 45.4554 854.087 46.4472C849.191 51.064 847.225 56.9119 849.721 60.6167C852.639 64.9485 860.562 64.7262 867.578 60.1893C871.357 85.593 885.219 132.564 895.547 131.402C906.468 130.176 909.295 75.5614 906.622 51.5656C907.323 51.5086 908.03 51.4288 908.742 51.3262C919.224 49.8329 927.078 44.1445 926.291 38.6158L926.297 38.6272Z" fill="#705783"/>
<path d="M905.624 156.789L901.555 144.574C904.49 138.743 904.667 122.784 903.413 115.46C901.925 106.773 884.683 112.787 886.171 121.479C887.522 129.384 893.609 145.127 898.277 146.643L902.05 157.98C902.381 158.966 903.447 159.502 904.433 159.171C905.419 158.841 905.955 157.775 905.624 156.789Z" fill="#23152E"/>
<path d="M1001.31 84.1741C1003.96 80.2128 1000.98 73.413 994.58 67.8329C999.26 66.3681 1002.39 63.7063 1002.34 60.7197C1002.25 56.4107 995.572 53.0364 987.285 53.0307C987.427 49.4228 986.316 45.9289 983.848 43.2614C979.236 38.2798 971.416 37.7668 964.959 41.5229C963.397 39.5109 961.277 37.5218 958.712 35.8004C951.593 31.0241 943.824 30.1235 941.367 33.7884C940.034 35.7719 940.541 38.6845 942.399 41.6997C935.673 41.8592 930.299 44.8915 929.677 49.3145C928.948 54.4899 934.989 59.6196 943.237 60.942C929.056 82.3559 907.95 126.546 916.397 132.588C925.334 138.977 963.967 100.27 978.028 80.6402C978.587 81.062 979.162 81.4781 979.761 81.8828C988.55 87.782 998.2 88.808 1001.31 84.1684V84.1741Z" fill="#705783"/>
<path d="M906.912 158.196L912.059 146.392C918.141 144.021 928.948 132.274 932.915 125.987C937.623 118.532 920.774 111.475 916.072 118.93C911.791 125.713 905.784 141.484 908.24 145.736L903.464 156.691C903.048 157.643 903.487 158.755 904.439 159.171C905.391 159.587 906.502 159.148 906.918 158.196H906.912Z" fill="#23152E"/>
</svg>
