<svg width="44" height="44" viewBox="0 0 44 44" fill="none" xmlns="http://www.w3.org/2000/svg">
<circle cx="21.6617" cy="21.6329" r="18.3947" fill="#F7F0DA" stroke="#504558" stroke-width="2"/>
<path d="M30.1027 13.0629C30.0654 13.0641 30.0282 13.0674 29.9912 13.0727H25.1134C24.9806 13.0708 24.8489 13.0953 24.7257 13.1448C24.6025 13.1943 24.4904 13.2678 24.3958 13.361C24.3013 13.4542 24.2262 13.5653 24.175 13.6878C24.1237 13.8103 24.0973 13.9417 24.0973 14.0744C24.0973 14.2072 24.1237 14.3386 24.175 14.4611C24.2262 14.5836 24.3013 14.6946 24.3958 14.7878C24.4904 14.881 24.6025 14.9545 24.7257 15.004C24.8489 15.0535 24.9806 15.0781 25.1134 15.0762H27.7039L18.3944 24.3853C18.2983 24.4776 18.2215 24.5882 18.1686 24.7105C18.1157 24.8329 18.0878 24.9645 18.0865 25.0978C18.0851 25.2311 18.1103 25.3633 18.1607 25.4867C18.2111 25.6101 18.2856 25.7222 18.3798 25.8164C18.4741 25.9107 18.5862 25.9852 18.7096 26.0355C18.833 26.0859 18.9652 26.1112 19.0985 26.1098C19.2318 26.1084 19.3634 26.0805 19.4858 26.0276C19.6081 25.9748 19.7187 25.898 19.811 25.8019L29.1205 16.4927V19.0831C29.1187 19.2159 29.1432 19.3477 29.1927 19.4709C29.2422 19.594 29.3157 19.7062 29.4089 19.8007C29.5021 19.8952 29.6132 19.9703 29.7356 20.0215C29.8581 20.0728 29.9896 20.0992 30.1223 20.0992C30.2551 20.0992 30.3865 20.0728 30.509 20.0215C30.6315 19.9703 30.7425 19.8952 30.8357 19.8007C30.929 19.7062 31.0024 19.594 31.0519 19.4709C31.1014 19.3477 31.126 19.2159 31.1241 19.0831V14.2016C31.144 14.0574 31.1323 13.9105 31.0897 13.7713C31.0471 13.6321 30.9747 13.5038 30.8775 13.3954C30.7803 13.287 30.6606 13.2011 30.5268 13.1437C30.393 13.0863 30.2483 13.0587 30.1027 13.0629ZM15.0956 13.0727C14.0006 13.0727 13.092 13.9812 13.092 15.0762V29.1006C13.092 30.1955 14.0006 31.104 15.0956 31.104H29.1205C30.2155 31.104 31.1241 30.1955 31.1241 29.1006V23.0901C31.126 22.9574 31.1014 22.8256 31.0519 22.7024C31.0024 22.5792 30.929 22.4671 30.8357 22.3726C30.7425 22.278 30.6315 22.203 30.509 22.1517C30.3865 22.1005 30.2551 22.0741 30.1223 22.0741C29.9896 22.0741 29.8581 22.1005 29.7356 22.1517C29.6132 22.203 29.5021 22.278 29.4089 22.3726C29.3157 22.4671 29.2422 22.5792 29.1927 22.7024C29.1432 22.8256 29.1187 22.9574 29.1205 23.0901V29.1006H15.0956V15.0762H21.1063C21.239 15.0781 21.3708 15.0535 21.494 15.004C21.6172 14.9545 21.7293 14.881 21.8238 14.7878C21.9184 14.6946 21.9935 14.5836 22.0447 14.4611C22.0959 14.3386 22.1223 14.2072 22.1223 14.0744C22.1223 13.9417 22.0959 13.8103 22.0447 13.6878C21.9935 13.5653 21.9184 13.4542 21.8238 13.361C21.7293 13.2678 21.6172 13.1943 21.494 13.1448C21.3708 13.0953 21.239 13.0708 21.1063 13.0727H15.0956Z" fill="#504558"/>
</svg>
