<svg width="84" height="84" viewBox="0 0 84 84" fill="none" xmlns="http://www.w3.org/2000/svg">
<path d="M84 42C84 65.196 65.196 84 42 84C18.804 84 0 65.196 0 42C0 18.804 18.804 0 42 0C65.196 0 84 18.804 84 42Z" fill="#504558"/>
<path d="M33.2432 42.0362L51.0863 63.9763C51.6752 64.7486 51.9795 65.7141 51.9991 66.8727C52.0187 68.0312 51.7145 69.0208 51.0863 69.8414C50.4189 70.6138 49.6141 71 48.6719 71C47.7297 71 46.9445 70.6138 46.3164 69.8414L27.59 46.8152C27.0404 46.1394 26.638 45.3912 26.3828 44.5705C26.1276 43.7499 26 42.9051 26 42.0362C26 41.1673 26.1276 40.3225 26.3828 39.5019C26.638 38.6812 27.0404 37.933 27.59 37.2572L46.3753 14.231C47.0034 13.4103 47.769 13 48.6719 13C49.5749 13 50.3797 13.4103 51.0863 14.231C51.6752 15.0516 51.9795 16.0291 51.9991 17.1635C52.0187 18.298 51.7145 19.2755 51.0863 20.0961L33.2432 42.0362Z" fill="#FFFBEF"/>
</svg>
