<svg width="526" height="2548" viewBox="0 0 526 2548" fill="none" xmlns="http://www.w3.org/2000/svg">
<path d="M163.258 689.403C217.815 686.293 267.664 679.677 267.406 675.031C267.148 670.386 189.267 671.05 162.309 672.59C99.3452 676.176 74.3631 678.969 64.4995 681.639L74.6985 669.018C76.8466 672.595 90.2152 674.584 180.312 669.449C235.371 666.314 285.681 659.667 285.423 655.022C285.156 650.382 206.568 651.086 179.363 652.636C115.662 656.268 90.4813 659.078 80.5722 661.756L90.7816 649.124C92.9012 652.701 106.073 654.699 194.646 649.65C248.795 646.563 298.264 639.97 298 635.323C297.734 630.683 220.444 631.31 193.691 632.835C131.332 636.388 106.511 639.169 96.6797 641.826L108.839 626.778C110.908 630.355 123.636 632.374 208.833 627.52C260.954 624.551 308.572 618.06 308.314 613.415C308.047 608.774 233.639 609.234 207.884 610.707C148.5 614.089 124.475 616.797 114.807 619.406L125.355 606.358C127.31 609.932 139.187 611.994 217.874 607.505C266.094 604.757 310.125 598.468 309.866 593.829C309.599 589.189 240.747 589.335 216.925 590.692C163.206 593.755 140.773 596.31 131.449 598.82L142.796 584.782C143.622 588.802 150.41 591.538 223.284 587.385C265.073 585.002 303.211 579.055 302.953 574.409C302.696 569.764 242.986 569.395 222.335 570.571C175.683 573.231 156.267 575.62 148.231 578.065L156.186 568.224C157.629 571.418 165.891 572.934 226.951 565.408C263.563 560.896 296.75 553.449 296.252 549.383C295.754 545.318 243.23 548.447 225.143 550.675C187.156 555.357 169.848 558.476 162.037 560.991L174.019 546.167C175.43 549.374 183.744 551.012 244.813 544.537C281.495 540.647 314.803 533.773 314.373 529.697C313.942 525.621 261.372 527.855 243.249 529.778C204.8 533.851 187.469 536.691 179.733 539.091L188.553 528.176C190.201 531.204 197.793 532.16 248.925 521.629C279.884 515.25 307.627 506.145 306.806 502.133C305.984 498.121 261.236 503.945 245.943 507.093C217.769 512.897 203.119 516.676 195.587 519.478L199.317 514.865C201.654 517.712 206.721 517.685 252.967 485.943C279.035 468.051 301.077 448.895 298.76 445.515C296.442 442.135 257.461 464.863 244.574 473.707C236.361 479.341 229.564 484.12 223.924 488.195C228.866 481.701 235.035 473.222 242.804 462.193C261.01 436.342 275.002 410.704 271.655 408.344C268.307 405.984 239.671 440.874 230.677 453.651C221.103 467.249 214.36 477.249 209.683 484.671C211.961 478.599 214.543 471.456 217.502 463.038C222.68 448.295 234.465 404.719 230.594 403.362C226.73 402.007 213.98 428.285 203.507 458.118C197.592 474.968 193.687 486.942 191.228 495.498C191.369 488.156 191.407 479.221 191.32 468.312C191.195 452.69 187.522 407.7 183.428 407.738C179.336 407.77 176.244 436.814 176.489 468.437C176.898 520.389 179.391 527.809 182.674 528.852L172.925 540.916C174.129 533.231 174.195 515.918 171.988 476.669C170.968 458.616 164.722 406.8 160.632 407.033C156.541 407.266 155.115 440.973 157.173 477.509C160.906 543.747 164.074 547.192 167.861 547.175L155.662 562.262C156.77 554.256 156.775 536.825 154.622 498.698C153.602 480.644 147.357 428.828 143.266 429.062C139.175 429.295 137.749 463.002 139.807 499.538C143.399 563.216 146.465 568.858 150.063 569.184L143.299 577.555C143.764 569.823 142.142 552.592 136.077 513.642C133.297 495.774 122.003 444.822 117.959 445.456C113.908 446.088 115.796 479.777 121.418 515.933C130.759 575.969 134.474 583.637 137.928 584.196L125.336 599.769C126.11 592.424 124.518 574.154 117.303 527.783C114.255 508.196 102.195 452.286 98.1437 452.918C94.0928 453.55 96.4764 490.435 102.645 530.067C113.766 601.533 117.331 605.354 121.082 605.026L108.672 620.385C109.494 612.737 107.716 592.814 99.4699 539.831C96.0834 518.082 83.0507 455.942 79.0082 456.569C74.9572 457.201 77.9676 498.102 84.8125 542.115C97.1626 621.491 100.804 625.763 104.561 625.466L90.5202 642.841C91.3669 634.999 89.467 613.994 80.5221 556.48C76.9129 533.262 63.2205 466.889 59.1695 467.521C55.1185 468.153 58.5531 511.785 65.8627 558.771C79.0503 643.52 82.7419 648.101 86.4999 647.825L74.4749 662.702C75.3107 654.951 73.4684 634.436 64.8367 578.969C61.3289 556.418 47.9364 491.959 43.8854 492.591C39.8345 493.223 43.0754 535.617 50.1774 581.26C62.9865 663.577 66.6514 668.022 70.4065 667.731L58.4266 682.549C59.2498 674.894 57.4683 654.934 49.204 601.81C45.8154 580.017 32.7559 517.74 28.7135 518.368C24.6625 519 27.684 559.989 34.5465 604.094C46.9273 683.643 50.5664 687.922 54.3234 687.625L42.4527 702.308C43.2377 694.894 41.6077 676.247 34.1523 628.367C31.0252 608.291 18.7442 550.955 14.6999 551.589C10.6489 552.221 13.1727 590.021 19.4948 630.65C30.8962 703.918 34.476 707.843 38.2318 707.524L27.1136 721.282C27.5911 714.587 25.1281 697.876 15.3994 654.762C11.3523 636.807 -3.56253 585.817 -7.55182 586.718C-11.5496 587.623 -7.26492 621.699 0.933856 658.033C15.6439 723.225 19.4263 726.783 23.1246 726.232L8.92301 743.799C9.32996 737.486 7.00082 722.436 -1.79304 685.326C-5.55439 669.439 -19.6296 624.434 -23.6166 625.378C-27.6037 626.322 -23.8408 656.598 -16.2243 688.756C-2.56888 746.389 1.14194 749.482 4.82835 748.87L-3.03798 758.6C-2.86888 752.782 -6.28975 738.354 -18.9048 700.482C-24.0671 684.988 -42.0852 641.413 -45.9711 642.716C-49.8551 644.012 -43.4247 673.831 -32.9788 705.183C-14.4113 760.893 -10.3523 764.076 -6.75973 763.208L-11.6728 769.287L-53.1285 812.493C-53.6992 813.203 -50.1489 818.369 -49.2589 819.091C-48.3688 819.812 -44.5101 824.102 -43.9328 823.394L-8.61914 772.111L0.419687 760.926C0.739712 764.806 8.23541 769.462 63.539 783.015C97.3648 791.305 129.301 795.242 130.407 790.725C131.513 786.208 84.2596 770.751 67.5517 766.656C26.5425 756.612 11.1104 754.38 5.01535 755.24L12.216 746.33C12.8268 750.248 19.6781 753.583 78.3539 757.104C113.115 759.192 145.24 757.345 145.521 752.698C145.8 748.059 96.544 741.321 79.3642 740.29C40.7556 737.972 24.4367 738.257 17.4812 739.811L27.0418 727.989C28.8101 731.59 39.7932 734.028 110.619 732.335C154.282 731.292 194.263 726.561 194.149 721.913C194.036 717.264 131.793 714.984 110.214 715.5C62.2309 716.648 41.7792 718.376 33.0802 720.522L42.5109 708.858C44.4661 712.431 56.3582 714.49 135.161 709.998C183.446 707.247 227.543 700.954 227.277 696.313C227.011 691.673 158.064 691.821 134.205 693.182C80.3923 696.248 57.9291 698.809 48.6049 701.32L58.6184 688.927C60.7513 692.508 74.0107 694.502 163.269 689.414L163.258 689.403ZM190.048 517.671C190.159 517.709 190.268 517.754 190.38 517.792C190.701 517.903 191.015 518.012 191.336 518.094L189.739 520.069C189.842 519.337 189.949 518.541 190.046 517.678L190.048 517.671Z" fill="#705783"/>
<path d="M121.23 459.359C61.2225 506.242 -17.6344 484.524 -17.6344 484.524C-17.6344 484.524 -19.221 403.289 40.789 356.401C79.3963 326.239 134.088 317.642 168.19 315.347C187.097 314.074 237.82 276.499 241.914 281.735C245.806 286.715 197.345 327.071 191.66 345.067C181.332 377.746 159.928 429.124 121.23 459.359Z" fill="#23152E"/>
<path d="M240.368 283.002C162.84 344.209 78.2682 413.92 -0.850738 472.4C-6.37218 476.398 -11.848 480.46 -17.4148 484.409L-17.668 484.087C-12.4909 479.641 -7.22545 475.313 -2.00567 470.922C34.6269 440.478 72.4426 411.048 110.342 382.251C142.634 357.875 208.134 306.103 240.368 283.002Z" fill="#705783"/>
<path d="M218.091 234.058C173.457 217.567 135.581 223.594 121.313 227.608C125.684 225.074 132.69 220.282 137.116 220.09C154.491 219.348 183.466 212.015 196.91 197.76C212 181.76 238.643 143.604 237.312 122.961C236.426 109.217 163.094 113.355 136.683 132.49C104.483 155.823 110.931 195.153 117.653 212.899C119.259 217.142 118.401 221.888 117.774 225.154C117.018 224.267 116.307 223.452 115.632 222.718C112.746 206.145 99.3435 163.627 87.5423 123.714C81.4313 103.044 46.1058 75.9453 42.0614 77.9056C38.017 79.8659 34.6358 120.47 49.7794 142.018C73.0612 175.16 97.8978 211.656 109.433 224.825C109.588 225.941 109.8 227.188 110.052 228.544C107.123 227.011 103.115 224.777 100.874 221.035C91.1312 204.761 64.2902 175.311 26.0288 186.132C-5.35234 195.008 -54.0546 250.025 -43.8288 259.246C-28.4704 273.087 17.9538 275.823 39.8637 273.894C59.3799 272.176 83.0935 253.966 94.4438 240.782C97.3344 237.428 105.436 234.895 110.133 233.037C98.1349 241.751 69.927 267.758 55.1919 313.033C46.763 338.934 61.0554 378.284 64.0993 378.127C66.651 377.994 70.1875 350.491 89.5124 331.655C104.141 317.399 103.467 268.192 112.31 238.973C114.444 247.899 117.502 259.099 121.121 271.44C114.77 275.273 109.545 282.986 112.119 302.136C114.516 320.031 127.109 333.096 140.239 331.316C140.484 331.28 140.719 331.243 140.947 331.195C148.254 329.654 149.84 320.408 158.197 316.351C165.928 312.601 173.706 316.238 179.408 312.975C180.067 312.604 180.697 312.138 181.292 311.56C190.809 302.326 188.331 284.345 175.758 271.396C160.933 256.127 151.213 256.833 144.111 260.292C136.565 249.618 129.579 240.052 123.884 232.731C152.347 243.652 190.991 275.245 211.414 272.576C238.163 269.076 261.922 283.349 263.607 281.426C265.617 279.136 243.625 243.513 218.098 234.078L218.091 234.058Z" fill="#705783"/>
<path d="M217.17 752.457C217.211 752.469 233.394 753.908 230.481 763.609C227.957 772.012 209.331 782.955 209.325 782.956C187.705 792.051 170.063 813.936 152.431 823.02C119.201 845.302 101.103 839.422 77.8759 864.067C-12.5544 947.288 -52.7224 905.26 8.79405 881.936C44.1751 869.225 75.4822 822.357 118.116 812.475C144.677 805.847 192.984 754.403 217.175 752.457L217.17 752.457ZM10.8274 881.66C10.8274 881.66 10.8443 881.658 10.8556 881.657C10.8443 881.658 10.8387 881.659 10.8274 881.66ZM10.7991 881.664C10.7991 881.664 10.8161 881.662 10.8217 881.661C10.8161 881.662 10.8048 881.663 10.7991 881.664ZM10.7822 881.666C10.7822 881.666 10.7822 881.666 10.7878 881.665C10.7878 881.665 10.7878 881.665 10.7822 881.666Z" fill="#705783"/>
<path d="M39.5458 880.27C36.6083 880.652 34.5363 883.342 34.9178 886.28C35.2993 889.217 37.9898 891.289 40.9273 890.908C43.8648 890.526 45.9368 887.836 45.5553 884.898C45.1738 881.961 42.4833 879.889 39.5458 880.27Z" fill="#504558"/>
<path d="M140.528 800.453C137.004 800.91 134.518 804.138 134.976 807.663C135.434 811.187 138.662 813.673 142.186 813.215C145.71 812.758 148.196 809.53 147.739 806.005C147.281 802.481 144.053 799.995 140.528 800.453Z" fill="#504558"/>
<path d="M14.1423 902.559C4.94324 914.479 8.78071 932.858 22.7135 943.611C36.6463 954.364 55.3984 953.419 64.5975 941.5C73.7966 929.58 69.9592 911.201 56.0264 900.448C42.0935 889.695 23.3414 890.64 14.1423 902.559Z" fill="#23152E"/>
<path d="M65.6199 869.6C56.4208 881.52 60.2582 899.899 74.191 910.652C88.1238 921.405 106.876 920.46 116.075 908.541C125.274 896.621 121.437 878.242 107.504 867.489C93.571 856.736 74.819 857.681 65.6199 869.6Z" fill="#23152E"/>
<path d="M112.493 830.004C100.932 839.649 100.701 858.424 111.976 871.938C123.251 885.452 141.763 888.587 153.324 878.942C164.885 869.296 165.117 850.521 153.841 837.008C142.566 823.494 124.054 820.358 112.493 830.004Z" fill="#23152E"/>
<path d="M167.258 1472.4C221.815 1469.29 271.664 1462.67 271.406 1458.03C271.148 1453.38 193.267 1454.05 166.309 1455.59C103.345 1459.17 78.3631 1461.97 68.4995 1464.64L78.6985 1452.02C80.8466 1455.59 94.2152 1457.58 184.312 1452.45C239.371 1449.31 289.681 1442.67 289.423 1438.02C289.156 1433.38 210.568 1434.08 183.363 1435.63C119.662 1439.27 94.4813 1442.08 84.5722 1444.75L94.7816 1432.12C96.9012 1435.7 110.073 1437.7 198.646 1432.65C252.795 1429.56 302.264 1422.97 302 1418.32C301.734 1413.68 224.444 1414.31 197.691 1415.83C135.332 1419.39 110.511 1422.17 100.68 1424.82L112.839 1409.78C114.908 1413.35 127.636 1415.37 212.833 1410.52C264.954 1407.55 312.572 1401.06 312.314 1396.41C312.047 1391.77 237.639 1392.23 211.884 1393.7C152.5 1397.09 128.475 1399.8 118.807 1402.4L129.355 1389.36C131.31 1392.93 143.187 1394.99 221.874 1390.5C270.094 1387.76 314.125 1381.47 313.866 1376.83C313.599 1372.19 244.747 1372.33 220.925 1373.69C167.206 1376.75 144.773 1379.31 135.449 1381.82L146.796 1367.78C147.622 1371.8 154.41 1374.54 227.284 1370.38C269.073 1368 307.211 1362.05 306.953 1357.41C306.696 1352.76 246.986 1352.39 226.335 1353.57C179.683 1356.23 160.267 1358.62 152.231 1361.06L160.186 1351.22C161.629 1354.42 169.891 1355.93 230.951 1348.41C267.563 1343.89 300.75 1336.45 300.252 1332.38C299.754 1328.32 247.23 1331.45 229.143 1333.67C191.156 1338.36 173.848 1341.47 166.037 1343.99L178.019 1329.17C179.43 1332.37 187.744 1334.01 248.813 1327.53C285.495 1323.65 318.803 1316.77 318.373 1312.7C317.942 1308.62 265.372 1310.85 247.249 1312.78C208.8 1316.85 191.469 1319.69 183.733 1322.09L192.553 1311.17C194.201 1314.2 201.793 1315.16 252.925 1304.63C283.884 1298.25 311.627 1289.14 310.806 1285.13C309.984 1281.12 265.236 1286.94 249.943 1290.09C221.769 1295.9 207.119 1299.67 199.587 1302.48L203.317 1297.86C205.654 1300.71 210.721 1300.68 256.967 1268.94C283.035 1251.05 305.077 1231.89 302.76 1228.51C300.442 1225.13 261.461 1247.86 248.574 1256.7C240.361 1262.34 233.564 1267.12 227.924 1271.19C232.866 1264.7 239.035 1256.22 246.804 1245.19C265.01 1219.34 279.002 1193.7 275.655 1191.34C272.307 1188.98 243.671 1223.87 234.677 1236.65C225.103 1250.25 218.36 1260.25 213.683 1267.67C215.961 1261.6 218.543 1254.45 221.502 1246.04C226.68 1231.29 238.465 1187.72 234.594 1186.36C230.73 1185.01 217.98 1211.28 207.507 1241.12C201.592 1257.97 197.687 1269.94 195.228 1278.5C195.369 1271.15 195.407 1262.22 195.32 1251.31C195.195 1235.69 191.522 1190.7 187.428 1190.74C183.336 1190.77 180.244 1219.81 180.489 1251.43C180.898 1303.39 183.391 1310.81 186.674 1311.85L176.925 1323.91C178.129 1316.23 178.195 1298.92 175.988 1259.67C174.968 1241.61 168.722 1189.8 164.632 1190.03C160.541 1190.26 159.115 1223.97 161.173 1260.51C164.906 1326.75 168.074 1330.19 171.861 1330.17L159.662 1345.26C160.77 1337.25 160.775 1319.82 158.622 1281.7C157.602 1263.64 151.357 1211.83 147.266 1212.06C143.175 1212.29 141.749 1246 143.807 1282.54C147.399 1346.21 150.465 1351.86 154.063 1352.18L147.299 1360.55C147.764 1352.82 146.142 1335.59 140.077 1296.64C137.297 1278.77 126.003 1227.82 121.959 1228.45C117.908 1229.09 119.796 1262.77 125.418 1298.93C134.759 1358.97 138.474 1366.63 141.928 1367.19L129.336 1382.77C130.11 1375.42 128.518 1357.15 121.303 1310.78C118.255 1291.19 106.195 1235.28 102.144 1235.92C98.0928 1236.55 100.476 1273.43 106.645 1313.07C117.766 1384.53 121.331 1388.35 125.082 1388.02L112.672 1403.38C113.494 1395.74 111.716 1375.81 103.47 1322.83C100.083 1301.08 87.0507 1238.94 83.0082 1239.57C78.9572 1240.2 81.9676 1281.1 88.8125 1325.11C101.163 1404.49 104.804 1408.76 108.561 1408.46L94.5202 1425.84C95.3669 1418 93.467 1396.99 84.5221 1339.48C80.9129 1316.26 67.2205 1249.89 63.1695 1250.52C59.1185 1251.15 62.5531 1294.78 69.8627 1341.77C83.0503 1426.52 86.7419 1431.1 90.4999 1430.82L78.4749 1445.7C79.3107 1437.95 77.4684 1417.43 68.8367 1361.97C65.3289 1339.42 51.9364 1274.96 47.8854 1275.59C43.8345 1276.22 47.0754 1318.61 54.1774 1364.26C66.9865 1446.58 70.6514 1451.02 74.4065 1450.73L62.4266 1465.55C63.2498 1457.89 61.4683 1437.93 53.204 1384.81C49.8154 1363.02 36.7559 1300.74 32.7135 1301.37C28.6625 1302 31.684 1342.99 38.5465 1387.09C50.9273 1466.64 54.5664 1470.92 58.3234 1470.62L46.4527 1485.31C47.2377 1477.89 45.6077 1459.25 38.1523 1411.36C35.0252 1391.29 22.7442 1333.95 18.6999 1334.59C14.6489 1335.22 17.1727 1373.02 23.4948 1413.65C34.8962 1486.92 38.476 1490.84 42.2318 1490.52L31.1136 1504.28C31.5911 1497.58 29.1281 1480.87 19.3994 1437.76C15.3523 1419.81 0.437474 1368.82 -3.55182 1369.72C-7.54963 1370.62 -3.26492 1404.7 4.93386 1441.03C19.6439 1506.22 23.4263 1509.78 27.1246 1509.23L12.923 1526.8C13.33 1520.48 11.0008 1505.43 2.20696 1468.32C-1.55439 1452.44 -15.6296 1407.43 -19.6166 1408.38C-23.6037 1409.32 -19.8408 1439.6 -12.2243 1471.75C1.43112 1529.39 5.14194 1532.48 8.82835 1531.87L0.962018 1541.6C1.13112 1535.78 -2.28975 1521.35 -14.9048 1483.48C-20.0671 1467.99 -38.0852 1424.41 -41.9711 1425.71C-45.8551 1427.01 -39.4247 1456.83 -28.9788 1488.18C-10.4113 1543.89 -6.35228 1547.07 -2.75973 1546.21L-7.67279 1552.29L-49.1285 1595.49C-49.6992 1596.2 -46.1489 1601.37 -45.2589 1602.09C-44.3688 1602.81 -40.5101 1607.1 -39.9328 1606.39L-4.61914 1555.11L4.41969 1543.92C4.73971 1547.8 12.2354 1552.46 67.539 1566.01C101.365 1574.3 133.301 1578.24 134.407 1573.72C135.513 1569.21 88.2596 1553.75 71.5517 1549.65C30.5425 1539.61 15.1104 1537.38 9.01535 1538.24L16.216 1529.33C16.8268 1533.25 23.6781 1536.58 82.3539 1540.1C117.115 1542.19 149.24 1540.34 149.521 1535.7C149.8 1531.06 100.544 1524.32 83.3642 1523.29C44.7556 1520.97 28.4367 1521.25 21.4812 1522.81L31.0418 1510.99C32.8101 1514.59 43.7932 1517.03 114.619 1515.33C158.282 1514.29 198.263 1509.56 198.149 1504.91C198.036 1500.26 135.793 1497.98 114.214 1498.5C66.2309 1499.65 45.7792 1501.37 37.0802 1503.52L46.5109 1491.86C48.4661 1495.43 60.3582 1497.49 139.161 1493C187.446 1490.24 231.543 1483.95 231.277 1479.31C231.011 1474.67 162.064 1474.82 138.205 1476.18C84.3923 1479.25 61.9291 1481.81 52.6049 1484.32L62.6184 1471.93C64.7513 1475.51 78.0107 1477.5 167.269 1472.41L167.258 1472.4ZM194.048 1300.67C194.159 1300.71 194.268 1300.75 194.38 1300.79C194.701 1300.9 195.015 1301.01 195.336 1301.09L193.739 1303.07C193.842 1302.34 193.949 1301.54 194.046 1300.68L194.048 1300.67Z" fill="#705783"/>
<path d="M125.23 1242.36C65.2225 1289.24 -13.6344 1267.52 -13.6344 1267.52C-13.6344 1267.52 -15.221 1186.29 44.789 1139.4C83.3963 1109.24 138.088 1100.64 172.19 1098.34C191.097 1097.07 241.82 1059.5 245.914 1064.73C249.806 1069.71 201.345 1110.07 195.66 1128.07C185.332 1160.74 163.928 1212.12 125.23 1242.36Z" fill="#23152E"/>
<path d="M244.368 1066C166.84 1127.21 82.2682 1196.92 3.14925 1255.4C-2.37219 1259.4 -7.84797 1263.46 -13.4148 1267.41L-13.668 1267.09C-8.49089 1262.64 -3.22546 1258.31 1.99432 1253.92C38.6269 1223.48 76.4426 1194.05 114.342 1165.25C146.634 1140.87 212.134 1089.1 244.368 1066Z" fill="#705783"/>
<path d="M222.091 1017.06C177.457 1000.56 139.581 1006.59 125.313 1010.61C129.684 1008.07 136.69 1003.28 141.116 1003.09C158.491 1002.35 187.466 995.013 200.91 980.758C216 964.758 242.643 926.602 241.312 905.959C240.426 892.215 167.094 896.353 140.683 915.488C108.483 938.821 114.931 978.152 121.653 995.897C123.259 1000.14 122.401 1004.89 121.774 1008.15C121.018 1007.26 120.307 1006.45 119.632 1005.72C116.746 989.143 103.343 946.626 91.5423 906.712C85.4313 886.042 50.1058 858.943 46.0614 860.904C42.017 862.864 38.6358 903.468 53.7794 925.016C77.0612 958.158 101.898 994.654 113.433 1007.82C113.588 1008.94 113.8 1010.19 114.052 1011.54C111.123 1010.01 107.115 1007.77 104.874 1004.03C95.1312 987.759 68.2902 958.309 30.0288 969.13C-1.35234 978.006 -50.0546 1033.02 -39.8288 1042.24C-24.4704 1056.08 21.9538 1058.82 43.8637 1056.89C63.3799 1055.17 87.0935 1036.96 98.4438 1023.78C101.334 1020.43 109.436 1017.89 114.133 1016.03C102.135 1024.75 73.927 1050.76 59.1919 1096.03C50.763 1121.93 65.0554 1161.28 68.0993 1161.12C70.651 1160.99 74.1875 1133.49 93.5124 1114.65C108.141 1100.4 107.467 1051.19 116.31 1021.97C118.444 1030.9 121.502 1042.1 125.121 1054.44C118.77 1058.27 113.545 1065.98 116.119 1085.13C118.516 1103.03 131.109 1116.09 144.239 1114.31C144.484 1114.28 144.719 1114.24 144.947 1114.19C152.254 1112.65 153.84 1103.41 162.197 1099.35C169.928 1095.6 177.706 1099.24 183.408 1095.97C184.067 1095.6 184.697 1095.14 185.292 1094.56C194.809 1085.32 192.331 1067.34 179.758 1054.39C164.933 1039.12 155.213 1039.83 148.111 1043.29C140.565 1032.62 133.579 1023.05 127.884 1015.73C156.347 1026.65 194.991 1058.24 215.414 1055.57C242.163 1052.07 265.922 1066.35 267.607 1064.42C269.617 1062.13 247.625 1026.51 222.098 1017.08L222.091 1017.06Z" fill="#705783"/>
<path d="M221.17 1535.46C221.211 1535.47 237.394 1536.91 234.481 1546.61C231.957 1555.01 213.331 1565.95 213.325 1565.96C191.705 1575.05 174.063 1596.94 156.431 1606.02C123.201 1628.3 105.103 1622.42 81.8759 1647.07C-8.55438 1730.29 -48.7224 1688.26 12.794 1664.94C48.1751 1652.23 79.4822 1605.36 122.116 1595.47C148.677 1588.85 196.984 1537.4 221.175 1535.46L221.17 1535.46ZM14.8274 1664.66C14.8274 1664.66 14.8443 1664.66 14.8556 1664.66C14.8443 1664.66 14.8387 1664.66 14.8274 1664.66ZM14.7991 1664.66C14.7991 1664.66 14.8161 1664.66 14.8217 1664.66C14.8161 1664.66 14.8048 1664.66 14.7991 1664.66ZM14.7822 1664.67C14.7822 1664.67 14.7822 1664.67 14.7878 1664.67C14.7878 1664.67 14.7878 1664.67 14.7822 1664.67Z" fill="#705783"/>
<path d="M43.5458 1663.27C40.6083 1663.65 38.5363 1666.34 38.9178 1669.28C39.2993 1672.22 41.9898 1674.29 44.9273 1673.91C47.8648 1673.53 49.9368 1670.84 49.5553 1667.9C49.1738 1664.96 46.4833 1662.89 43.5458 1663.27Z" fill="#504558"/>
<path d="M144.527 1583.45C141.003 1583.91 138.517 1587.14 138.975 1590.66C139.433 1594.19 142.661 1596.68 146.185 1596.22C149.709 1595.76 152.195 1592.53 151.738 1589.01C151.28 1585.48 148.052 1583 144.527 1583.45Z" fill="#504558"/>
<path d="M18.1423 1685.56C8.94324 1697.48 12.7807 1715.86 26.7135 1726.61C40.6463 1737.37 59.3984 1736.42 68.5975 1724.5C77.7966 1712.58 73.9592 1694.2 60.0264 1683.45C46.0935 1672.7 27.3414 1673.64 18.1423 1685.56Z" fill="#23152E"/>
<path d="M69.6199 1652.6C60.4208 1664.52 64.2582 1682.9 78.191 1693.65C92.1238 1704.41 110.876 1703.46 120.075 1691.54C129.274 1679.62 125.437 1661.24 111.504 1650.49C97.571 1639.74 78.819 1640.68 69.6199 1652.6Z" fill="#23152E"/>
<path d="M116.492 1613C104.931 1622.65 104.7 1641.42 115.975 1654.94C127.25 1668.45 145.762 1671.59 157.323 1661.94C168.884 1652.3 169.116 1633.52 157.84 1620.01C146.565 1606.49 128.053 1603.36 116.492 1613Z" fill="#23152E"/>
<path d="M154.705 1597.5C152.03 1612.32 163.903 1626.86 181.223 1629.99C198.543 1633.12 214.752 1623.64 217.426 1608.82C220.1 1594 208.227 1579.46 190.907 1576.33C173.587 1573.21 157.379 1582.68 154.705 1597.5Z" fill="#23152E"/>
<path d="M207.52 1558.74C204.295 1573.45 215.616 1588.43 232.807 1592.2C249.998 1595.97 266.549 1587.11 269.775 1572.4C273 1557.69 261.679 1542.71 244.488 1538.94C227.297 1535.17 210.746 1544.04 207.52 1558.74Z" fill="#23152E"/>
<path d="M-37.985 1644.52C-39.1086 1662.08 -27.8388 1677.1 -12.8132 1678.06C2.21238 1679.02 15.3039 1665.57 16.4275 1648C17.5511 1630.44 6.28129 1615.42 -8.74429 1614.46C-23.7699 1613.5 -36.8614 1626.96 -37.985 1644.52Z" fill="#23152E"/>
<path d="M21.3191 1626.57C18.1932 1643.89 27.6707 1660.1 42.4876 1662.77C57.3046 1665.45 71.8501 1653.57 74.9759 1636.25C78.1018 1618.93 68.6242 1602.72 53.8073 1600.05C38.9903 1597.38 24.4449 1609.25 21.3191 1626.57Z" fill="#23152E"/>
<path d="M70.4655 1585.35C67.3397 1602.67 76.8172 1618.88 91.6341 1621.56C106.451 1624.23 120.997 1612.36 124.122 1595.04C127.248 1577.72 117.771 1561.51 102.954 1558.84C88.1368 1556.16 73.5914 1568.03 70.4655 1585.35Z" fill="#23152E"/>
<path d="M148.833 1534.75C145.707 1552.07 155.184 1568.28 170.001 1570.96C184.818 1573.63 199.364 1561.76 202.49 1544.44C205.615 1527.12 196.138 1510.91 181.321 1508.23C166.504 1505.56 151.959 1517.43 148.833 1534.75Z" fill="#23152E"/>
<path d="M167.258 2258.4C221.815 2255.29 271.664 2248.67 271.406 2244.03C271.148 2239.38 193.267 2240.05 166.309 2241.59C103.345 2245.17 78.3631 2247.97 68.4995 2250.64L78.6985 2238.02C80.8466 2241.59 94.2152 2243.58 184.312 2238.45C239.371 2235.31 289.681 2228.67 289.423 2224.02C289.156 2219.38 210.568 2220.08 183.363 2221.63C119.662 2225.27 94.4813 2228.08 84.5722 2230.75L94.7816 2218.12C96.9012 2221.7 110.073 2223.7 198.646 2218.65C252.795 2215.56 302.264 2208.97 302 2204.32C301.734 2199.68 224.444 2200.31 197.691 2201.83C135.332 2205.39 110.511 2208.17 100.68 2210.82L112.839 2195.78C114.908 2199.35 127.636 2201.37 212.833 2196.52C264.954 2193.55 312.572 2187.06 312.314 2182.41C312.047 2177.77 237.639 2178.23 211.884 2179.7C152.5 2183.09 128.475 2185.8 118.807 2188.4L129.355 2175.36C131.31 2178.93 143.187 2180.99 221.874 2176.5C270.094 2173.76 314.125 2167.47 313.866 2162.83C313.599 2158.19 244.747 2158.33 220.925 2159.69C167.206 2162.75 144.773 2165.31 135.449 2167.82L146.796 2153.78C147.622 2157.8 154.41 2160.54 227.284 2156.38C269.073 2154 307.211 2148.05 306.953 2143.41C306.696 2138.76 246.986 2138.39 226.335 2139.57C179.683 2142.23 160.267 2144.62 152.231 2147.06L160.186 2137.22C161.629 2140.42 169.891 2141.93 230.951 2134.41C267.563 2129.89 300.75 2122.45 300.252 2118.38C299.754 2114.32 247.23 2117.45 229.143 2119.67C191.156 2124.36 173.848 2127.47 166.037 2129.99L178.019 2115.17C179.43 2118.37 187.744 2120.01 248.813 2113.53C285.495 2109.65 318.803 2102.77 318.373 2098.7C317.942 2094.62 265.372 2096.85 247.249 2098.78C208.8 2102.85 191.469 2105.69 183.733 2108.09L192.553 2097.17C194.201 2100.2 201.793 2101.16 252.925 2090.63C283.884 2084.25 311.627 2075.14 310.806 2071.13C309.984 2067.12 265.236 2072.94 249.943 2076.09C221.769 2081.9 207.119 2085.67 199.587 2088.48L203.317 2083.86C205.654 2086.71 210.721 2086.68 256.967 2054.94C283.035 2037.05 305.077 2017.89 302.76 2014.51C300.442 2011.13 261.461 2033.86 248.574 2042.7C240.361 2048.34 233.564 2053.12 227.924 2057.19C232.866 2050.7 239.035 2042.22 246.804 2031.19C265.01 2005.34 279.002 1979.7 275.655 1977.34C272.307 1974.98 243.671 2009.87 234.677 2022.65C225.103 2036.25 218.36 2046.25 213.683 2053.67C215.961 2047.6 218.543 2040.45 221.502 2032.04C226.68 2017.29 238.465 1973.72 234.594 1972.36C230.73 1971.01 217.98 1997.28 207.507 2027.12C201.592 2043.97 197.687 2055.94 195.228 2064.5C195.369 2057.15 195.407 2048.22 195.32 2037.31C195.195 2021.69 191.522 1976.7 187.428 1976.74C183.336 1976.77 180.244 2005.81 180.489 2037.43C180.898 2089.39 183.391 2096.81 186.674 2097.85L176.925 2109.91C178.129 2102.23 178.195 2084.92 175.988 2045.67C174.968 2027.61 168.722 1975.8 164.632 1976.03C160.541 1976.26 159.115 2009.97 161.173 2046.51C164.906 2112.75 168.074 2116.19 171.861 2116.17L159.662 2131.26C160.77 2123.25 160.775 2105.82 158.622 2067.7C157.602 2049.64 151.357 1997.83 147.266 1998.06C143.175 1998.29 141.749 2032 143.807 2068.54C147.399 2132.21 150.465 2137.86 154.063 2138.18L147.299 2146.55C147.764 2138.82 146.142 2121.59 140.077 2082.64C137.297 2064.77 126.003 2013.82 121.959 2014.45C117.908 2015.09 119.796 2048.77 125.418 2084.93C134.759 2144.97 138.474 2152.63 141.928 2153.19L129.336 2168.77C130.11 2161.42 128.518 2143.15 121.303 2096.78C118.255 2077.19 106.195 2021.28 102.144 2021.92C98.0928 2022.55 100.476 2059.43 106.645 2099.07C117.766 2170.53 121.331 2174.35 125.082 2174.02L112.672 2189.38C113.494 2181.74 111.716 2161.81 103.47 2108.83C100.083 2087.08 87.0507 2024.94 83.0082 2025.57C78.9572 2026.2 81.9676 2067.1 88.8125 2111.11C101.163 2190.49 104.804 2194.76 108.561 2194.46L94.5202 2211.84C95.3669 2204 93.467 2182.99 84.5221 2125.48C80.9129 2102.26 67.2205 2035.89 63.1695 2036.52C59.1185 2037.15 62.5531 2080.78 69.8627 2127.77C83.0503 2212.52 86.7419 2217.1 90.4999 2216.82L78.4749 2231.7C79.3107 2223.95 77.4684 2203.43 68.8367 2147.97C65.3289 2125.42 51.9364 2060.96 47.8854 2061.59C43.8345 2062.22 47.0754 2104.61 54.1774 2150.26C66.9865 2232.58 70.6514 2237.02 74.4065 2236.73L62.4266 2251.55C63.2498 2243.89 61.4683 2223.93 53.204 2170.81C49.8154 2149.02 36.7559 2086.74 32.7135 2087.37C28.6625 2088 31.684 2128.99 38.5465 2173.09C50.9273 2252.64 54.5664 2256.92 58.3234 2256.62L46.4527 2271.31C47.2377 2263.89 45.6077 2245.25 38.1523 2197.36C35.0252 2177.29 22.7442 2119.95 18.6999 2120.59C14.6489 2121.22 17.1727 2159.02 23.4948 2199.65C34.8962 2272.92 38.476 2276.84 42.2318 2276.52L31.1136 2290.28C31.5911 2283.58 29.1281 2266.87 19.3994 2223.76C15.3523 2205.81 0.437474 2154.82 -3.55182 2155.72C-7.54963 2156.62 -3.26492 2190.7 4.93386 2227.03C19.6439 2292.22 23.4263 2295.78 27.1246 2295.23L12.923 2312.8C13.33 2306.48 11.0008 2291.43 2.20696 2254.32C-1.55439 2238.44 -15.6296 2193.43 -19.6166 2194.38C-23.6037 2195.32 -19.8408 2225.6 -12.2243 2257.75C1.43112 2315.39 5.14194 2318.48 8.82835 2317.87L0.962018 2327.6C1.13112 2321.78 -2.28975 2307.35 -14.9048 2269.48C-20.0671 2253.99 -38.0852 2210.41 -41.9711 2211.71C-45.8551 2213.01 -39.4247 2242.83 -28.9788 2274.18C-10.4113 2329.89 -6.35228 2333.07 -2.75973 2332.21L-7.67279 2338.29L-49.1285 2381.49C-49.6992 2382.2 -46.1489 2387.37 -45.2589 2388.09C-44.3688 2388.81 -40.5101 2393.1 -39.9328 2392.39L-4.61914 2341.11L4.41969 2329.92C4.73971 2333.8 12.2354 2338.46 67.539 2352.01C101.365 2360.3 133.301 2364.24 134.407 2359.72C135.513 2355.21 88.2596 2339.75 71.5517 2335.65C30.5425 2325.61 15.1104 2323.38 9.01535 2324.24L16.216 2315.33C16.8268 2319.25 23.6781 2322.58 82.3539 2326.1C117.115 2328.19 149.24 2326.34 149.521 2321.7C149.8 2317.06 100.544 2310.32 83.3642 2309.29C44.7556 2306.97 28.4367 2307.25 21.4812 2308.81L31.0418 2296.99C32.8101 2300.59 43.7932 2303.03 114.619 2301.33C158.282 2300.29 198.263 2295.56 198.149 2290.91C198.036 2286.26 135.793 2283.98 114.214 2284.5C66.2309 2285.65 45.7792 2287.37 37.0802 2289.52L46.5109 2277.86C48.4661 2281.43 60.3582 2283.49 139.161 2279C187.446 2276.24 231.543 2269.95 231.277 2265.31C231.011 2260.67 162.064 2260.82 138.205 2262.18C84.3923 2265.25 61.9291 2267.81 52.6049 2270.32L62.6184 2257.93C64.7513 2261.51 78.0107 2263.5 167.269 2258.41L167.258 2258.4ZM194.048 2086.67C194.159 2086.71 194.268 2086.75 194.38 2086.79C194.701 2086.9 195.015 2087.01 195.336 2087.09L193.739 2089.07C193.842 2088.34 193.949 2087.54 194.046 2086.68L194.048 2086.67Z" fill="#705783"/>
<path d="M125.23 2028.36C65.2225 2075.24 -13.6344 2053.52 -13.6344 2053.52C-13.6344 2053.52 -15.221 1972.29 44.789 1925.4C83.3963 1895.24 138.088 1886.64 172.19 1884.34C191.097 1883.07 241.82 1845.5 245.914 1850.73C249.806 1855.71 201.345 1896.07 195.66 1914.07C185.332 1946.74 163.928 1998.12 125.23 2028.36Z" fill="#23152E"/>
<path d="M222.091 1803.06C177.457 1786.56 139.581 1792.59 125.313 1796.61C129.684 1794.07 136.69 1789.28 141.116 1789.09C158.491 1788.35 187.466 1781.01 200.91 1766.76C216 1750.76 242.643 1712.6 241.312 1691.96C240.426 1678.22 167.094 1682.35 140.683 1701.49C108.483 1724.82 114.931 1764.15 121.653 1781.9C123.259 1786.14 122.401 1790.89 121.774 1794.15C121.018 1793.26 120.307 1792.45 119.632 1791.72C116.746 1775.14 103.343 1732.63 91.5423 1692.71C85.4313 1672.04 50.1058 1644.94 46.0614 1646.9C42.017 1648.86 38.6358 1689.47 53.7794 1711.02C77.0612 1744.16 101.898 1780.65 113.433 1793.82C113.588 1794.94 113.8 1796.19 114.052 1797.54C111.123 1796.01 107.115 1793.77 104.874 1790.03C95.1312 1773.76 68.2902 1744.31 30.0288 1755.13C-1.35234 1764.01 -50.0546 1819.02 -39.8288 1828.24C-24.4704 1842.08 21.9538 1844.82 43.8637 1842.89C63.3799 1841.17 87.0935 1822.96 98.4438 1809.78C101.334 1806.43 109.436 1803.89 114.133 1802.03C102.135 1810.75 73.927 1836.76 59.1919 1882.03C50.763 1907.93 65.0554 1947.28 68.0993 1947.12C70.651 1946.99 74.1875 1919.49 93.5124 1900.65C108.141 1886.4 107.467 1837.19 116.31 1807.97C118.444 1816.9 121.502 1828.1 125.121 1840.44C118.77 1844.27 113.545 1851.98 116.119 1871.13C118.516 1889.03 131.109 1902.09 144.239 1900.31C144.484 1900.28 144.719 1900.24 144.947 1900.19C152.254 1898.65 153.84 1889.41 162.197 1885.35C169.928 1881.6 177.706 1885.24 183.408 1881.97C184.067 1881.6 184.697 1881.14 185.292 1880.56C194.809 1871.32 192.331 1853.34 179.758 1840.39C164.933 1825.12 155.213 1825.83 148.111 1829.29C140.565 1818.62 133.579 1809.05 127.884 1801.73C156.347 1812.65 194.991 1844.24 215.414 1841.57C242.163 1838.07 265.922 1852.35 267.607 1850.42C269.617 1848.13 247.625 1812.51 222.098 1803.08L222.091 1803.06Z" fill="#705783"/>
<path d="M221.17 2321.46C221.211 2321.47 237.394 2322.91 234.481 2332.61C231.957 2341.01 213.331 2351.95 213.325 2351.96C191.705 2361.05 174.063 2382.94 156.431 2392.02C123.201 2414.3 105.103 2408.42 81.8759 2433.07C-8.55438 2516.29 -48.7224 2474.26 12.794 2450.94C48.1751 2438.23 79.4822 2391.36 122.116 2381.47C148.677 2374.85 196.984 2323.4 221.175 2321.46L221.17 2321.46ZM14.8274 2450.66C14.8274 2450.66 14.8443 2450.66 14.8556 2450.66C14.8443 2450.66 14.8387 2450.66 14.8274 2450.66ZM14.7991 2450.66C14.7991 2450.66 14.8161 2450.66 14.8217 2450.66C14.8161 2450.66 14.8048 2450.66 14.7991 2450.66ZM14.7822 2450.67C14.7822 2450.67 14.7822 2450.67 14.7878 2450.67C14.7878 2450.67 14.7878 2450.67 14.7822 2450.67Z" fill="#705783"/>
<path d="M43.5458 2449.27C40.6083 2449.65 38.5363 2452.34 38.9178 2455.28C39.2993 2458.22 41.9898 2460.29 44.9273 2459.91C47.8648 2459.53 49.9368 2456.84 49.5553 2453.9C49.1738 2450.96 46.4833 2448.89 43.5458 2449.27Z" fill="#504558"/>
<path d="M144.527 2369.45C141.003 2369.91 138.517 2373.14 138.975 2376.66C139.433 2380.19 142.661 2382.68 146.185 2382.22C149.709 2381.76 152.195 2378.53 151.738 2375.01C151.28 2371.48 148.052 2369 144.527 2369.45Z" fill="#504558"/>
<path d="M18.1423 2471.56C8.94324 2483.48 12.7807 2501.86 26.7135 2512.61C40.6463 2523.37 59.3984 2522.42 68.5975 2510.5C77.7966 2498.58 73.9592 2480.2 60.0264 2469.45C46.0935 2458.7 27.3414 2459.64 18.1423 2471.56Z" fill="#23152E"/>
<path d="M69.6199 2438.6C60.4208 2450.52 64.2582 2468.9 78.191 2479.65C92.1238 2490.41 110.876 2489.46 120.075 2477.54C129.274 2465.62 125.437 2447.24 111.504 2436.49C97.571 2425.74 78.819 2426.68 69.6199 2438.6Z" fill="#23152E"/>
<path d="M116.492 2399C104.931 2408.65 104.7 2427.42 115.975 2440.94C127.25 2454.45 145.762 2457.59 157.323 2447.94C168.884 2438.3 169.116 2419.52 157.84 2406.01C146.565 2392.49 128.053 2389.36 116.492 2399Z" fill="#23152E"/>
<path d="M154.705 2383.5C152.03 2398.32 163.903 2412.86 181.223 2415.99C198.543 2419.12 214.752 2409.64 217.426 2394.82C220.1 2380 208.227 2365.46 190.907 2362.33C173.587 2359.21 157.379 2368.68 154.705 2383.5Z" fill="#23152E"/>
<path d="M207.52 2344.74C204.295 2359.45 215.616 2374.43 232.807 2378.2C249.998 2381.97 266.549 2373.11 269.775 2358.4C273 2343.69 261.679 2328.71 244.488 2324.94C227.297 2321.17 210.746 2330.04 207.52 2344.74Z" fill="#23152E"/>
<path d="M-37.985 2430.52C-39.1086 2448.08 -27.8388 2463.1 -12.8132 2464.06C2.21238 2465.02 15.3039 2451.57 16.4275 2434C17.5511 2416.44 6.28129 2401.42 -8.74429 2400.46C-23.7699 2399.5 -36.8614 2412.96 -37.985 2430.52Z" fill="#23152E"/>
<path d="M21.3191 2412.57C18.1932 2429.89 27.6707 2446.1 42.4876 2448.77C57.3046 2451.45 71.8501 2439.57 74.9759 2422.25C78.1018 2404.93 68.6242 2388.72 53.8073 2386.05C38.9903 2383.38 24.4449 2395.25 21.3191 2412.57Z" fill="#23152E"/>
<path d="M70.4655 2371.35C67.3397 2388.67 76.8172 2404.88 91.6341 2407.56C106.451 2410.23 120.997 2398.36 124.122 2381.04C127.248 2363.72 117.771 2347.51 102.954 2344.84C88.1368 2342.16 73.5914 2354.03 70.4655 2371.35Z" fill="#23152E"/>
<path d="M148.833 2320.75C145.707 2338.07 155.184 2354.28 170.001 2356.96C184.818 2359.63 199.364 2347.76 202.49 2330.44C205.615 2313.12 196.138 2296.91 181.321 2294.23C166.504 2291.56 151.959 2303.43 148.833 2320.75Z" fill="#23152E"/>
<path d="M150.705 814.499C148.03 829.316 159.903 843.861 177.223 846.987C194.543 850.113 210.752 840.636 213.426 825.819C216.1 811.002 204.227 796.456 186.907 793.33C169.587 790.205 153.379 799.682 150.705 814.499Z" fill="#23152E"/>
<path d="M203.52 775.743C200.295 790.449 211.616 805.428 228.807 809.198C245.998 812.969 262.549 804.103 265.775 789.397C269 774.69 257.679 759.711 240.488 755.941C223.297 752.17 206.746 761.036 203.52 775.743Z" fill="#23152E"/>
<path d="M-41.985 861.521C-43.1086 879.084 -31.8388 894.102 -16.8132 895.063C-1.78762 896.024 11.3039 882.565 12.4275 865.001C13.5511 847.438 2.28129 832.42 -12.7443 831.459C-27.7699 830.498 -40.8614 843.957 -41.985 861.521Z" fill="#23152E"/>
<path d="M17.3191 843.568C14.1932 860.887 23.6707 877.096 38.4876 879.77C53.3046 882.444 67.8501 870.571 70.9759 853.251C74.1018 835.931 64.6242 819.723 49.8073 817.049C34.9903 814.375 20.4449 826.248 17.3191 843.568Z" fill="#23152E"/>
<path d="M66.4655 802.355C63.3397 819.675 72.8172 835.883 87.6341 838.557C102.451 841.231 116.997 829.358 120.122 812.038C123.248 794.718 113.771 778.51 98.9538 775.836C84.1368 773.162 69.5914 785.035 66.4655 802.355Z" fill="#23152E"/>
<path d="M144.833 751.753C141.707 769.073 151.184 785.281 166.001 787.956C180.818 790.63 195.364 778.757 198.49 761.437C201.615 744.117 192.138 727.908 177.321 725.234C162.504 722.56 147.959 734.433 144.833 751.753Z" fill="#23152E"/>
</svg>
