<svg width="872" height="845" viewBox="0 0 872 845" fill="none" xmlns="http://www.w3.org/2000/svg">
<path d="M644.386 401.191C601.045 346.514 620.435 274.125 620.435 274.125C620.435 274.125 694.853 272.148 738.199 326.828C766.081 362.006 774.31 412.06 776.633 443.289C777.921 460.604 812.674 506.835 807.903 510.62C803.365 514.217 766.079 470.077 749.554 464.984C719.547 455.732 672.336 436.452 644.386 401.191Z" fill="#23152E"/>
<path d="M806.732 509.213C750.155 438.575 685.741 361.538 631.652 289.425C627.953 284.392 624.196 279.401 620.542 274.327L620.835 274.092C624.942 278.807 628.941 283.604 632.998 288.358C661.127 321.725 688.334 356.182 714.962 390.72C737.504 420.15 785.359 479.828 806.732 509.213Z" fill="#705783"/>
<path d="M671.289 222.563C632.661 208.291 599.881 213.507 587.534 216.982C591.316 214.789 597.38 210.641 601.21 210.475C616.247 209.833 641.323 203.486 652.958 191.15C666.018 177.303 689.076 144.281 687.923 126.416C687.157 114.521 623.693 118.102 600.835 134.662C572.968 154.855 578.548 188.894 584.366 204.251C585.756 207.924 585.013 212.031 584.471 214.857C583.816 214.09 583.201 213.385 582.617 212.749C580.119 198.406 568.52 161.61 558.307 127.067C553.018 109.178 522.446 85.726 518.946 87.4225C515.445 89.119 512.519 124.26 525.625 142.908C545.774 171.591 567.269 203.176 577.252 214.573C577.386 215.539 577.57 216.618 577.788 217.791C575.253 216.465 571.784 214.531 569.844 211.293C561.413 197.208 538.183 171.721 505.07 181.086C477.912 188.768 435.763 236.382 444.613 244.362C457.904 256.341 498.082 258.708 517.044 257.039C533.934 255.553 554.457 239.793 564.28 228.383C566.781 225.48 573.793 223.288 577.858 221.68C567.474 229.221 543.062 251.729 530.309 290.912C523.015 313.327 535.384 347.382 538.018 347.247C540.227 347.132 543.287 323.329 560.012 307.028C572.672 294.69 572.089 252.105 579.742 226.817C581.588 234.542 584.236 244.235 587.368 254.916C581.871 258.233 577.349 264.907 579.577 281.481C581.651 296.968 592.55 308.275 603.913 306.735C604.125 306.704 604.329 306.672 604.526 306.63C610.849 305.296 612.222 297.294 619.455 293.784C626.145 290.538 632.877 293.685 637.811 290.862C638.382 290.54 638.927 290.138 639.442 289.637C647.678 281.646 645.533 266.084 634.652 254.877C621.822 241.663 613.41 242.274 607.264 245.268C600.733 236.03 594.687 227.751 589.758 221.415C614.392 230.866 647.835 258.209 665.51 255.898C688.66 252.87 709.223 265.222 710.681 263.558C712.42 261.576 693.388 230.746 671.295 222.58L671.289 222.563Z" fill="#705783"/>
<path d="M718.411 735.957C718.401 735.999 717.701 752.231 707.877 749.763C699.368 747.624 687.588 729.516 687.587 729.51C677.515 708.328 654.849 691.701 644.971 674.501C621.198 642.322 626.247 623.974 600.569 601.894C513.313 515.351 553.467 473.309 579.57 533.699C593.88 568.464 642.127 597.602 653.941 639.742C661.773 665.973 715.365 711.885 718.412 735.963L718.411 735.957ZM579.938 535.717C579.938 535.717 579.941 535.734 579.943 535.745C579.941 535.734 579.94 535.729 579.938 535.717ZM579.933 535.689C579.933 535.689 579.936 535.706 579.937 535.712C579.936 535.706 579.934 535.695 579.933 535.689ZM579.93 535.672C579.93 535.672 579.93 535.672 579.931 535.678C579.931 535.678 579.931 535.678 579.93 535.672Z" fill="#705783"/>
<path d="M582.636 564.342C582.121 561.425 579.338 559.477 576.421 559.992C573.504 560.507 571.557 563.289 572.072 566.207C572.587 569.124 575.369 571.071 578.286 570.556C581.203 570.041 583.151 567.259 582.636 564.342Z" fill="#504558"/>
<path d="M666.971 661.582C666.353 658.082 663.015 655.746 659.515 656.364C656.015 656.981 653.679 660.319 654.297 663.819C654.915 667.319 658.253 669.655 661.753 669.038C665.253 668.42 667.589 665.082 666.971 661.582Z" fill="#504558"/>
<path d="M559.211 539.982C546.885 531.335 528.699 536.006 518.592 550.415C508.485 564.823 510.284 583.513 522.61 592.159C534.936 600.805 553.122 596.134 563.229 581.726C573.336 567.317 571.537 548.628 559.211 539.982Z" fill="#23152E"/>
<path d="M594.483 589.903C582.157 581.257 563.971 585.928 553.864 600.336C543.757 614.745 545.556 633.434 557.882 642.081C570.209 650.727 588.394 646.056 598.501 631.648C608.608 617.239 606.809 598.55 594.483 589.903Z" fill="#23152E"/>
<path d="M636.175 634.923C626.012 623.814 607.247 624.438 594.261 636.317C581.275 648.196 578.986 666.832 589.148 677.942C599.311 689.051 618.077 688.427 631.062 676.547C644.048 664.668 646.337 646.032 636.175 634.923Z" fill="#23152E"/>
<path d="M653.403 672.388C638.48 670.392 624.49 682.915 622.157 700.359C619.824 717.804 630.03 733.564 644.954 735.56C659.877 737.556 673.866 725.032 676.199 707.588C678.533 690.143 668.326 674.384 653.403 672.388Z" fill="#23152E"/>
<path d="M694.527 723.381C679.688 720.83 665.241 732.822 662.258 750.167C659.275 767.512 668.886 783.642 683.724 786.194C698.562 788.746 713.01 776.753 715.993 759.408C718.976 742.063 709.365 725.933 694.527 723.381Z" fill="#23152E"/>
<path d="M597.65 482.043C580.054 481.721 565.565 493.664 565.29 508.717C565.014 523.771 579.056 536.236 596.653 536.558C614.25 536.88 628.738 524.937 629.014 509.883C629.289 494.83 615.247 482.365 597.65 482.043Z" fill="#23152E"/>
<path d="M618.286 540.465C600.842 538.132 585.082 548.338 583.086 563.262C581.09 578.185 593.614 592.174 611.058 594.508C628.502 596.841 644.262 586.635 646.258 571.711C648.254 556.788 635.731 542.798 618.286 540.465Z" fill="#23152E"/>
<path d="M661.698 587.684C644.253 585.351 628.493 595.557 626.497 610.48C624.501 625.404 637.025 639.393 654.469 641.726C671.914 644.06 687.673 633.853 689.669 618.93C691.665 604.007 679.142 590.017 661.698 587.684Z" fill="#23152E"/>
<path d="M715.817 663.663C698.373 661.329 682.613 671.536 680.617 686.459C678.621 701.382 691.144 715.372 708.589 717.705C726.033 720.038 741.793 709.832 743.789 694.909C745.785 679.985 733.261 665.996 715.817 663.663Z" fill="#23152E"/>
<path d="M232.556 446.407C270.509 421.953 303.649 396.896 301.572 393.661C299.495 390.427 243.779 422.621 225.027 434.707C181.225 462.927 164.404 475.109 158.4 481.045L160.592 467.819C163.593 469.516 174.013 465.501 236.69 425.118C274.993 400.441 308.452 375.174 306.375 371.94C304.293 368.712 248.086 401.224 229.16 413.418C184.847 441.971 167.89 454.246 161.857 460.207L164.052 446.968C167.032 448.676 177.315 444.748 238.931 405.047C276.599 380.776 309.476 355.89 307.394 352.657C305.312 349.429 250.007 381.357 231.396 393.348C188.015 421.298 171.305 433.406 165.32 439.32L167.932 423.551C170.876 425.279 180.848 421.546 240.116 383.361C276.375 360 307.963 335.942 305.886 332.707C303.804 329.48 250.502 360.113 232.587 371.661C191.276 398.277 175.107 410.008 169.22 415.82L171.489 402.145C174.35 403.918 183.727 400.563 238.464 365.291C272.009 343.678 301.101 321.225 299.025 317.996C296.944 314.769 247.507 342.914 230.935 353.591C193.566 377.67 178.48 388.642 172.8 394.245L175.239 379.531C177.471 382.085 183.465 381.287 234.16 348.624C263.23 329.892 288.224 310.085 286.147 306.851C284.07 303.616 240.996 327.668 226.63 336.923C194.176 357.835 181.192 367.459 176.411 372.49L178.122 362.175C180.46 363.884 187.016 361.609 227.845 331.332C252.327 313.178 273.152 294.309 271.138 291.589C269.124 288.869 232.641 312.51 220.546 321.477C195.145 340.313 183.973 349.604 179.382 354.594L181.958 339.057C184.279 340.788 190.923 338.579 232.186 309.054C256.972 291.319 278.116 272.813 276.147 270.058C274.178 267.303 237.297 290.318 225.051 299.081C199.07 317.668 187.768 326.767 183.184 331.643L185.08 320.204C187.498 321.711 193.345 319.306 225.813 290.911C245.471 273.717 261.706 255.874 259.482 253.324C257.257 250.775 227.461 273.186 217.749 281.677C199.86 297.323 190.868 306.006 186.594 311.087L187.397 306.252C190.236 307.347 193.868 305.265 214.186 263.612C225.638 240.134 233.683 217.387 230.64 215.901C227.597 214.415 208.831 246.629 203.169 258.234C199.559 265.629 196.619 271.833 194.224 277.059C195.132 270.378 196.114 261.77 197.207 250.678C199.767 224.68 199.385 200.552 196.017 200.218C192.649 199.885 186.273 236.628 185.011 249.476C183.666 263.151 182.891 273.085 182.552 280.325C181.716 275.033 180.664 268.846 179.363 261.59C177.081 248.883 167.806 212.758 164.471 213.359C161.141 213.959 162.678 238.041 167.298 263.753C169.909 278.274 171.978 288.472 173.695 295.624C170.806 290.289 167.195 283.85 162.69 276.044C156.238 264.865 135.274 234.018 132.347 235.713C129.418 237.403 139.024 259.541 152.078 282.174C173.53 319.353 178.344 323.673 181.129 323.085L179.033 335.728C176.77 329.713 169.766 317.24 152.196 289.925C144.11 277.362 118.518 242.656 115.672 244.49C112.827 246.324 125.529 271.135 141.887 296.562C171.547 342.658 175.227 343.843 177.942 342.29L175.318 358.103C172.853 351.897 165.758 339.364 148.683 312.832C140.598 300.27 115.005 265.564 112.16 267.398C109.314 269.232 122.017 294.043 138.375 319.47C166.89 363.783 171.392 366.59 174.111 365.359L172.658 374.132C169.843 368.384 161.66 356.658 141.438 331.128C132.163 319.415 103.293 287.387 100.644 289.49C97.9895 291.594 113.066 315.043 131.832 338.745C162.997 378.099 168.791 382.098 171.502 381.093L168.792 397.416C166.357 391.821 157.772 379.335 133.701 348.939C123.533 336.1 92.0932 300.819 89.4385 302.924C86.7839 305.028 103.519 330.572 124.094 356.55C161.193 403.396 165.312 404.691 167.875 402.928L165.209 419.022C162.685 413.19 153.293 399.592 125.788 364.863C114.496 350.607 79.8202 311.244 77.1697 313.342C74.5151 315.446 93.336 343.622 116.181 372.474C157.385 424.505 161.743 426.093 164.322 424.35L161.305 442.558C158.72 436.576 148.8 422.25 118.947 384.548C106.897 369.327 70.0231 327.189 67.3684 329.294C64.7137 331.398 84.9519 361.365 109.342 392.164C153.336 447.717 157.856 449.507 160.445 447.778L157.859 463.37C155.303 457.457 145.624 443.46 116.83 407.102C105.124 392.32 69.2458 351.436 66.5912 353.54C63.9365 355.645 83.5311 384.8 107.225 414.719C149.957 468.678 154.401 470.38 156.982 468.642L154.405 484.173C151.88 478.335 142.47 464.712 114.894 429.888C103.583 415.602 68.8326 376.152 66.1821 378.249C63.5274 380.353 82.3926 408.589 105.287 437.499C146.584 489.643 150.943 491.237 153.523 489.493L150.969 504.882C148.514 499.233 139.748 486.492 114.889 455.109C104.465 441.95 72.2866 405.735 69.6375 407.838C66.9828 409.942 84.1912 436.087 105.283 462.72C143.317 510.746 147.489 512.11 150.059 510.351L147.669 524.769C145.286 519.761 136.71 508.752 112.158 481.721C101.936 470.462 70.449 439.881 67.948 442.153C65.4429 444.432 82.4002 467.183 103.091 489.963C140.215 530.837 144.383 531.854 146.818 529.952L143.763 548.364C141.485 543.66 133.681 533.789 112.246 510.693C103.072 500.805 74.6255 474.184 72.1439 476.487C69.6622 478.789 84.6971 499.021 103.269 519.037C136.557 554.906 140.484 555.618 142.885 553.677L141.192 563.875C138.944 559.623 130.609 550.645 106.117 528.558C96.0964 519.522 65.3979 495.535 63.135 498.054C60.8707 500.568 77.6371 519.385 97.9145 537.668C133.95 570.155 138.164 570.79 140.394 568.703L139.337 575.074L127.132 623.016C127.011 623.759 131.667 626.027 132.601 626.183C133.534 626.34 138.055 627.852 138.182 627.108L142.683 575.86L144.625 564.139C146.436 566.798 153.72 567.092 198.996 554.313C226.688 546.496 251.249 536.32 250.205 532.623C249.16 528.925 208.896 537.058 195.218 540.918C161.647 550.399 149.645 555.079 145.613 558.18L147.161 548.842C149.196 551.41 155.479 551.017 199.093 529.652C224.932 516.997 247.273 502.586 245.583 499.131C243.894 495.683 205.742 510.899 192.972 517.154C164.273 531.211 152.658 538.062 148.291 542.012L150.349 529.62C153.087 531.488 161.975 528.768 212.2 498.706C243.163 480.175 269.977 460.492 268.003 457.196C266.028 453.901 220.355 477.611 205.053 486.77C171.027 507.136 157.028 516.707 151.649 521.793L153.678 509.567C156.539 511.34 165.927 507.977 220.745 472.654C254.336 451.012 283.473 428.53 281.392 425.303C279.31 422.076 229.807 450.261 213.21 460.956C175.775 485.075 160.669 496.064 154.989 501.666L157.141 488.68C160.132 490.385 170.476 486.418 232.569 446.41L232.556 446.407ZM181.876 312.044C181.972 312.026 182.069 312.014 182.164 311.996C182.44 311.945 182.71 311.896 182.975 311.824L182.631 313.894C182.407 313.326 182.16 312.71 181.877 312.05L181.876 312.044Z" fill="#705783"/>
<path d="M395.14 191.468C397.669 173.192 413.118 155.445 412.788 139.71C412.547 128.335 404.12 119.613 400.079 110.949C395.001 100.053 393.563 90.0817 386.715 84.4926C357.739 61.6409 348.761 37.9735 331.853 26.6226C314.945 15.2716 286.298 0 286.298 0C286.635 1.39836 286.93 2.83189 287.193 4.30076C292.927 36.1639 282.896 84.1823 291.177 122.081C294.172 135.79 326.193 168.145 343.962 177.824C361.731 187.502 379.778 191.497 395.14 191.468Z" fill="#23152E"/>
<path d="M311.666 151.148C333.033 152.915 354.655 153.103 375.885 149.594C378.44 155.365 380.965 161.158 383.439 166.938C367.207 171.372 350.063 171.663 333.315 170.76C350.242 172.287 367.501 172.607 384.168 168.66C385.592 171.996 387.003 175.318 388.39 178.628C390.033 182.385 391.767 187.983 394.905 190.854C395.396 186.799 392.449 181.128 391.148 177.503C391.148 177.503 391.146 177.496 391.143 177.488C393.079 173.33 394.669 169.046 396.032 164.703C400.527 150.092 402.918 134.937 405.024 119.848C401.674 138.612 398.379 157.852 390.215 175.183C388.726 171.5 385.976 164.712 385.976 164.712C385.262 162.973 384.53 161.231 383.812 159.489L391.882 91.9156L382.443 156.195C379.735 149.711 376.959 143.249 374.118 136.812C384.504 119.138 378.919 93.91 375.247 74.8909C378.211 93.1803 382.941 117.853 373.201 134.744C371.071 129.942 368.924 125.158 366.721 120.408C365.01 116.758 363.269 113.118 361.512 109.483C367.009 94.5937 360.789 70.4488 357.959 55.299L357.637 55.3641C359.901 69.6839 365.099 92.7256 360.384 107.178C356.55 99.3195 352.581 91.526 348.437 83.8222C349.598 66.3485 344.232 49.1755 338.706 32.8113C343.355 48.352 347.867 64.605 346.863 80.9155C342.161 72.2901 337.224 63.7995 331.998 55.4942C335.503 44.8619 330.993 33.2 326.616 23.4083C330.192 32.7879 333.958 43.791 330.827 53.6093C330.802 53.5708 330.777 53.5323 330.755 53.4887C325.874 45.8476 320.752 38.2242 315.261 30.8972C315.31 29.9673 315.293 29.0418 315.191 28.1305C314.515 22.3589 311.49 17.225 308.441 12.4631C311.059 17.4775 313.888 23.1774 313.765 28.8964C309.986 23.9576 306.03 19.1646 301.844 14.6315C297.27 9.74463 291.8 4.65354 286.561 0.559291L286.417 0.715635C287.887 2.50456 289.373 4.26307 290.887 5.97859C295.397 11.14 299.776 16.4325 303.954 21.8654C308.082 27.0096 312.03 32.3046 315.828 37.7152C307.104 40.0065 297.738 38.8847 289.016 36.8246C297.764 39.7313 307.667 41.3285 316.982 39.3602C320.581 44.5467 324.042 49.8411 327.385 55.203L289.054 52.0819L289.028 52.3568L328.624 57.1931C331.028 61.091 333.368 65.0263 335.651 68.9839C320.101 72.6788 303.687 70.7554 288.235 67.1481C303.88 71.4256 320.491 73.9631 336.598 70.6316C338.229 73.4778 339.837 76.3313 341.42 79.1973C342.558 81.2577 343.686 83.3255 344.806 85.4086C326.11 88.5032 306.91 87.8064 288.269 84.4676L288.215 84.7474C307.071 88.6521 326.589 89.8395 345.717 87.1145C349.865 94.8846 353.894 102.786 357.79 110.734C335.109 113.649 312.016 111.064 289.466 107.835L289.419 108.125C300.905 110.095 312.464 111.75 324.108 112.692C335.571 113.599 347.147 113.852 358.662 112.516C361.116 117.549 363.522 122.589 365.872 127.613C341.47 131.392 316.482 129.113 292.185 125.267C316.678 129.766 341.822 132.676 366.685 129.358C369.523 135.441 372.333 141.625 375.105 147.859C354.259 151.88 332.831 152.299 311.658 151.163L311.666 151.148Z" fill="#504558"/>
<path d="M431.042 796.539C435.18 798.91 441.757 795.456 446.87 788.68C448.659 793.245 451.532 796.186 454.507 795.918C458.799 795.531 461.695 788.628 461.125 780.364C464.733 780.25 468.135 778.899 470.626 776.248C475.271 771.301 475.237 763.458 471.031 757.28C472.929 755.581 474.764 753.324 476.303 750.645C480.572 743.207 480.92 735.398 477.09 733.198C475.021 732.007 472.148 732.719 469.27 734.783C468.637 728.086 465.24 722.939 460.783 722.625C455.573 722.266 450.871 728.65 450.136 736.966C427.776 724.324 382.218 706.37 376.78 715.221C371.035 724.586 412.358 760.403 432.922 773.051C432.541 773.638 432.164 774.242 431.805 774.869C426.539 784.051 426.191 793.746 431.036 796.522L431.042 796.539Z" fill="#705783"/>
<path d="M350.578 707.572L362.713 711.875C365.506 717.774 377.983 727.732 384.532 731.243C392.295 735.415 398.154 718.116 390.391 713.944C383.323 710.148 367.17 705.263 363.101 708.016L351.838 704.021C350.858 703.673 349.78 704.186 349.433 705.167C349.085 706.147 349.598 707.224 350.578 707.572Z" fill="#23152E"/>
<path d="M346.554 827.64C347.951 832.2 355.115 834.172 363.477 832.724C361.659 837.278 361.75 841.388 364.104 843.229C367.501 845.879 374.335 842.818 379.567 836.395C382.28 838.783 385.689 840.117 389.314 839.883C396.091 839.45 401.42 833.699 402.571 826.318C405.119 826.375 408.003 825.981 410.956 825.081C419.152 822.567 424.749 817.107 423.455 812.883C422.754 810.598 420.178 809.156 416.667 808.7C420.782 803.376 421.819 797.295 418.781 794.023C415.225 790.198 407.433 791.646 401.209 797.215C393.532 772.706 372.545 728.459 362.525 731.206C351.929 734.113 357.612 788.506 363.978 811.795C363.294 811.96 362.611 812.148 361.921 812.359C351.798 815.46 344.924 822.305 346.56 827.64H346.554Z" fill="#705783"/>
<path d="M348.629 707.7L354.545 719.139C352.55 725.358 354.859 741.152 357.23 748.191C360.046 756.541 376.147 747.923 373.326 739.567C370.761 731.963 362.308 717.355 357.458 716.586L351.969 705.973C351.49 705.049 350.356 704.69 349.433 705.163C348.509 705.642 348.15 706.776 348.623 707.7H348.629Z" fill="#23152E"/>
<path d="M337.914 828.702C335.976 833.062 328.629 834.162 320.501 831.717C321.755 836.459 321.173 840.529 318.614 842.068C314.926 844.291 308.509 840.432 304.086 833.427C301.105 835.467 297.559 836.391 293.986 835.724C287.311 834.476 282.712 828.132 282.449 820.665C279.913 820.414 277.097 819.679 274.276 818.425C266.439 814.948 261.543 808.855 263.332 804.814C264.301 802.631 267.037 801.508 270.577 801.474C267.128 795.695 266.832 789.533 270.241 786.649C274.23 783.275 281.794 785.652 287.306 791.927C297.873 768.518 324.023 727.11 333.639 731.043C343.807 735.203 331.632 788.513 322.513 810.873C323.168 811.118 323.829 811.386 324.491 811.677C334.163 815.974 340.171 823.589 337.908 828.69L337.914 828.702Z" fill="#705783"/>
<path d="M350.265 709.384L343.015 720.025C344.246 726.437 340.062 741.838 336.859 748.541C333.057 756.492 318.113 745.999 321.914 738.048C325.374 730.809 335.52 717.323 340.427 717.141L347.153 707.263C347.74 706.403 348.908 706.18 349.769 706.767C350.63 707.355 350.852 708.523 350.265 709.384Z" fill="#23152E"/>
<path d="M227.464 699.757C223.03 697.995 221.645 690.7 223.765 682.475C219.074 683.917 214.987 683.495 213.346 680.999C210.975 677.402 214.577 670.836 221.405 666.14C219.245 663.244 218.185 659.739 218.715 656.142C219.695 649.422 225.857 644.577 233.306 644.019C233.454 641.477 234.076 638.633 235.216 635.766C238.379 627.797 244.273 622.662 248.382 624.292C250.599 625.176 251.836 627.86 252.007 631.4C257.644 627.723 263.788 627.182 266.804 630.476C270.332 634.329 268.257 641.984 262.204 647.735C286.012 657.368 328.423 681.854 324.873 691.623C321.116 701.951 267.368 691.897 244.666 683.672C244.444 684.339 244.204 685.006 243.936 685.678C240.026 695.516 232.651 701.82 227.464 699.757Z" fill="#705783"/>
<path d="M347.176 707.372L336.255 700.549C329.9 702.037 314.339 698.463 307.517 695.528C299.418 692.045 309.312 676.696 317.412 680.178C324.781 683.348 338.66 692.952 339.036 697.848L349.171 704.174C350.054 704.727 350.322 705.884 349.769 706.768C349.216 707.651 348.059 707.919 347.176 707.366V707.372Z" fill="#23152E"/>
<path d="M450.375 634.044C454.952 632.699 460.543 637.584 463.946 645.364C466.75 641.34 470.227 639.146 473.054 640.098C477.141 641.471 478.349 648.858 475.876 656.764C479.358 657.71 482.356 659.819 484.163 662.976C487.532 668.87 485.674 676.485 480.151 681.518C481.604 683.609 482.864 686.231 483.736 689.195C486.158 697.42 484.688 705.097 480.447 706.346C478.156 707.018 475.528 705.662 473.214 702.989C471.042 709.355 466.54 713.573 462.134 712.838C456.981 711.977 453.898 704.676 455.112 696.417C430.426 703.519 381.938 710.392 378.712 700.521C375.298 690.079 423.814 664.84 446.756 657.317C446.516 656.655 446.294 655.983 446.089 655.287C443.097 645.13 445.017 635.623 450.369 634.044H450.375Z" fill="#705783"/>
<path d="M351.439 701.876L364.241 700.508C368.327 695.418 382.776 688.636 389.958 686.738C398.479 684.486 400.16 702.668 391.639 704.92C383.882 706.972 367.034 707.969 363.716 704.344L351.832 705.615C350.801 705.723 349.872 704.977 349.763 703.945C349.655 702.913 350.402 701.984 351.433 701.876H351.439Z" fill="#23152E"/>
<path d="M226.934 705.884C222.42 707.417 220.653 714.633 222.351 722.949C217.746 721.267 213.636 721.478 211.87 723.884C209.316 727.355 212.576 734.098 219.154 739.136C216.851 741.918 215.609 745.366 215.951 748.985C216.583 755.745 222.488 760.903 229.898 761.844C229.915 764.392 230.394 767.259 231.385 770.188C234.138 778.31 239.758 783.742 243.942 782.323C246.205 781.559 247.573 778.937 247.926 775.415C253.364 779.376 259.474 780.231 262.654 777.096C266.376 773.426 264.695 765.68 258.949 759.621C283.225 751.225 326.839 728.951 323.795 719.016C320.581 708.511 266.382 715.784 243.286 722.835C243.098 722.157 242.893 721.478 242.665 720.794C239.268 710.769 232.229 704.094 226.94 705.884H226.934Z" fill="#705783"/>
<path d="M346.879 704.435L335.622 710.682C329.347 708.87 313.627 711.64 306.662 714.216C298.397 717.277 307.488 733.117 315.753 730.056C323.277 727.269 337.629 718.394 338.261 713.521L348.709 707.724C349.615 707.223 349.946 706.077 349.438 705.165C348.937 704.259 347.791 703.928 346.879 704.435Z" fill="#23152E"/>
<path d="M371.297 584.627C370.624 579.908 363.853 576.841 355.366 576.978C357.868 572.76 358.416 568.685 356.375 566.502C353.434 563.356 346.207 565.316 340.04 570.851C337.731 568.075 334.568 566.223 330.948 565.886C324.189 565.265 318.027 570.116 315.742 577.229C313.234 576.779 310.327 576.716 307.266 577.155C298.779 578.363 292.401 582.889 293.028 587.26C293.364 589.626 295.69 591.455 299.087 592.447C294.191 597.064 292.224 602.912 294.721 606.617C297.639 610.949 305.562 610.726 312.578 606.189C316.357 631.593 330.219 678.564 340.547 677.402C351.468 676.176 354.295 621.561 351.621 597.566C352.322 597.509 353.029 597.429 353.742 597.326C364.224 595.833 372.078 590.145 371.291 584.616L371.297 584.627Z" fill="#705783"/>
<path d="M350.624 702.789L346.554 690.574C349.49 684.743 349.666 668.784 348.412 661.46C346.925 652.773 329.683 658.787 331.171 667.479C332.522 675.384 338.609 691.127 343.277 692.643L347.05 703.98C347.381 704.966 348.447 705.502 349.433 705.171C350.419 704.841 350.955 703.775 350.624 702.789Z" fill="#23152E"/>
<path d="M446.305 630.174C448.961 626.213 445.98 619.413 439.58 613.833C444.259 612.368 447.394 609.706 447.337 606.72C447.252 602.411 440.571 599.036 432.284 599.031C432.427 595.423 431.315 591.929 428.847 589.261C424.236 584.28 416.416 583.767 409.958 587.523C408.396 585.511 406.276 583.522 403.711 581.8C396.592 577.024 388.824 576.123 386.367 579.788C385.033 581.772 385.54 584.684 387.399 587.7C380.673 587.859 375.298 590.891 374.677 595.314C373.947 600.49 379.989 605.62 388.236 606.942C374.056 628.356 352.949 672.546 361.396 678.588C370.334 684.977 408.966 646.27 423.028 626.64C423.586 627.062 424.162 627.478 424.76 627.883C433.549 633.782 443.199 634.808 446.305 630.168V630.174Z" fill="#705783"/>
<path d="M351.912 704.196L357.059 692.392C363.141 690.021 373.947 678.274 377.914 671.987C382.622 664.532 365.774 657.475 361.072 664.93C356.791 671.713 350.784 687.484 353.24 691.736L348.464 702.691C348.048 703.643 348.487 704.755 349.438 705.171C350.39 705.587 351.502 705.148 351.918 704.196H351.912Z" fill="#23152E"/>
</svg>
