<svg width="359" height="2543" viewBox="0 0 359 2543" fill="none" xmlns="http://www.w3.org/2000/svg">
<path d="M195.417 689.403C140.86 686.293 91.0111 679.677 91.2689 675.031C91.5267 670.386 169.408 671.05 196.366 672.59C259.33 676.176 284.312 678.969 294.175 681.639L283.976 669.018C281.828 672.595 268.46 674.584 178.363 669.449C123.304 666.314 72.9943 659.667 73.2521 655.022C73.5184 650.382 152.106 651.086 179.312 652.636C243.013 656.268 268.194 659.078 278.103 661.756L267.893 649.124C265.774 652.701 252.602 654.699 164.029 649.65C109.88 646.563 60.4104 639.97 60.6749 635.323C60.9412 630.683 138.231 631.31 164.984 632.835C227.343 636.388 252.164 639.169 261.995 641.826L249.836 626.778C247.767 630.355 235.038 632.374 149.842 627.52C97.7211 624.551 50.1031 618.06 50.361 613.415C50.6273 608.774 125.035 609.234 150.791 610.707C210.175 614.089 234.2 616.797 243.867 619.406L233.32 606.358C231.365 609.932 219.488 611.994 140.801 607.505C92.581 604.757 48.5495 598.468 48.8092 593.829C49.0756 589.189 117.928 589.335 141.75 590.692C195.469 593.755 217.902 596.31 227.226 598.82L215.879 584.782C215.053 588.802 208.264 591.538 135.391 587.385C93.6014 585.002 55.4635 579.055 55.7214 574.409C55.9792 569.764 115.689 569.395 136.339 570.571C182.992 573.231 202.408 575.62 210.444 578.065L202.489 568.224C201.046 571.418 192.784 572.934 131.724 565.408C95.1121 560.896 61.9248 553.449 62.4227 549.383C62.9207 545.318 115.445 548.447 133.532 550.675C171.519 555.357 188.827 558.476 196.638 560.991L184.656 546.167C183.245 549.374 174.931 551.012 113.862 544.537C77.1795 540.647 43.8715 533.773 44.3021 529.697C44.7327 525.621 97.3023 527.855 115.426 529.778C153.875 533.851 171.206 536.691 178.942 539.091L170.121 528.176C168.474 531.204 160.882 532.16 109.75 521.629C78.7903 515.25 51.0477 506.145 51.8692 502.133C52.6906 498.121 97.4393 503.945 112.732 507.093C140.905 512.897 155.556 516.676 163.088 519.478L159.357 514.865C157.021 517.712 151.954 517.685 105.707 485.943C79.6395 468.051 57.5975 448.895 59.9151 445.515C62.2328 442.135 101.214 464.863 114.101 473.707C122.314 479.341 129.111 484.12 134.751 488.195C129.809 481.701 123.64 473.222 115.871 462.193C97.6646 436.342 83.6723 410.704 87.0201 408.344C90.3678 405.984 119.004 440.874 127.998 453.651C137.572 467.249 144.315 477.249 148.992 484.671C146.714 478.599 144.131 471.456 141.173 463.038C135.995 448.295 124.21 404.719 128.081 403.362C131.945 402.007 144.695 428.285 155.168 458.118C161.083 474.968 164.987 486.942 167.447 495.498C167.306 488.156 167.267 479.221 167.354 468.312C167.479 452.69 171.153 407.7 175.247 407.738C179.339 407.77 182.431 436.814 182.186 468.437C181.777 520.389 179.284 527.809 176 528.852L185.75 540.916C184.545 533.231 184.48 515.918 186.687 476.669C187.707 458.616 193.953 406.8 198.043 407.033C202.134 407.266 203.56 440.973 201.502 477.509C197.769 543.747 194.6 547.192 190.814 547.175L203.012 562.262C201.905 554.256 201.9 536.825 204.052 498.698C205.073 480.644 211.318 428.828 215.409 429.062C219.5 429.295 220.925 463.002 218.868 499.538C215.276 563.216 212.21 568.858 208.612 569.184L215.376 577.555C214.911 569.823 216.533 552.592 222.598 513.642C225.377 495.774 236.672 444.822 240.716 445.456C244.767 446.088 242.879 479.777 237.257 515.933C227.916 575.969 224.201 583.637 220.746 584.196L233.338 599.769C232.565 592.424 234.157 574.154 241.372 527.783C244.42 508.196 256.48 452.286 260.531 452.918C264.582 453.55 262.198 490.435 256.029 530.067C244.909 601.533 241.343 605.354 237.592 605.026L250.003 620.385C249.181 612.737 250.959 592.814 259.205 539.831C262.591 518.082 275.624 455.942 279.667 456.569C283.718 457.201 280.707 498.102 273.862 542.115C261.512 621.491 257.871 625.763 254.114 625.466L268.155 642.841C267.308 634.999 269.208 613.994 278.153 556.48C281.762 533.262 295.454 466.889 299.505 467.521C303.556 468.153 300.122 511.785 292.812 558.771C279.624 643.52 275.933 648.101 272.175 647.825L284.2 662.702C283.364 654.951 285.206 634.436 293.838 578.969C297.346 556.418 310.738 491.959 314.789 492.591C318.84 493.223 315.599 535.617 308.497 581.26C295.688 663.577 292.023 668.022 288.268 667.731L300.248 682.549C299.425 674.894 301.206 654.934 309.471 601.81C312.859 580.017 325.919 517.74 329.961 518.368C334.012 519 330.991 559.989 324.128 604.094C311.747 683.643 308.108 687.922 304.351 687.625L316.222 702.308C315.437 694.894 317.067 676.247 324.523 628.367C327.65 608.291 339.931 550.955 343.975 551.589C348.026 552.221 345.502 590.021 339.18 630.65C327.779 703.918 324.199 707.843 320.443 707.524L331.561 721.282C331.084 714.587 333.547 697.876 343.275 654.762C347.323 636.807 362.237 585.817 366.227 586.718C370.224 587.623 365.94 621.699 357.741 658.033C343.031 723.225 339.248 726.783 335.55 726.232L349.752 743.799C349.345 737.486 351.674 722.436 360.468 685.326C364.229 669.439 378.304 624.434 382.291 625.378C386.279 626.322 382.516 656.598 374.899 688.756C361.244 746.389 357.533 749.482 353.846 748.87L361.713 758.6C361.544 752.782 364.965 738.354 377.58 700.482C382.742 684.988 400.76 641.413 404.646 642.716C408.53 644.012 402.099 673.831 391.654 705.183C373.086 760.893 369.027 764.076 365.435 763.208L370.348 769.287L411.803 812.493C412.374 813.203 408.824 818.369 407.934 819.091C407.044 819.812 403.185 824.102 402.608 823.394L367.294 772.111L358.255 760.926C357.935 764.806 350.439 769.462 295.136 783.015C261.31 791.305 229.373 795.242 228.268 790.725C227.162 786.208 274.415 770.751 291.123 766.656C332.132 756.612 347.564 754.38 353.659 755.24L346.459 746.33C345.848 750.248 338.997 753.583 280.321 757.104C245.559 759.192 213.435 757.345 213.154 752.698C212.875 748.059 262.131 741.321 279.311 740.29C317.919 737.972 334.238 738.257 341.194 739.811L331.633 727.989C329.865 731.59 318.882 734.028 248.056 732.335C204.393 731.292 164.412 726.561 164.525 721.913C164.639 717.264 226.882 714.984 248.461 715.5C296.444 716.648 316.896 718.376 325.595 720.522L316.164 708.858C314.209 712.431 302.317 714.49 223.514 709.998C175.229 707.247 131.132 700.954 131.398 696.313C131.664 691.673 200.611 691.821 224.47 693.182C278.282 696.248 300.746 698.809 310.07 701.32L300.056 688.927C297.923 692.508 284.664 694.502 195.406 689.414L195.417 689.403ZM168.627 517.671C168.516 517.709 168.406 517.754 168.295 517.792C167.974 517.903 167.66 518.012 167.338 518.094L168.936 520.069C168.832 519.337 168.726 518.541 168.629 517.678L168.627 517.671Z" fill="#705783"/>
<path d="M237.445 459.359C297.452 506.242 376.309 484.524 376.309 484.524C376.309 484.524 377.896 403.289 317.886 356.401C279.278 326.239 224.586 317.642 190.485 315.347C171.578 314.074 120.855 276.499 116.761 281.735C112.869 286.715 161.33 327.071 167.015 345.067C177.343 377.746 198.747 429.124 237.445 459.359Z" fill="#23152E"/>
<path d="M118.307 283.002C195.835 344.209 280.407 413.92 359.526 472.4C365.047 476.398 370.523 480.46 376.09 484.409L376.343 484.087C371.166 479.641 365.9 475.313 360.68 470.922C324.048 440.478 286.232 411.048 248.333 382.251C216.04 357.875 150.541 306.103 118.307 283.002Z" fill="#705783"/>
<path d="M140.584 234.058C185.218 217.567 223.094 223.594 237.361 227.608C232.991 225.074 225.985 220.282 221.559 220.09C204.184 219.348 175.209 212.015 161.765 197.76C146.675 181.76 120.032 143.604 121.363 122.961C122.249 109.217 195.581 113.355 221.992 132.49C254.192 155.823 247.744 195.153 241.022 212.899C239.416 217.142 240.274 221.888 240.901 225.154C241.657 224.267 242.368 223.452 243.043 222.718C245.929 206.145 259.331 163.627 271.133 123.714C277.244 103.044 312.569 75.9453 316.613 77.9056C320.658 79.8659 324.039 120.47 308.895 142.018C285.614 175.16 260.777 211.656 249.241 224.825C249.086 225.941 248.875 227.188 248.622 228.544C251.551 227.011 255.559 224.777 257.801 221.035C267.544 204.761 294.385 175.311 332.646 186.132C364.027 195.008 412.729 250.025 402.504 259.246C387.145 273.087 340.721 275.823 318.811 273.894C299.295 272.176 275.581 253.966 264.231 240.782C261.34 237.428 253.239 234.895 248.542 233.037C260.54 241.751 288.748 267.758 303.483 313.033C311.912 338.934 297.619 378.284 294.576 378.127C292.024 377.994 288.487 350.491 269.162 331.655C254.534 317.399 255.208 268.192 246.365 238.973C244.231 247.899 241.172 259.099 237.553 271.44C243.905 275.273 249.13 282.986 246.556 302.136C244.159 320.031 231.565 333.096 218.436 331.316C218.191 331.28 217.955 331.243 217.728 331.195C210.421 329.654 208.835 320.408 200.477 316.351C192.747 312.601 184.969 316.238 179.267 312.975C178.608 312.604 177.977 312.138 177.382 311.56C167.866 302.326 170.344 284.345 182.917 271.396C197.742 256.127 207.462 256.833 214.564 260.292C222.11 249.618 229.096 240.052 234.791 232.731C206.328 243.652 167.684 275.245 147.261 272.576C120.512 269.076 96.7525 283.349 95.0677 281.426C93.0577 279.136 115.049 243.513 140.577 234.078L140.584 234.058Z" fill="#705783"/>
<path d="M141.505 752.459C141.463 752.471 125.281 753.91 128.194 763.611C130.718 772.014 149.344 782.957 149.35 782.958C170.969 792.053 188.612 813.938 206.244 823.022C239.474 845.304 257.572 839.424 280.799 864.069C371.229 947.29 411.397 905.262 349.881 881.938C314.5 869.227 283.193 822.359 240.559 812.477C213.998 805.849 165.691 754.405 141.499 752.459L141.505 752.459ZM347.847 881.662C347.847 881.662 347.83 881.66 347.819 881.659C347.83 881.66 347.836 881.661 347.847 881.662ZM347.876 881.666C347.876 881.666 347.859 881.664 347.853 881.663C347.859 881.664 347.87 881.665 347.876 881.666ZM347.893 881.668C347.893 881.668 347.893 881.668 347.887 881.667C347.887 881.667 347.887 881.667 347.893 881.668Z" fill="#705783"/>
<path d="M319.129 880.272C322.066 880.653 324.139 883.344 323.757 886.282C323.376 889.219 320.685 891.291 317.747 890.91C314.81 890.528 312.738 887.837 313.119 884.9C313.501 881.963 316.192 879.89 319.129 880.272Z" fill="#504558"/>
<path d="M218.147 800.457C221.672 800.914 224.158 804.142 223.7 807.667C223.242 811.191 220.014 813.677 216.49 813.219C212.965 812.762 210.479 809.534 210.937 806.009C211.395 802.485 214.623 799.999 218.147 800.457Z" fill="#504558"/>
<path d="M344.532 902.563C353.732 914.482 349.894 932.862 335.961 943.615C322.028 954.368 303.276 953.423 294.077 941.504C284.878 929.584 288.716 911.205 302.648 900.452C316.581 889.699 335.333 890.644 344.532 902.563Z" fill="#23152E"/>
<path d="M293.055 869.602C302.254 881.522 298.417 899.901 284.484 910.654C270.551 921.407 251.799 920.462 242.6 908.543C233.401 896.623 237.238 878.244 251.171 867.491C265.104 856.738 283.856 857.683 293.055 869.602Z" fill="#23152E"/>
<path d="M246.183 830.006C257.743 839.651 257.975 858.426 246.7 871.94C235.425 885.454 216.913 888.589 205.352 878.944C193.791 869.298 193.559 850.523 204.834 837.01C216.11 823.496 234.622 820.36 246.183 830.006Z" fill="#23152E"/>
<path d="M207.97 814.503C210.644 829.32 198.772 843.865 181.452 846.991C164.132 850.117 147.923 840.64 145.249 825.823C142.575 811.006 154.448 796.46 171.768 793.334C189.088 790.208 205.296 799.686 207.97 814.503Z" fill="#23152E"/>
<path d="M155.155 775.747C158.38 790.453 147.059 805.432 129.868 809.202C112.676 812.973 96.1254 804.107 92.8999 789.4C89.6744 774.694 100.996 759.715 118.187 755.945C135.378 752.174 151.929 761.04 155.155 775.747Z" fill="#23152E"/>
<path d="M400.66 861.523C401.783 879.086 390.514 894.104 375.488 895.065C360.462 896.026 347.371 882.567 346.247 865.003C345.124 847.439 356.394 832.422 371.419 831.461C386.445 830.5 399.536 843.959 400.66 861.523Z" fill="#23152E"/>
<path d="M341.356 843.571C344.482 860.891 335.004 877.1 320.187 879.774C305.37 882.448 290.825 870.575 287.699 853.255C284.573 835.935 294.051 819.727 308.868 817.053C323.684 814.379 338.23 826.251 341.356 843.571Z" fill="#23152E"/>
<path d="M292.209 802.357C295.335 819.677 285.858 835.885 271.041 838.559C256.224 841.233 241.678 829.36 238.552 812.04C235.427 794.72 244.904 778.512 259.721 775.838C274.538 773.164 289.083 785.037 292.209 802.357Z" fill="#23152E"/>
<path d="M213.842 751.755C216.968 769.075 207.49 785.283 192.673 787.957C177.856 790.632 163.311 778.759 160.185 761.439C157.059 744.119 166.537 727.91 181.354 725.236C196.171 722.562 210.716 734.435 213.842 751.755Z" fill="#23152E"/>
<path d="M195.417 1475.4C140.86 1472.29 91.0111 1465.68 91.2689 1461.03C91.5267 1456.39 169.408 1457.05 196.366 1458.59C259.33 1462.18 284.312 1464.97 294.175 1467.64L283.976 1455.02C281.828 1458.6 268.46 1460.58 178.363 1455.45C123.304 1452.31 72.9943 1445.67 73.2521 1441.02C73.5184 1436.38 152.106 1437.09 179.312 1438.64C243.013 1442.27 268.194 1445.08 278.103 1447.76L267.893 1435.12C265.774 1438.7 252.602 1440.7 164.029 1435.65C109.88 1432.56 60.4104 1425.97 60.6749 1421.32C60.9412 1416.68 138.231 1417.31 164.984 1418.84C227.343 1422.39 252.164 1425.17 261.995 1427.83L249.836 1412.78C247.767 1416.35 235.038 1418.37 149.842 1413.52C97.7211 1410.55 50.1031 1404.06 50.361 1399.41C50.6273 1394.77 125.035 1395.23 150.791 1396.71C210.175 1400.09 234.2 1402.8 243.867 1405.41L233.32 1392.36C231.365 1395.93 219.488 1397.99 140.801 1393.5C92.581 1390.76 48.5495 1384.47 48.8092 1379.83C49.0756 1375.19 117.928 1375.33 141.75 1376.69C195.469 1379.75 217.902 1382.31 227.226 1384.82L215.879 1370.78C215.053 1374.8 208.264 1377.54 135.391 1373.38C93.6014 1371 55.4635 1365.05 55.7214 1360.41C55.9792 1355.76 115.689 1355.39 136.339 1356.57C182.992 1359.23 202.408 1361.62 210.444 1364.07L202.489 1354.22C201.046 1357.42 192.784 1358.93 131.724 1351.41C95.1121 1346.9 61.9248 1339.45 62.4227 1335.38C62.9207 1331.32 115.445 1334.45 133.532 1336.67C171.519 1341.36 188.827 1344.48 196.638 1346.99L184.656 1332.17C183.245 1335.37 174.931 1337.01 113.862 1330.54C77.1795 1326.65 43.8715 1319.77 44.3021 1315.7C44.7327 1311.62 97.3023 1313.86 115.426 1315.78C153.875 1319.85 171.206 1322.69 178.942 1325.09L170.121 1314.18C168.474 1317.2 160.882 1318.16 109.75 1307.63C78.7903 1301.25 51.0477 1292.14 51.8692 1288.13C52.6906 1284.12 97.4393 1289.94 112.732 1293.09C140.905 1298.9 155.556 1302.68 163.088 1305.48L159.357 1300.86C157.021 1303.71 151.954 1303.69 105.707 1271.94C79.6395 1254.05 57.5975 1234.9 59.9151 1231.52C62.2328 1228.13 101.214 1250.86 114.101 1259.71C122.314 1265.34 129.111 1270.12 134.751 1274.19C129.809 1267.7 123.64 1259.22 115.871 1248.19C97.6646 1222.34 83.6723 1196.7 87.0201 1194.34C90.3678 1191.98 119.004 1226.87 127.998 1239.65C137.572 1253.25 144.315 1263.25 148.992 1270.67C146.714 1264.6 144.131 1257.46 141.173 1249.04C135.995 1234.3 124.21 1190.72 128.081 1189.36C131.945 1188.01 144.695 1214.29 155.168 1244.12C161.083 1260.97 164.987 1272.94 167.447 1281.5C167.306 1274.16 167.267 1265.22 167.354 1254.31C167.479 1238.69 171.153 1193.7 175.247 1193.74C179.339 1193.77 182.431 1222.81 182.186 1254.44C181.777 1306.39 179.284 1313.81 176 1314.85L185.75 1326.92C184.545 1319.23 184.48 1301.92 186.687 1262.67C187.707 1244.62 193.953 1192.8 198.043 1193.03C202.134 1193.27 203.56 1226.97 201.502 1263.51C197.769 1329.75 194.6 1333.19 190.814 1333.18L203.012 1348.26C201.905 1340.26 201.9 1322.83 204.052 1284.7C205.073 1266.64 211.318 1214.83 215.409 1215.06C219.5 1215.29 220.925 1249 218.868 1285.54C215.276 1349.22 212.21 1354.86 208.612 1355.18L215.376 1363.56C214.911 1355.82 216.533 1338.59 222.598 1299.64C225.377 1281.77 236.672 1230.82 240.716 1231.46C244.767 1232.09 242.879 1265.78 237.257 1301.93C227.916 1361.97 224.201 1369.64 220.746 1370.2L233.338 1385.77C232.565 1378.42 234.157 1360.15 241.372 1313.78C244.42 1294.2 256.48 1238.29 260.531 1238.92C264.582 1239.55 262.198 1276.43 256.029 1316.07C244.909 1387.53 241.343 1391.35 237.592 1391.03L250.003 1406.38C249.181 1398.74 250.959 1378.81 259.205 1325.83C262.591 1304.08 275.624 1241.94 279.667 1242.57C283.718 1243.2 280.707 1284.1 273.862 1328.12C261.512 1407.49 257.871 1411.76 254.114 1411.47L268.155 1428.84C267.308 1421 269.208 1399.99 278.153 1342.48C281.762 1319.26 295.454 1252.89 299.505 1253.52C303.556 1254.15 300.122 1297.78 292.812 1344.77C279.624 1429.52 275.933 1434.1 272.175 1433.83L284.2 1448.7C283.364 1440.95 285.206 1420.44 293.838 1364.97C297.346 1342.42 310.738 1277.96 314.789 1278.59C318.84 1279.22 315.599 1321.62 308.497 1367.26C295.688 1449.58 292.023 1454.02 288.268 1453.73L300.248 1468.55C299.425 1460.89 301.206 1440.93 309.471 1387.81C312.859 1366.02 325.919 1303.74 329.961 1304.37C334.012 1305 330.991 1345.99 324.128 1390.09C311.747 1469.64 308.108 1473.92 304.351 1473.62L316.222 1488.31C315.437 1480.89 317.067 1462.25 324.523 1414.37C327.65 1394.29 339.931 1336.95 343.975 1337.59C348.026 1338.22 345.502 1376.02 339.18 1416.65C327.779 1489.92 324.199 1493.84 320.443 1493.52L331.561 1507.28C331.084 1500.59 333.547 1483.88 343.275 1440.76C347.323 1422.81 362.237 1371.82 366.227 1372.72C370.224 1373.62 365.94 1407.7 357.741 1444.03C343.031 1509.22 339.248 1512.78 335.55 1512.23L349.752 1529.8C349.345 1523.49 351.674 1508.44 360.468 1471.33C364.229 1455.44 378.304 1410.43 382.291 1411.38C386.279 1412.32 382.516 1442.6 374.899 1474.76C361.244 1532.39 357.533 1535.48 353.846 1534.87L361.713 1544.6C361.544 1538.78 364.965 1524.35 377.58 1486.48C382.742 1470.99 400.76 1427.41 404.646 1428.72C408.53 1430.01 402.099 1459.83 391.654 1491.18C373.086 1546.89 369.027 1550.08 365.435 1549.21L370.348 1555.29L411.803 1598.49C412.374 1599.2 408.824 1604.37 407.934 1605.09C407.044 1605.81 403.185 1610.1 402.608 1609.39L367.294 1558.11L358.255 1546.93C357.935 1550.81 350.439 1555.46 295.136 1569.02C261.31 1577.31 229.373 1581.24 228.268 1576.73C227.162 1572.21 274.415 1556.75 291.123 1552.66C332.132 1542.61 347.564 1540.38 353.659 1541.24L346.459 1532.33C345.848 1536.25 338.997 1539.58 280.321 1543.1C245.559 1545.19 213.435 1543.34 213.154 1538.7C212.875 1534.06 262.131 1527.32 279.311 1526.29C317.919 1523.97 334.238 1524.26 341.194 1525.81L331.633 1513.99C329.865 1517.59 318.882 1520.03 248.056 1518.33C204.393 1517.29 164.412 1512.56 164.525 1507.91C164.639 1503.26 226.882 1500.98 248.461 1501.5C296.444 1502.65 316.896 1504.38 325.595 1506.52L316.164 1494.86C314.209 1498.43 302.317 1500.49 223.514 1496C175.229 1493.25 131.132 1486.95 131.398 1482.31C131.664 1477.67 200.611 1477.82 224.47 1479.18C278.282 1482.25 300.746 1484.81 310.07 1487.32L300.056 1474.93C297.923 1478.51 284.664 1480.5 195.406 1475.41L195.417 1475.4ZM168.627 1303.67C168.516 1303.71 168.406 1303.75 168.295 1303.79C167.974 1303.9 167.66 1304.01 167.338 1304.09L168.936 1306.07C168.832 1305.34 168.726 1304.54 168.629 1303.68L168.627 1303.67Z" fill="#705783"/>
<path d="M237.445 1245.36C297.452 1292.24 376.309 1270.52 376.309 1270.52C376.309 1270.52 377.896 1189.29 317.886 1142.4C279.278 1112.24 224.586 1103.64 190.485 1101.35C171.578 1100.07 120.855 1062.5 116.761 1067.73C112.869 1072.72 161.33 1113.07 167.015 1131.07C177.343 1163.75 198.747 1215.12 237.445 1245.36Z" fill="#23152E"/>
<path d="M140.584 1020.06C185.218 1003.57 223.094 1009.59 237.361 1013.61C232.991 1011.07 225.985 1006.28 221.559 1006.09C204.184 1005.35 175.209 998.015 161.765 983.76C146.675 967.76 120.032 929.604 121.363 908.961C122.249 895.217 195.581 899.355 221.992 918.49C254.192 941.823 247.744 981.153 241.022 998.899C239.416 1003.14 240.274 1007.89 240.901 1011.15C241.657 1010.27 242.368 1009.45 243.043 1008.72C245.929 992.145 259.331 949.627 271.133 909.714C277.244 889.044 312.569 861.945 316.613 863.906C320.658 865.866 324.039 906.47 308.895 928.018C285.614 961.16 260.777 997.656 249.241 1010.82C249.086 1011.94 248.875 1013.19 248.622 1014.54C251.551 1013.01 255.559 1010.78 257.801 1007.04C267.544 990.761 294.385 961.311 332.646 972.132C364.027 981.008 412.729 1036.03 402.504 1045.25C387.145 1059.09 340.721 1061.82 318.811 1059.89C299.295 1058.18 275.581 1039.97 264.231 1026.78C261.34 1023.43 253.239 1020.9 248.542 1019.04C260.54 1027.75 288.748 1053.76 303.483 1099.03C311.912 1124.93 297.619 1164.28 294.576 1164.13C292.024 1163.99 288.487 1136.49 269.162 1117.66C254.534 1103.4 255.208 1054.19 246.365 1024.97C244.231 1033.9 241.172 1045.1 237.553 1057.44C243.905 1061.27 249.13 1068.99 246.556 1088.14C244.159 1106.03 231.565 1119.1 218.436 1117.32C218.191 1117.28 217.955 1117.24 217.728 1117.2C210.421 1115.65 208.835 1106.41 200.477 1102.35C192.747 1098.6 184.969 1102.24 179.267 1098.98C178.608 1098.6 177.977 1098.14 177.382 1097.56C167.866 1088.33 170.344 1070.34 182.917 1057.4C197.742 1042.13 207.462 1042.83 214.564 1046.29C222.11 1035.62 229.096 1026.05 234.791 1018.73C206.328 1029.65 167.684 1061.25 147.261 1058.58C120.512 1055.08 96.7525 1069.35 95.0677 1067.43C93.0577 1065.14 115.049 1029.51 140.577 1020.08L140.584 1020.06Z" fill="#705783"/>
<path d="M141.505 1538.46C141.463 1538.47 125.281 1539.91 128.194 1549.61C130.718 1558.01 149.344 1568.96 149.35 1568.96C170.969 1578.05 188.612 1599.94 206.244 1609.02C239.474 1631.3 257.572 1625.42 280.799 1650.07C371.229 1733.29 411.397 1691.26 349.881 1667.94C314.5 1655.23 283.193 1608.36 240.559 1598.48C213.998 1591.85 165.691 1540.4 141.499 1538.46L141.505 1538.46ZM347.847 1667.66C347.847 1667.66 347.83 1667.66 347.819 1667.66C347.83 1667.66 347.836 1667.66 347.847 1667.66ZM347.876 1667.67C347.876 1667.67 347.859 1667.66 347.853 1667.66C347.859 1667.66 347.87 1667.67 347.876 1667.67ZM347.893 1667.67C347.893 1667.67 347.893 1667.67 347.887 1667.67C347.887 1667.67 347.887 1667.67 347.893 1667.67Z" fill="#705783"/>
<path d="M319.129 1666.27C322.066 1666.65 324.139 1669.34 323.757 1672.28C323.376 1675.22 320.685 1677.29 317.747 1676.91C314.81 1676.53 312.738 1673.84 313.119 1670.9C313.501 1667.96 316.192 1665.89 319.129 1666.27Z" fill="#504558"/>
<path d="M218.147 1586.46C221.672 1586.91 224.158 1590.14 223.7 1593.67C223.242 1597.19 220.014 1599.68 216.49 1599.22C212.965 1598.76 210.479 1595.53 210.937 1592.01C211.395 1588.48 214.623 1586 218.147 1586.46Z" fill="#504558"/>
<path d="M344.532 1688.56C353.732 1700.48 349.894 1718.86 335.961 1729.62C322.028 1740.37 303.276 1739.42 294.077 1727.5C284.878 1715.58 288.716 1697.2 302.648 1686.45C316.581 1675.7 335.333 1676.64 344.532 1688.56Z" fill="#23152E"/>
<path d="M293.055 1655.6C302.254 1667.52 298.417 1685.9 284.484 1696.65C270.551 1707.41 251.799 1706.46 242.6 1694.54C233.401 1682.62 237.238 1664.24 251.171 1653.49C265.104 1642.74 283.856 1643.68 293.055 1655.6Z" fill="#23152E"/>
<path d="M246.183 1616.01C257.743 1625.65 257.975 1644.43 246.7 1657.94C235.425 1671.45 216.913 1674.59 205.352 1664.94C193.791 1655.3 193.559 1636.52 204.834 1623.01C216.11 1609.5 234.622 1606.36 246.183 1616.01Z" fill="#23152E"/>
<path d="M207.97 1600.5C210.644 1615.32 198.772 1629.87 181.452 1632.99C164.132 1636.12 147.923 1626.64 145.249 1611.82C142.575 1597.01 154.448 1582.46 171.768 1579.33C189.088 1576.21 205.296 1585.69 207.97 1600.5Z" fill="#23152E"/>
<path d="M155.155 1561.75C158.38 1576.45 147.059 1591.43 129.868 1595.2C112.676 1598.97 96.1254 1590.11 92.8999 1575.4C89.6744 1560.69 100.996 1545.71 118.187 1541.94C135.378 1538.17 151.929 1547.04 155.155 1561.75Z" fill="#23152E"/>
<path d="M400.66 1647.52C401.783 1665.09 390.514 1680.1 375.488 1681.07C360.462 1682.03 347.371 1668.57 346.247 1651C345.124 1633.44 356.394 1618.42 371.419 1617.46C386.445 1616.5 399.536 1629.96 400.66 1647.52Z" fill="#23152E"/>
<path d="M341.356 1629.57C344.482 1646.89 335.004 1663.1 320.187 1665.77C305.37 1668.45 290.825 1656.58 287.699 1639.26C284.573 1621.94 294.051 1605.73 308.868 1603.05C323.684 1600.38 338.23 1612.25 341.356 1629.57Z" fill="#23152E"/>
<path d="M292.209 1588.36C295.335 1605.68 285.858 1621.88 271.041 1624.56C256.224 1627.23 241.678 1615.36 238.552 1598.04C235.427 1580.72 244.904 1564.51 259.721 1561.84C274.538 1559.16 289.083 1571.04 292.209 1588.36Z" fill="#23152E"/>
<path d="M213.842 1537.75C216.968 1555.07 207.49 1571.28 192.673 1573.96C177.856 1576.63 163.311 1564.76 160.185 1547.44C157.059 1530.12 166.537 1513.91 181.354 1511.24C196.171 1508.56 210.716 1520.44 213.842 1537.75Z" fill="#23152E"/>
<path d="M195.417 2258.4C140.86 2255.29 91.0111 2248.67 91.2689 2244.03C91.5267 2239.38 169.408 2240.05 196.366 2241.59C259.33 2245.17 284.312 2247.97 294.175 2250.64L283.976 2238.02C281.828 2241.59 268.46 2243.58 178.363 2238.45C123.304 2235.31 72.9943 2228.67 73.2521 2224.02C73.5184 2219.38 152.106 2220.08 179.312 2221.63C243.013 2225.27 268.194 2228.08 278.103 2230.75L267.893 2218.12C265.774 2221.7 252.602 2223.7 164.029 2218.65C109.88 2215.56 60.4104 2208.97 60.6749 2204.32C60.9412 2199.68 138.231 2200.31 164.984 2201.83C227.343 2205.39 252.164 2208.17 261.995 2210.82L249.836 2195.78C247.767 2199.35 235.038 2201.37 149.842 2196.52C97.7211 2193.55 50.1031 2187.06 50.361 2182.41C50.6273 2177.77 125.035 2178.23 150.791 2179.7C210.175 2183.09 234.2 2185.8 243.867 2188.4L233.32 2175.36C231.365 2178.93 219.488 2180.99 140.801 2176.5C92.581 2173.76 48.5495 2167.47 48.8092 2162.83C49.0756 2158.19 117.928 2158.33 141.75 2159.69C195.469 2162.75 217.902 2165.31 227.226 2167.82L215.879 2153.78C215.053 2157.8 208.264 2160.54 135.391 2156.38C93.6014 2154 55.4635 2148.05 55.7214 2143.41C55.9792 2138.76 115.689 2138.39 136.339 2139.57C182.992 2142.23 202.408 2144.62 210.444 2147.06L202.489 2137.22C201.046 2140.42 192.784 2141.93 131.724 2134.41C95.1121 2129.89 61.9248 2122.45 62.4227 2118.38C62.9207 2114.32 115.445 2117.45 133.532 2119.67C171.519 2124.36 188.827 2127.47 196.638 2129.99L184.656 2115.17C183.245 2118.37 174.931 2120.01 113.862 2113.53C77.1795 2109.65 43.8715 2102.77 44.3021 2098.7C44.7327 2094.62 97.3023 2096.85 115.426 2098.78C153.875 2102.85 171.206 2105.69 178.942 2108.09L170.121 2097.17C168.474 2100.2 160.882 2101.16 109.75 2090.63C78.7903 2084.25 51.0477 2075.14 51.8692 2071.13C52.6906 2067.12 97.4393 2072.94 112.732 2076.09C140.905 2081.9 155.556 2085.67 163.088 2088.48L159.357 2083.86C157.021 2086.71 151.954 2086.68 105.707 2054.94C79.6395 2037.05 57.5975 2017.89 59.9151 2014.51C62.2328 2011.13 101.214 2033.86 114.101 2042.7C122.314 2048.34 129.111 2053.12 134.751 2057.19C129.809 2050.7 123.64 2042.22 115.871 2031.19C97.6646 2005.34 83.6723 1979.7 87.0201 1977.34C90.3678 1974.98 119.004 2009.87 127.998 2022.65C137.572 2036.25 144.315 2046.25 148.992 2053.67C146.714 2047.6 144.131 2040.45 141.173 2032.04C135.995 2017.29 124.21 1973.72 128.081 1972.36C131.945 1971.01 144.695 1997.28 155.168 2027.12C161.083 2043.97 164.987 2055.94 167.447 2064.5C167.306 2057.15 167.267 2048.22 167.354 2037.31C167.479 2021.69 171.153 1976.7 175.247 1976.74C179.339 1976.77 182.431 2005.81 182.186 2037.43C181.777 2089.39 179.284 2096.81 176 2097.85L185.75 2109.91C184.545 2102.23 184.48 2084.92 186.687 2045.67C187.707 2027.61 193.953 1975.8 198.043 1976.03C202.134 1976.26 203.56 2009.97 201.502 2046.51C197.769 2112.75 194.6 2116.19 190.814 2116.17L203.012 2131.26C201.905 2123.25 201.9 2105.82 204.052 2067.7C205.073 2049.64 211.318 1997.83 215.409 1998.06C219.5 1998.29 220.925 2032 218.868 2068.54C215.276 2132.21 212.21 2137.86 208.612 2138.18L215.376 2146.55C214.911 2138.82 216.533 2121.59 222.598 2082.64C225.377 2064.77 236.672 2013.82 240.716 2014.45C244.767 2015.09 242.879 2048.77 237.257 2084.93C227.916 2144.97 224.201 2152.63 220.746 2153.19L233.338 2168.77C232.565 2161.42 234.157 2143.15 241.372 2096.78C244.42 2077.19 256.48 2021.28 260.531 2021.92C264.582 2022.55 262.198 2059.43 256.029 2099.07C244.909 2170.53 241.343 2174.35 237.592 2174.02L250.003 2189.38C249.181 2181.74 250.959 2161.81 259.205 2108.83C262.591 2087.08 275.624 2024.94 279.667 2025.57C283.718 2026.2 280.707 2067.1 273.862 2111.11C261.512 2190.49 257.871 2194.76 254.114 2194.46L268.155 2211.84C267.308 2204 269.208 2182.99 278.153 2125.48C281.762 2102.26 295.454 2035.89 299.505 2036.52C303.556 2037.15 300.122 2080.78 292.812 2127.77C279.624 2212.52 275.933 2217.1 272.175 2216.82L284.2 2231.7C283.364 2223.95 285.206 2203.43 293.838 2147.97C297.346 2125.42 310.738 2060.96 314.789 2061.59C318.84 2062.22 315.599 2104.61 308.497 2150.26C295.688 2232.58 292.023 2237.02 288.268 2236.73L300.248 2251.55C299.425 2243.89 301.206 2223.93 309.471 2170.81C312.859 2149.02 325.919 2086.74 329.961 2087.37C334.012 2088 330.991 2128.99 324.128 2173.09C311.747 2252.64 308.108 2256.92 304.351 2256.62L316.222 2271.31C315.437 2263.89 317.067 2245.25 324.523 2197.36C327.65 2177.29 339.931 2119.95 343.975 2120.59C348.026 2121.22 345.502 2159.02 339.18 2199.65C327.779 2272.92 324.199 2276.84 320.443 2276.52L331.561 2290.28C331.084 2283.58 333.547 2266.87 343.275 2223.76C347.323 2205.81 362.237 2154.82 366.227 2155.72C370.224 2156.62 365.94 2190.7 357.741 2227.03C343.031 2292.22 339.248 2295.78 335.55 2295.23L349.752 2312.8C349.345 2306.48 351.674 2291.43 360.468 2254.32C364.229 2238.44 378.304 2193.43 382.291 2194.38C386.279 2195.32 382.516 2225.6 374.899 2257.75C361.244 2315.39 357.533 2318.48 353.846 2317.87L361.713 2327.6C361.544 2321.78 364.965 2307.35 377.58 2269.48C382.742 2253.99 400.76 2210.41 404.646 2211.71C408.53 2213.01 402.099 2242.83 391.654 2274.18C373.086 2329.89 369.027 2333.07 365.435 2332.21L370.348 2338.29L411.803 2381.49C412.374 2382.2 408.824 2387.37 407.934 2388.09C407.044 2388.81 403.185 2393.1 402.608 2392.39L367.294 2341.11L358.255 2329.92C357.935 2333.8 350.439 2338.46 295.136 2352.01C261.31 2360.3 229.373 2364.24 228.268 2359.72C227.162 2355.21 274.415 2339.75 291.123 2335.65C332.132 2325.61 347.564 2323.38 353.659 2324.24L346.459 2315.33C345.848 2319.25 338.997 2322.58 280.321 2326.1C245.559 2328.19 213.435 2326.34 213.154 2321.7C212.875 2317.06 262.131 2310.32 279.311 2309.29C317.919 2306.97 334.238 2307.25 341.194 2308.81L331.633 2296.99C329.865 2300.59 318.882 2303.03 248.056 2301.33C204.393 2300.29 164.412 2295.56 164.525 2290.91C164.639 2286.26 226.882 2283.98 248.461 2284.5C296.444 2285.65 316.896 2287.37 325.595 2289.52L316.164 2277.86C314.209 2281.43 302.317 2283.49 223.514 2279C175.229 2276.24 131.132 2269.95 131.398 2265.31C131.664 2260.67 200.611 2260.82 224.47 2262.18C278.282 2265.25 300.746 2267.81 310.07 2270.32L300.056 2257.93C297.923 2261.51 284.664 2263.5 195.406 2258.41L195.417 2258.4ZM168.627 2086.67C168.516 2086.71 168.406 2086.75 168.295 2086.79C167.974 2086.9 167.66 2087.01 167.338 2087.09L168.936 2089.07C168.832 2088.34 168.726 2087.54 168.629 2086.68L168.627 2086.67Z" fill="#705783"/>
<path d="M237.445 2028.36C297.452 2075.24 376.309 2053.52 376.309 2053.52C376.309 2053.52 377.896 1972.29 317.886 1925.4C279.278 1895.24 224.586 1886.64 190.485 1884.35C171.578 1883.07 120.855 1845.5 116.761 1850.73C112.869 1855.72 161.33 1896.07 167.015 1914.07C177.343 1946.75 198.747 1998.12 237.445 2028.36Z" fill="#23152E"/>
<path d="M118.307 1852C195.835 1913.21 280.407 1982.92 359.526 2041.4C365.047 2045.4 370.523 2049.46 376.09 2053.41L376.343 2053.09C371.166 2048.64 365.9 2044.31 360.68 2039.92C324.048 2009.48 286.232 1980.05 248.333 1951.25C216.04 1926.87 150.541 1875.1 118.307 1852Z" fill="#705783"/>
<path d="M140.584 1803.06C185.218 1786.57 223.094 1792.59 237.361 1796.61C232.991 1794.07 225.985 1789.28 221.559 1789.09C204.184 1788.35 175.209 1781.01 161.765 1766.76C146.675 1750.76 120.032 1712.6 121.363 1691.96C122.249 1678.22 195.581 1682.36 221.992 1701.49C254.192 1724.82 247.744 1764.15 241.022 1781.9C239.416 1786.14 240.274 1790.89 240.901 1794.15C241.657 1793.27 242.368 1792.45 243.043 1791.72C245.929 1775.14 259.331 1732.63 271.133 1692.71C277.244 1672.04 312.569 1644.95 316.613 1646.91C320.658 1648.87 324.039 1689.47 308.895 1711.02C285.614 1744.16 260.777 1780.66 249.241 1793.82C249.086 1794.94 248.875 1796.19 248.622 1797.54C251.551 1796.01 255.559 1793.78 257.801 1790.04C267.544 1773.76 294.385 1744.31 332.646 1755.13C364.027 1764.01 412.729 1819.03 402.504 1828.25C387.145 1842.09 340.721 1844.82 318.811 1842.89C299.295 1841.18 275.581 1822.97 264.231 1809.78C261.34 1806.43 253.239 1803.9 248.542 1802.04C260.54 1810.75 288.748 1836.76 303.483 1882.03C311.912 1907.93 297.619 1947.28 294.576 1947.13C292.024 1946.99 288.487 1919.49 269.162 1900.66C254.534 1886.4 255.208 1837.19 246.365 1807.97C244.231 1816.9 241.172 1828.1 237.553 1840.44C243.905 1844.27 249.13 1851.99 246.556 1871.14C244.159 1889.03 231.565 1902.1 218.436 1900.32C218.191 1900.28 217.955 1900.24 217.728 1900.2C210.421 1898.65 208.835 1889.41 200.477 1885.35C192.747 1881.6 184.969 1885.24 179.267 1881.98C178.608 1881.6 177.977 1881.14 177.382 1880.56C167.866 1871.33 170.344 1853.34 182.917 1840.4C197.742 1825.13 207.462 1825.83 214.564 1829.29C222.11 1818.62 229.096 1809.05 234.791 1801.73C206.328 1812.65 167.684 1844.25 147.261 1841.58C120.512 1838.08 96.7525 1852.35 95.0677 1850.43C93.0577 1848.14 115.049 1812.51 140.577 1803.08L140.584 1803.06Z" fill="#705783"/>
<path d="M141.505 2321.46C141.463 2321.47 125.281 2322.91 128.194 2332.61C130.718 2341.01 149.344 2351.96 149.35 2351.96C170.969 2361.05 188.612 2382.94 206.244 2392.02C239.474 2414.3 257.572 2408.42 280.799 2433.07C371.229 2516.29 411.397 2474.26 349.881 2450.94C314.5 2438.23 283.193 2391.36 240.559 2381.48C213.998 2374.85 165.691 2323.4 141.499 2321.46L141.505 2321.46ZM347.847 2450.66C347.847 2450.66 347.83 2450.66 347.819 2450.66C347.83 2450.66 347.836 2450.66 347.847 2450.66ZM347.876 2450.67C347.876 2450.67 347.859 2450.66 347.853 2450.66C347.859 2450.66 347.87 2450.67 347.876 2450.67ZM347.893 2450.67C347.893 2450.67 347.893 2450.67 347.887 2450.67C347.887 2450.67 347.887 2450.67 347.893 2450.67Z" fill="#705783"/>
<path d="M319.129 2449.27C322.066 2449.65 324.139 2452.34 323.757 2455.28C323.376 2458.22 320.685 2460.29 317.747 2459.91C314.81 2459.53 312.738 2456.84 313.119 2453.9C313.501 2450.96 316.192 2448.89 319.129 2449.27Z" fill="#504558"/>
<path d="M218.147 2369.46C221.672 2369.91 224.158 2373.14 223.7 2376.67C223.242 2380.19 220.014 2382.68 216.49 2382.22C212.965 2381.76 210.479 2378.53 210.937 2375.01C211.395 2371.48 214.623 2369 218.147 2369.46Z" fill="#504558"/>
<path d="M344.532 2471.56C353.732 2483.48 349.894 2501.86 335.961 2512.62C322.028 2523.37 303.276 2522.42 294.077 2510.5C284.878 2498.58 288.716 2480.2 302.648 2469.45C316.581 2458.7 335.333 2459.64 344.532 2471.56Z" fill="#23152E"/>
<path d="M293.055 2438.6C302.254 2450.52 298.417 2468.9 284.484 2479.65C270.551 2490.41 251.799 2489.46 242.6 2477.54C233.401 2465.62 237.238 2447.24 251.171 2436.49C265.104 2425.74 283.856 2426.68 293.055 2438.6Z" fill="#23152E"/>
<path d="M246.183 2399.01C257.743 2408.65 257.975 2427.43 246.7 2440.94C235.425 2454.45 216.913 2457.59 205.352 2447.94C193.791 2438.3 193.559 2419.52 204.834 2406.01C216.11 2392.5 234.622 2389.36 246.183 2399.01Z" fill="#23152E"/>
<path d="M207.97 2383.5C210.644 2398.32 198.772 2412.87 181.452 2415.99C164.132 2419.12 147.923 2409.64 145.249 2394.82C142.575 2380.01 154.448 2365.46 171.768 2362.33C189.088 2359.21 205.296 2368.69 207.97 2383.5Z" fill="#23152E"/>
<path d="M155.155 2344.75C158.38 2359.45 147.059 2374.43 129.868 2378.2C112.676 2381.97 96.1254 2373.11 92.8999 2358.4C89.6744 2343.69 100.996 2328.71 118.187 2324.94C135.378 2321.17 151.929 2330.04 155.155 2344.75Z" fill="#23152E"/>
<path d="M400.66 2430.52C401.783 2448.09 390.514 2463.1 375.488 2464.07C360.462 2465.03 347.371 2451.57 346.247 2434C345.124 2416.44 356.394 2401.42 371.419 2400.46C386.445 2399.5 399.536 2412.96 400.66 2430.52Z" fill="#23152E"/>
<path d="M341.356 2412.57C344.482 2429.89 335.004 2446.1 320.187 2448.77C305.37 2451.45 290.825 2439.58 287.699 2422.26C284.573 2404.94 294.051 2388.73 308.868 2386.05C323.684 2383.38 338.23 2395.25 341.356 2412.57Z" fill="#23152E"/>
<path d="M292.209 2371.36C295.335 2388.68 285.858 2404.88 271.041 2407.56C256.224 2410.23 241.678 2398.36 238.552 2381.04C235.427 2363.72 244.904 2347.51 259.721 2344.84C274.538 2342.16 289.083 2354.04 292.209 2371.36Z" fill="#23152E"/>
<path d="M213.842 2320.75C216.968 2338.07 207.49 2354.28 192.673 2356.96C177.856 2359.63 163.311 2347.76 160.185 2330.44C157.059 2313.12 166.537 2296.91 181.354 2294.24C196.171 2291.56 210.716 2303.44 213.842 2320.75Z" fill="#23152E"/>
</svg>
