<svg width="111" height="115" viewBox="0 0 111 115" fill="none" xmlns="http://www.w3.org/2000/svg">
<path fill-rule="evenodd" clip-rule="evenodd" d="M2.36057 19.4609H109.603V113.759H2.36057V19.4609Z" stroke="#23152E" stroke-width="1.5" stroke-linecap="round" stroke-linejoin="round"/>
<path d="M55.718 19.5488V113.645" stroke="#23152E"/>
<path d="M55.9392 77.127H109.417" stroke="#23152E"/>
<path opacity="0.6" d="M83.5781 32.2359L81.7898 32.3181L81.3083 32.9705L80.9031 32.8078L80.258 31.9106L79.6241 30.4751L78.6296 30.1947V29.7049L77.9789 29.0451L78.0607 27.6563L78.4678 27.1759L79.0348 26.2768H79.929L80.4179 25.7852L81.3901 24.6225L83.5037 24.9702L84.1525 24.6431L85.4538 24.4805L85.8609 24.7235L85.6973 25.2954L85.0485 25.4581L84.8794 25.9497L84.3217 26.3572L84.2956 27.4656L84.7678 27.8525L84.4871 28.8264L84.9704 28.9703L85.2958 29.2152L85.8646 29.2974V30.0321L86.1881 30.1143L85.7754 30.3536V31.2508L85.1247 31.4134L84.476 31.9854L83.5781 32.2359ZM90.9377 34.3799L89.8818 34.135L89.3148 33.0733V31.8489L88.9895 30.9498L88.0154 30.2975L87.7719 29.5629L86.8777 30.6246V31.1143L87.1213 31.5218L87.0395 32.2564H86.3089L85.6601 32.6658H84.9351L84.6098 33.2266L85.0969 35.5949L84.8533 38.0454L84.2845 38.208L84.2046 39.1052L83.6357 39.4324L82.5798 40.0043L82.011 40.8212V40.0866L80.1279 40.1146L80.061 39.281L78.9307 38.0174L78.4716 38.2828L78.031 39.1221H77.2205L76.0029 39.9389L75.6776 40.9203L74.8652 41.481L73.4859 42.8773L73.0787 43.9391L72.5917 44.6737L72.2682 45.4083L72.1047 46.3877L71.2923 47.1522V48.1317L70.7235 48.6233L70.9094 51.7412L70.9911 53.2926L70.5041 54.1899L70.2606 55.3338L69.9353 55.8236L70.0152 56.3133L69.53 56.231L69.2047 56.8853L68.9612 57.375L68.5541 57.4554L68.3682 58.962L69.2605 59.2068L69.3423 59.6162L69.9111 59.8611L70.3163 60.3508L70.4781 61.4125L70.8852 61.6574L70.967 62.6369L71.3722 63.2892V65.1678L70.967 66.3117V67.0464L70.4781 67.2912L70.3981 67.781L70.8852 68.1062L71.2904 69.0053L71.8593 69.495L72.021 70.2296L72.5898 70.7194L72.7516 71.1287L74.2146 70.9642L74.9451 71.0465L75.4322 70.639L76.0828 70.1493H76.7316L77.055 69.6576H77.9492L78.3563 69.1679L79.4921 69.2502L80.1428 68.7604L80.8733 68.6782L82.1746 67.6183L83.3922 66.1473L85.2604 64.8388L86.5301 64.8631L87.0989 64.7005L87.6678 64.2911H88.3166L89.4319 63.1696L90.7332 63.336L91.302 62.764L91.4638 61.9471L91.5232 60.3097L92.6665 58.6405L93.3673 58.3526L93.2353 56.4236L92.8301 56.3413L93.3171 55.9338V55.3619L93.886 55.0366L93.055 55.1357L92.3152 54.0758L92.3505 52.9132L93.1535 52.4178L93.2725 50.829L92.4769 50.4907L93.7131 49.8121H94.5255L95.0627 49.2402L95.8751 48.913L96.0368 48.4233L96.6056 48.3429L97.2061 47.5952L97.2507 45.1653L96.3082 45.1877L95.7505 45.9653H94.8563L94.2076 46.2102H93.5569L92.9881 46.0475L93.2316 45.5559L93.6387 45.8008L94.3563 45.427L94.4604 44.1035L93.5923 43.84L93.4751 43.111L93.0587 42.7091V41.7278L92.6535 41.3203L91.8653 41.2081L91.6273 40.5259L92.4211 40.1875L92.594 39.7146L91.6645 39.2922L92.8375 38.2417L93.4863 37.8323V37.2697L94.5236 36.6753V36.0229L93.9548 35.4509L93.4677 35.3687L93.306 34.9612H91.7575L90.9377 34.3799Z" fill="#F7F0DA" stroke="#23152E" stroke-width="2" stroke-linejoin="round"/>
<path opacity="0.6" fill-rule="evenodd" clip-rule="evenodd" d="M46.9568 25.4735L46.585 25.9408L46.1704 26.5296L45.5328 26.6997L45.373 25.2585L46.1165 25.0996L46.9568 25.4735ZM37.0616 63.9794L36.7976 64.2822L37.5877 64.7346H37.8888L37.0616 63.9794ZM46.7281 57.2932L46.8043 55.8595L46.1277 55.4856V54.9585L47.1055 54.5847L47.5554 55.7548L47.5182 56.5829L46.7281 57.2932ZM28.7391 33.984L27.9267 35.128L27.0325 35.2906L26.0585 35.9448L25.1662 36.5056L24.2776 37.7411L24.1958 38.6384L23.547 39.373L23.4652 39.7823L22.7347 40.3431L22.6547 42.0572L22.8982 44.018L22.6547 46.9583L22.1658 47.448L22.0413 49.0929L21.3925 49.8275L20.6619 50.6444L19.606 50.7266L19.0372 51.1341V51.7061H17.8196L17.0072 53.0145L16.3585 53.5865V54.3211L15.7078 54.7286L15.626 56.5978L16.4384 57.1698L16.1131 58.2297L16.5202 59.0465L16.7637 60.1082L17.5761 60.6802L18.1449 61.3326L17.5854 61.5943L17.4236 62.4111L16.4105 63.4597L16.167 64.7682L15.5182 65.4224L15.2654 66.2449L14.7765 67.3066V68.2879L15.1055 70.0469L13.3767 71.1684L12.819 72.9348L14.1054 73.8358L15.5554 73.9891L16.1912 75.2246L17.4106 75.6863L18.197 74.548L18.8996 74.5386L19.026 75.7256L17.6151 76.2209L17.6541 77.821L18.487 78.7275L18.5427 79.8491L17.6746 80.8416L17.6263 81.6211L17.7062 82.765L16.8957 83.1725L17.1838 84.5651L17.7508 85.382V85.9521L16.9682 86.7727L17.4478 89.5055L16.879 90.4868L16.5555 92.1186L16.0685 93.0177L14.5181 94.6215L14.1928 95.7636L13.7875 96.6627L13.3823 96.7431L13.215 99.8721L12.8079 100.687L13.0514 101.096L13.215 102.158L13.702 102.893L14.2709 104.201L15.0014 105.51L15.9755 106.489L17.1113 106.897L17.2749 107.306L17.762 106.734L18.8178 106.652L19.7101 105.672L21.7271 103.255L22.5785 99.7432L23.7905 96.616L25.2517 94.085L25.9822 92.1242L26.9582 89.1858L27.5252 87.3895L28.0141 84.7726L28.2557 81.3444L29.2317 79.6285L29.7894 78.8939V77.3424L29.1406 76.9349H29.6276V75.9536L30.5218 75.219L31.0906 74.1592L31.9829 73.0974L32.47 72.1983L32.957 71.7909L33.1188 67.7889L32.2265 66.972V66.4019L32.8771 65.9122L32.957 65.0131L33.5259 64.1158L34.1746 63.9513L34.2564 63.4616L34.987 62.8092L35.3123 62.2373L35.0688 59.297L34.4182 58.6446L34.7435 57.0932L34.7862 55.7174L35.5298 55.1828L35.3922 54.1641L34.9814 53.6856L35.1506 52.3584L34.3178 52.2949L33.5872 51.7229L32.8548 51.1509L32.9366 50.5808L33.5054 50.4986L33.9107 50.0911H34.8048L35.2919 50.4986L36.5931 50.2537L37.0188 49.506L37.4241 49.4256V48.7714L36.4574 48.1134L36.0522 47.8686L35.4034 47.7863L34.9145 47.5415L33.6969 46.7246H33.3734V46.2349L32.7228 46.0723V44.6012H33.2098L33.3716 45.0909L34.0222 45.2554L34.8346 45.6629L35.3216 46.2349L35.4833 46.6424L36.2139 46.562L36.4574 46.9695L37.1899 46.4797V45.7451L36.4574 45.418L36.0522 44.6834L35.4034 44.5208L34.9145 43.704L34.3475 43.6217L34.1839 43.0497H33.6262L33.9497 42.6422L34.275 42.1525L34.7621 42.0703L35.5744 41.4983H36.6303L37.3609 41.0085L38.2532 40.8459L39.3091 39.6216L39.7273 39.2477L42.2741 39.1692L43.1682 39.4945H43.7352L44.0066 40.0122L44.8487 40.044L45.6109 39.2683L45.5551 37.9972L44.3096 36.8888L43.0902 36.5617L42.0361 35.8271L40.9803 35.6644L40.1028 35.1747L39.0469 35.0102L38.1546 34.0307L37.9297 33.2438L37.4408 31.7746L35.8997 30.1428L35.1599 29.4212H34.5018L33.853 30.0736L32.39 30.8905L31.4977 31.9522L30.5237 32.5223L29.5496 33.6662L28.7391 33.984Z" fill="#F7F0DA" stroke="#23152E" stroke-width="2" stroke-linejoin="round"/>
<g opacity="0.6">
<path d="M85.6229 83.6523L85.517 84.4L86.5822 84.9346M83.6989 104.141L83.8068 105.1L82.9554 105.206M86.5729 86.4319L86.6788 87.3927L85.7215 87.6057H85.6229L86.5729 86.4319ZM75.1905 104.892L73.8075 104.999V106.601H72.7423L71.467 105.747L72.9542 105.96L73.2739 104.892H75.1905ZM76.4658 103.718H79.02L81.5723 101.475L84.5466 100.516L86.3665 98.3781L86.6863 95.7107L87.5358 94.8564V93.1498L88.3872 92.9349V89.5217L87.6436 88.9871L86.4725 88.8806L86.2606 89.5217L82.3252 92.0825V93.0414L81.7917 93.1498L81.6857 94.3237L82.3233 94.6434V95.7107H80.9421L79.8769 96.9892H78.7076L77.1127 98.5911L77.0049 99.9781L75.5177 101.898V102.859L76.4658 103.718Z" fill="#DDD0A9"/>
<path d="M85.6229 83.6523L85.517 84.4L86.5822 84.9346M83.6989 104.141L83.8068 105.1L82.9554 105.206M86.5729 86.4319L86.6788 87.3927L85.7215 87.6057H85.6229L86.5729 86.4319ZM75.1905 104.892L73.8075 104.999V106.601H72.7423L71.467 105.747L72.9542 105.96L73.2739 104.892H75.1905ZM76.4658 103.718H79.02L81.5723 101.475L84.5466 100.516L86.3665 98.3781L86.6863 95.7107L87.5358 94.8564V93.1499L88.3872 92.9349V89.5217L87.6436 88.9871L86.4725 88.8806L86.2606 89.5217L82.3252 92.0825V93.0414L81.7917 93.1499L81.6857 94.3237L82.3233 94.6434V95.7107H80.9421L79.8769 96.9892H78.7076L77.1127 98.5911L77.0049 99.9781L75.5177 101.898V102.859L76.4658 103.718Z" stroke="#23152E" stroke-width="2" stroke-linejoin="round"/>
</g>
<path d="M7.65452 8.19391C6.41452 7.73391 5.95452 7.18391 5.95452 6.33391C5.95452 5.25391 6.79452 4.48391 8.22452 4.48391C8.87452 4.48391 9.49452 4.59391 9.88452 4.74391L9.60452 5.85391C9.12452 5.66391 8.49452 5.49391 7.93452 5.49391C7.46452 5.49391 7.20452 5.75391 7.20452 6.13391C7.20452 6.53391 7.39452 6.76391 8.26452 7.08391C9.54452 7.55391 10.0045 8.02391 10.0045 8.88391C10.0045 10.1239 9.04452 10.9039 7.58452 10.9039C6.96452 10.9039 6.24452 10.7739 5.85452 10.6139L6.07452 9.43391C6.59452 9.65391 7.25452 9.87391 7.86452 9.87391C8.37452 9.87391 8.70452 9.60391 8.70452 9.17391C8.70452 8.75391 8.52452 8.51391 7.65452 8.19391ZM13.5373 10.9039L13.2873 10.4239C12.9173 10.6639 12.4273 10.9039 12.0173 10.9039C11.2373 10.9039 10.6473 10.4039 10.6473 9.61391C10.6473 8.73391 11.3473 8.13391 13.1673 8.06391V7.87391C13.1673 7.31391 12.9073 7.09391 12.4173 7.09391C11.9873 7.09391 11.4573 7.24391 11.0373 7.39391L10.7973 6.52391C11.4573 6.28391 12.0773 6.10391 12.7973 6.10391C13.8173 6.10391 14.3973 6.59391 14.3973 7.62391V10.7239L13.5373 10.9039ZM12.4173 10.0239C12.6273 10.0239 12.9273 9.92391 13.1673 9.80391V8.88391C12.9973 8.85391 12.7873 8.84391 12.6073 8.84391C12.0473 8.84391 11.7673 9.05391 11.7673 9.42391C11.7673 9.78391 12.0373 10.0239 12.4173 10.0239ZM17.5279 7.05391C17.2879 7.05391 16.9579 7.16391 16.7479 7.27391V10.7539H15.4879V6.28391L16.3879 6.10391L16.6279 6.55391C17.0379 6.33391 17.6079 6.10391 18.1079 6.10391C18.9379 6.10391 19.5379 6.55391 19.5379 7.46391V10.7539H18.2779V7.87391C18.2779 7.23391 17.9179 7.05391 17.5279 7.05391ZM25.4026 10.9039L25.1526 10.4239C24.7826 10.6639 24.2926 10.9039 23.8826 10.9039C23.1026 10.9039 22.5126 10.4039 22.5126 9.61391C22.5126 8.73391 23.2126 8.13391 25.0326 8.06391V7.87391C25.0326 7.31391 24.7726 7.09391 24.2826 7.09391C23.8526 7.09391 23.3226 7.24391 22.9026 7.39391L22.6626 6.52391C23.3226 6.28391 23.9426 6.10391 24.6626 6.10391C25.6826 6.10391 26.2626 6.59391 26.2626 7.62391V10.7239L25.4026 10.9039ZM24.2826 10.0239C24.4926 10.0239 24.7926 9.92391 25.0326 9.80391V8.88391C24.8626 8.85391 24.6526 8.84391 24.4726 8.84391C23.9126 8.84391 23.6326 9.05391 23.6326 9.42391C23.6326 9.78391 23.9026 10.0239 24.2826 10.0239ZM29.3931 7.05391C29.1531 7.05391 28.8231 7.16391 28.6131 7.27391V10.7539H27.3531V6.28391L28.2531 6.10391L28.4931 6.55391C28.9031 6.33391 29.4731 6.10391 29.9731 6.10391C30.8031 6.10391 31.4031 6.55391 31.4031 7.46391V10.7539H30.1431V7.87391C30.1431 7.23391 29.7831 7.05391 29.3931 7.05391ZM35.7198 10.9039L35.4498 10.4239C35.0998 10.6339 34.5298 10.9139 34.0498 10.9039C33.1098 10.8939 32.2098 10.2239 32.2098 8.61391C32.2098 6.89391 33.4298 6.10391 34.4398 6.10391C34.7798 6.10391 35.0898 6.13391 35.3598 6.18391V4.00391L36.6198 3.82391V10.7239L35.7198 10.9039ZM34.5898 9.96391C34.8498 9.96391 35.1198 9.89391 35.3598 9.78391V7.17391C35.1098 7.09391 34.7998 7.03391 34.4798 7.03391C33.8998 7.03391 33.4898 7.45391 33.4898 8.52391C33.4898 9.64391 34.0898 9.96391 34.5898 9.96391ZM39.9337 7.21391C39.6537 7.21391 39.2737 7.29391 39.0037 7.41391V10.7539H37.7437V6.28391L38.6437 6.10391L38.9337 6.64391C39.2237 6.42391 39.7137 6.10391 40.2037 6.10391C40.3737 6.10391 40.4637 6.12391 40.5137 6.13391L40.3637 7.24391C40.2837 7.22391 40.0637 7.21391 39.9337 7.21391ZM42.0631 5.69391L43.3531 4.12391L44.6231 4.35391L43.0931 5.69391H42.0631ZM42.8431 6.90391C42.3931 6.90391 42.1431 7.13391 42.0731 7.88391H43.6331C43.6331 7.22391 43.3531 6.90391 42.8431 6.90391ZM44.8131 10.5039C44.3331 10.7339 43.7131 10.9039 42.9931 10.9039C41.8331 10.9039 40.8231 10.2539 40.8231 8.62391C40.8231 7.04391 41.7031 6.10391 43.0431 6.10391C44.3831 6.10391 44.7831 6.99391 44.7831 7.98391C44.7831 8.18391 44.7631 8.48391 44.7431 8.62391H42.0431C42.1031 9.65391 42.7031 9.94391 43.2731 9.94391C43.7531 9.94391 44.2331 9.83391 44.6131 9.68391L44.8131 10.5039ZM47.0134 10.9039C46.2534 10.9039 45.7234 10.7539 45.3734 10.6239L45.6034 9.65391C46.0934 9.83391 46.6134 9.99391 47.1834 9.99391C47.5434 9.99391 47.7234 9.82391 47.7234 9.59391C47.7234 9.37391 47.6134 9.15391 47.1834 9.00391L46.4834 8.76391C45.8534 8.54391 45.4834 8.19391 45.4834 7.53391C45.4834 6.68391 46.3434 6.10391 47.2934 6.10391C48.0234 6.10391 48.5234 6.21391 48.8234 6.31391L48.6134 7.27391C48.1534 7.11391 47.6234 6.98391 47.2134 6.98391C46.8134 6.98391 46.6434 7.15391 46.6434 7.37391C46.6434 7.60391 46.7534 7.76391 47.2034 7.91391L47.8734 8.13391C48.6034 8.37391 48.9234 8.82391 48.9234 9.40391C48.9234 10.4539 47.8134 10.9039 47.0134 10.9039ZM52.0137 13.1039C51.8237 13.1039 51.5937 13.0739 51.4837 13.0439L51.4137 12.0439C52.3337 12.1539 53.0337 11.8739 53.4437 10.7539H52.8837L51.3837 6.33391L52.6937 6.15391L53.7837 9.68391C54.1837 8.35391 54.6337 6.71391 54.7537 6.25391H56.0037C55.8037 6.91391 54.8437 10.1339 54.4837 11.0839C53.9937 12.4539 53.0937 13.1039 52.0137 13.1039ZM60.7294 7.64391C61.5194 7.64391 61.9294 7.30391 61.9294 6.60391C61.9294 5.91391 61.4894 5.51391 60.5594 5.51391H60.2394V7.62391C60.3994 7.63391 60.5494 7.64391 60.7294 7.64391ZM60.6094 8.55391C60.4894 8.55391 60.3594 8.55391 60.2394 8.54391V10.7539H58.9194V4.63391H61.0394C62.4494 4.63391 63.2794 5.29391 63.2794 6.42391C63.2794 7.81391 62.0594 8.55391 60.6094 8.55391ZM66.1837 7.21391C65.9037 7.21391 65.5237 7.29391 65.2537 7.41391V10.7539H63.9937V6.28391L64.8937 6.10391L65.1837 6.64391C65.4737 6.42391 65.9637 6.10391 66.4537 6.10391C66.6237 6.10391 66.7137 6.12391 66.7637 6.13391L66.6137 7.24391C66.5337 7.22391 66.3137 7.21391 66.1837 7.21391ZM71.6431 8.41391C71.6431 9.96391 70.6631 10.9039 69.2031 10.9039C67.9531 10.9039 67.0731 10.1439 67.0731 8.59391C67.0731 7.04391 68.0531 6.10391 69.5131 6.10391C70.8231 6.10391 71.6431 6.86391 71.6431 8.41391ZM70.3631 8.62391C70.3631 7.33391 69.8831 6.99391 69.2531 6.99391C68.7031 6.99391 68.3531 7.31391 68.3531 8.38391C68.3531 9.67391 68.8331 10.0139 69.4631 10.0139C70.0131 10.0139 70.3631 9.69391 70.3631 8.62391ZM75.0401 10.7539H73.4101L71.9501 6.33391L73.2601 6.15391L74.3001 9.71391L75.3301 6.25391H76.5701L75.0401 10.7539ZM77.0178 4.78391C77.0178 4.50391 77.4878 3.99391 77.7578 3.99391C78.0078 3.99391 78.5778 4.38391 78.5778 4.67391C78.5778 4.95391 78.0878 5.45391 77.8378 5.45391C77.5778 5.45391 77.0178 5.06391 77.0178 4.78391ZM77.1578 6.27391L78.4178 6.09391V10.7539H77.1578V6.27391ZM82.7706 10.9039L82.5006 10.4239C82.1506 10.6339 81.5806 10.9139 81.1006 10.9039C80.1606 10.8939 79.2606 10.2239 79.2606 8.61391C79.2606 6.89391 80.4806 6.10391 81.4906 6.10391C81.8306 6.10391 82.1406 6.13391 82.4106 6.18391V4.00391L83.6706 3.82391V10.7239L82.7706 10.9039ZM81.6406 9.96391C81.9006 9.96391 82.1706 9.89391 82.4106 9.78391V7.17391C82.1606 7.09391 81.8506 7.03391 81.5306 7.03391C80.9506 7.03391 80.5406 7.45391 80.5406 8.52391C80.5406 9.64391 81.1406 9.96391 81.6406 9.96391ZM86.5345 6.90391C86.0845 6.90391 85.8345 7.13391 85.7645 7.88391H87.3245C87.3245 7.22391 87.0445 6.90391 86.5345 6.90391ZM88.5045 10.5039C88.0245 10.7339 87.4045 10.9039 86.6845 10.9039C85.5245 10.9039 84.5145 10.2539 84.5145 8.62391C84.5145 7.04391 85.3945 6.10391 86.7345 6.10391C88.0745 6.10391 88.4745 6.99391 88.4745 7.98391C88.4745 8.18391 88.4545 8.48391 88.4345 8.62391H85.7345C85.7945 9.65391 86.3945 9.94391 86.9645 9.94391C87.4445 9.94391 87.9245 9.83391 88.3045 9.68391L88.5045 10.5039ZM91.4048 7.05391C91.1648 7.05391 90.8348 7.16391 90.6248 7.27391V10.7539H89.3648V6.28391L90.2648 6.10391L90.5048 6.55391C90.9148 6.33391 91.4848 6.10391 91.9848 6.10391C92.8148 6.10391 93.4148 6.55391 93.4148 7.46391V10.7539H92.1548V7.87391C92.1548 7.23391 91.7948 7.05391 91.4048 7.05391ZM97.7916 9.72391L97.9316 10.5839C97.5216 10.7639 96.9616 10.9039 96.4316 10.9039C95.2116 10.9039 94.2216 10.1639 94.2216 8.65391C94.2216 6.99391 95.3116 6.10391 96.6016 6.10391C97.2216 6.10391 97.6516 6.21391 97.9016 6.33391L97.6816 7.29391C97.4316 7.17391 96.9216 7.05391 96.6116 7.05391C95.9216 7.05391 95.5016 7.45391 95.5016 8.45391C95.5016 9.51391 96.1216 9.92391 96.7616 9.92391C97.1316 9.92391 97.4916 9.84391 97.7916 9.72391ZM98.5608 4.78391C98.5608 4.50391 99.0308 3.99391 99.3008 3.99391C99.5508 3.99391 100.121 4.38391 100.121 4.67391C100.121 4.95391 99.6308 5.45391 99.3808 5.45391C99.1208 5.45391 98.5608 5.06391 98.5608 4.78391ZM98.7008 6.27391L99.9608 6.09391V10.7539H98.7008V6.27391ZM103.694 10.9039L103.444 10.4239C103.074 10.6639 102.584 10.9039 102.174 10.9039C101.394 10.9039 100.804 10.4039 100.804 9.61391C100.804 8.73391 101.504 8.13391 103.324 8.06391V7.87391C103.324 7.31391 103.064 7.09391 102.574 7.09391C102.144 7.09391 101.614 7.24391 101.194 7.39391L100.954 6.52391C101.614 6.28391 102.234 6.10391 102.954 6.10391C103.974 6.10391 104.554 6.59391 104.554 7.62391V10.7239L103.694 10.9039ZM102.574 10.0239C102.784 10.0239 103.084 9.92391 103.324 9.80391V8.88391C103.154 8.85391 102.944 8.84391 102.764 8.84391C102.204 8.84391 101.924 9.05391 101.924 9.42391C101.924 9.78391 102.194 10.0239 102.574 10.0239Z" fill="#F7F0DA"/>
</svg>
